<?xml version="1.0" encoding="UTF-8" standalone="no"?>
<!-- Created with Inkscape (http://www.inkscape.org/) -->

<svg
   xmlns:dc="http://purl.org/dc/elements/1.1/"
   xmlns:cc="http://creativecommons.org/ns#"
   xmlns:rdf="http://www.w3.org/1999/02/22-rdf-syntax-ns#"
   xmlns:svg="http://www.w3.org/2000/svg"
   xmlns="http://www.w3.org/2000/svg"
   xmlns:sodipodi="http://sodipodi.sourceforge.net/DTD/sodipodi-0.dtd"
   xmlns:inkscape="http://www.inkscape.org/namespaces/inkscape"
   width="160"
   height="24"
   id="svg2"
   version="1.1"
   inkscape:version="0.48.2 r9819"
   sodipodi:docname="bin00.svg">
  <defs
     id="defs4" />
  <sodipodi:namedview
     id="base"
     pagecolor="#ffffff"
     bordercolor="#666666"
     borderopacity="1.0"
     inkscape:pageopacity="0.0"
     inkscape:pageshadow="2"
     inkscape:zoom="2.56"
     inkscape:cx="109.09898"
     inkscape:cy="-23.225812"
     inkscape:document-units="px"
     inkscape:current-layer="layer1"
     showgrid="false"
     inkscape:window-width="1053"
     inkscape:window-height="435"
     inkscape:window-x="73"
     inkscape:window-y="211"
     inkscape:window-maximized="0" />
  <metadata
     id="metadata7">
    <rdf:RDF>
      <cc:Work
         rdf:about="">
        <dc:format>image/svg+xml</dc:format>
        <dc:type
           rdf:resource="http://purl.org/dc/dcmitype/StillImage" />
        <dc:title></dc:title>
      </cc:Work>
    </rdf:RDF>
  </metadata>
  <g
     inkscape:label="レイヤー 1"
     inkscape:groupmode="layer"
     id="layer1"
     transform="translate(0,-1028.3622)">
    <g
       style="font-size:40px;font-style:normal;font-weight:normal;line-height:125%;letter-spacing:0px;word-spacing:0px;fill:#f2f2f2;fill-opacity:1;stroke:none;font-family:Sans"
       id="text2985">
      <path
         d="m 26.90276,1033.7306 0.624023,-0.3521 c 0.394519,0.6189 0.9064,1.5043 1.535645,2.6563 l -0.624024,0.3037 c -0.511731,-0.9599 -1.023612,-1.8293 -1.535644,-2.6079 z m 2.111816,-0.6401 0.624023,-0.3516 c 0.608059,0.9385 1.141424,1.8397 1.600098,2.7036 l -0.624023,0.3203 c -0.565445,-1.0241 -1.09881,-1.9148 -1.600098,-2.6723 z m -12.031738,1.8881 5.743652,0 0,0.7041 c -1.226568,0.7042 -2.221196,1.6615 -2.983887,2.8721 -0.762698,1.2106 -1.144046,2.4452 -1.144043,3.7036 -3e-6,1.3229 0.354652,2.3284 1.063965,3.0164 0.709305,0.688 1.735997,1.032 3.080078,1.032 1.375968,0 2.466625,-0.4161 3.271973,-1.2481 0.805327,-0.832 1.207996,-1.9681 1.208008,-3.4082 -1.2e-5,-1.9518 -0.554699,-4.005 -1.664063,-6.1597 l 0.576172,-0.4482 c 0.543934,0.7149 1.250558,1.5016 2.119873,2.3601 0.86929,0.8586 1.719956,1.6026 2.552002,2.2322 l -0.432129,0.5757 c -1.183933,-0.8959 -2.330579,-1.9678 -3.439941,-3.2158 l -0.03174,0.016 c 0.714506,1.7278 1.071764,3.3278 1.071777,4.7998 -1.3e-5,1.5787 -0.472017,2.8401 -1.416016,3.7841 -0.94402,0.9441 -2.215992,1.4161 -3.815918,1.4161 -1.568039,0 -2.778731,-0.4081 -3.63208,-1.2242 -0.853355,-0.816 -1.280031,-1.9814 -1.280029,-3.4961 -2e-6,-1.2161 0.336016,-2.4161 1.008057,-3.6 0.672033,-1.184 1.578689,-2.1812 2.71997,-2.9917 l -0.01611,-0.032 -4.55957,0 z"
         style="font-size:16px;fill:#f2f2f2;font-family:'M+ 1m light';-inkscape-font-specification:'M+ 1m light'"
         id="path5572" />
      <path
         d="m 38.758717,1034.1788 c -1.173509,2.7732 -2.181483,5.2264 -3.023926,7.3599 l 0.03174,0.016 c 0.896154,-1.3014 1.872227,-1.9521 2.928223,-1.9521 0.618482,0 1.09309,0.2907 1.423828,0.872 0.33072,0.5814 0.597484,1.4268 0.800293,2.5362 0.202464,1.0664 0.426341,1.8529 0.671631,2.3596 0.245269,0.5067 0.597238,0.76 1.055908,0.76 1.216133,0 2.229479,-1.4933 3.040039,-4.48 l 0.687988,0.1919 c -0.885105,3.3174 -2.132988,4.9761 -3.743652,4.9761 -0.672211,0 -1.181651,-0.2987 -1.52832,-0.896 -0.346689,-0.5973 -0.637379,-1.4985 -0.872071,-2.7036 -0.202482,-1.003 -0.415698,-1.7444 -0.639648,-2.2244 -0.223966,-0.48 -0.543953,-0.72 -0.959961,-0.72 -0.84278,0 -1.656174,0.5121 -2.440186,1.5362 -0.78402,1.0241 -1.640058,2.7308 -2.568115,5.1201 l -0.671875,-0.2564 c 1.568031,-4.0638 3.274735,-8.309 5.120117,-12.7358 z"
         style="font-size:16px;fill:#f2f2f2;font-family:'M+ 1m light';-inkscape-font-specification:'M+ 1m light'"
         id="path5574" />
      <path
         d="m 50.710865,1034.6105 0,13.04 2.943848,0 0,0.6401 -3.680176,0 0,-14.3198 3.680176,0 0,0.6397 z"
         style="font-size:16px;fill:#f2f2f2;font-family:'M+ 1m light';-inkscape-font-specification:'M+ 1m light'"
         id="path5576" />
      <path
         d="m 60.214771,1035.1866 c -1.045576,10e-5 -1.816327,0.4134 -2.312256,1.24 -0.495932,0.8267 -0.743898,2.1681 -0.743896,4.0242 -2e-6,1.8239 0.245359,3.1572 0.736084,3.9998 0.49072,0.8426 1.221432,1.2639 2.192139,1.2639 0.618484,0 1.194493,-0.1439 1.728027,-0.4317 l 0,-4.9922 -2.720215,0 0,-0.7202 3.52002,0 0,6.2403 c -0.821296,0.4267 -1.674648,0.6401 -2.560059,0.6401 -1.216149,0 -2.133547,-0.4853 -2.752197,-1.456 -0.618654,-0.9707 -0.92798,-2.4854 -0.927979,-4.544 -1e-6,-2.1015 0.312011,-3.6269 0.936035,-4.5762 0.624021,-0.9492 1.592119,-1.4238 2.904297,-1.4238 0.661128,0 1.343744,0.1493 2.047852,0.4478 l 0,0.8003 c -0.661465,-0.3415 -1.344081,-0.5122 -2.047852,-0.5123 z"
         style="font-size:16px;fill:#f2f2f2;font-family:'M+ 1m light';-inkscape-font-specification:'M+ 1m light'"
         id="path5578" />
      <path
         d="m 64.85442,1034.6105 2.960449,0 0,9.4399 c -4e-6,0.7575 0.07731,1.2296 0.231934,1.4163 0.154617,0.1867 0.530593,0.28 1.127929,0.28 0.319981,0 0.693353,-0.032 1.120117,-0.096 l 0,0.7202 c -0.426764,0.053 -0.826828,0.08 -1.200195,0.08 -0.842778,0 -1.400151,-0.1493 -1.672119,-0.448 -0.271976,-0.2987 -0.407962,-0.9228 -0.407959,-1.8723 l 0,-8.8159 -2.160156,0 z"
         style="font-size:16px;fill:#f2f2f2;font-family:'M+ 1m light';-inkscape-font-specification:'M+ 1m light'"
         id="path5580" />
      <path
         d="m 75.654713,1037.8107 c 0.959956,0 1.634597,0.2053 2.023925,0.6159 0.389317,0.4107 0.583978,1.1386 0.583985,2.1839 l 0,5.6801 -0.751953,0 -0.01611,-1.456 -0.03174,0 c -0.51205,1.0775 -1.354822,1.6162 -2.52832,1.6162 -0.68262,0 -1.231936,-0.2161 -1.647949,-0.6482 -0.416017,-0.4321 -0.624025,-1.0268 -0.624024,-1.7839 -10e-7,-0.8962 0.309325,-1.6162 0.927979,-2.1602 0.618649,-0.5439 1.626705,-0.8159 3.02417,-0.8159 l 0.863769,0 0,-0.5918 c -6e-6,-0.7148 -0.135992,-1.2162 -0.407959,-1.5041 -0.271978,-0.288 -0.743901,-0.4319 -1.415771,-0.4319 -0.341475,0 -0.776208,0.059 -1.3042,0.176 -0.527997,0.1174 -0.973309,0.2613 -1.335937,0.4319 l 0,-0.752 c 0.917315,-0.3733 1.79736,-0.56 2.640137,-0.56 z m 1.82373,3.872 -0.863769,0 c -0.959965,0 -1.733321,0.184 -2.320069,0.552 -0.586753,0.368 -0.880129,0.9467 -0.880127,1.7361 -2e-6,0.5547 0.146727,0.9894 0.440186,1.304 0.293454,0.3146 0.696042,0.4719 1.207764,0.4719 0.704097,0 1.282791,-0.2773 1.736084,-0.832 0.453282,-0.5547 0.679925,-1.2961 0.679931,-2.2241 z"
         style="font-size:16px;fill:#f2f2f2;font-family:'M+ 1m light';-inkscape-font-specification:'M+ 1m light'"
         id="path5582" />
      <path
         d="m 83.606861,1038.5148 c -1.194664,0 -1.791994,0.4586 -1.791992,1.3759 -2e-6,0.4161 0.127927,0.7627 0.383789,1.0401 0.255856,0.2773 0.735836,0.5172 1.439941,0.7197 1.002599,0.2988 1.695958,0.6375 2.080079,1.0161 0.384108,0.3786 0.576165,0.904 0.576171,1.5762 -6e-6,0.6934 -0.237392,1.2347 -0.712158,1.624 -0.474777,0.3893 -1.144129,0.584 -2.008056,0.584 -0.863936,0 -1.690595,-0.208 -2.479981,-0.624 l 0,-0.8159 c 0.789386,0.4905 1.589352,0.7358 2.399902,0.7358 1.333329,0 1.999995,-0.5013 2,-1.5039 -5e-6,-0.4694 -0.143967,-0.8428 -0.431884,-1.1201 -0.287929,-0.2774 -0.805262,-0.528 -1.552002,-0.752 -0.906579,-0.2666 -1.549238,-0.5919 -1.927979,-0.976 -0.378745,-0.3842 -0.568116,-0.8855 -0.568115,-1.504 -1e-6,-0.6614 0.221352,-1.1734 0.664062,-1.5361 0.442706,-0.3626 1.074704,-0.5439 1.895997,-0.5439 0.832026,0 1.631993,0.1759 2.399902,0.5278 l 0,0.7842 c -0.79981,-0.4053 -1.589035,-0.6079 -2.367676,-0.6079 z"
         style="font-size:16px;fill:#f2f2f2;font-family:'M+ 1m light';-inkscape-font-specification:'M+ 1m light'"
         id="path5584" />
      <path
         d="m 91.606861,1038.5148 c -1.194664,0 -1.791994,0.4586 -1.791992,1.3759 -2e-6,0.4161 0.127927,0.7627 0.383789,1.0401 0.255856,0.2773 0.735836,0.5172 1.439941,0.7197 1.002599,0.2988 1.695958,0.6375 2.080079,1.0161 0.384108,0.3786 0.576165,0.904 0.576171,1.5762 -6e-6,0.6934 -0.237392,1.2347 -0.712158,1.624 -0.474777,0.3893 -1.144129,0.584 -2.008056,0.584 -0.863936,0 -1.690595,-0.208 -2.479981,-0.624 l 0,-0.8159 c 0.789386,0.4905 1.589352,0.7358 2.399902,0.7358 1.333329,0 1.999995,-0.5013 2,-1.5039 -5e-6,-0.4694 -0.143967,-0.8428 -0.431884,-1.1201 -0.287929,-0.2774 -0.805262,-0.528 -1.552002,-0.752 -0.906579,-0.2666 -1.549238,-0.5919 -1.927979,-0.976 -0.378745,-0.3842 -0.568116,-0.8855 -0.568115,-1.504 -1e-6,-0.6614 0.221352,-1.1734 0.664062,-1.5361 0.442706,-0.3626 1.074704,-0.5439 1.895997,-0.5439 0.832026,0 1.631993,0.1759 2.399902,0.5278 l 0,0.7842 c -0.79981,-0.4053 -1.589035,-0.6079 -2.367676,-0.6079 z"
         style="font-size:16px;fill:#f2f2f2;font-family:'M+ 1m light';-inkscape-font-specification:'M+ 1m light'"
         id="path5586" />
      <path
         d="m 109.52678,1037.3307 c 0,-1.4401 -0.80534,-2.1602 -2.41601,-2.1602 -0.42676,0 -0.88021,0.048 -1.36035,0.1441 l 0,4.2558 1.0083,0 c 0.94921,0 1.64786,-0.184 2.09594,-0.552 0.44808,-0.368 0.67212,-0.9305 0.67212,-1.6877 z m 1.16797,5.6318 c -1e-5,2.3255 -1.13607,3.4883 -3.4082,3.4883 -0.78939,0 -1.57341,-0.075 -2.35205,-0.2241 l 0,-11.5523 c 0.74674,-0.149 1.50944,-0.2236 2.28808,-0.2236 2.06933,0 3.104,0.9333 3.10401,2.7998 -10e-6,1.3867 -0.63461,2.256 -1.90381,2.6079 l 0,0.032 c 0.71451,0.1495 1.2718,0.4908 1.67187,1.024 0.40006,0.5332 0.60009,1.2158 0.6001,2.0478 z m -0.81592,-0.064 c 0,-0.8855 -0.24536,-1.5415 -0.73608,-1.9681 -0.49073,-0.4265 -1.25871,-0.6398 -2.30396,-0.6399 l -1.08837,0 0,5.2959 c 0.57616,0.096 1.13622,0.1441 1.68017,0.1441 0.82129,0 1.43465,-0.2293 1.84009,-0.688 0.40543,-0.4587 0.60815,-1.1733 0.60815,-2.144 z"
         style="font-size:16px;fill:#f2f2f2;font-family:'M+ 1m light';-inkscape-font-specification:'M+ 1m light'"
         id="path5588" />
      <path
         d="m 113.28655,1038.859 c 0.5013,-0.6989 1.26399,-1.0483 2.28808,-1.0483 1.02409,0 1.78678,0.3493 2.28809,1.0481 0.5013,0.6987 0.75195,1.7894 0.75195,3.2719 0,1.4826 -0.25065,2.5733 -0.75195,3.272 -0.50131,0.6987 -1.264,1.0481 -2.28809,1.0481 -1.02409,0 -1.78678,-0.3494 -2.28808,-1.0481 -0.5013,-0.6987 -0.75196,-1.7894 -0.75195,-3.272 -1e-5,-1.4825 0.25065,-2.5731 0.75195,-3.2717 z m 0.6001,6.0317 c 0.35742,0.5599 0.92008,0.8399 1.68798,0.8399 0.7679,0 1.33057,-0.28 1.68799,-0.8401 0.35742,-0.5601 0.53613,-1.4801 0.53614,-2.76 -1e-5,-1.2799 -0.17872,-2.1999 -0.53614,-2.7598 -0.35742,-0.5599 -0.92009,-0.8398 -1.68799,-0.8398 -0.7679,0 -1.33056,0.2799 -1.68798,0.8398 -0.35743,0.5599 -0.53614,1.4799 -0.53614,2.7598 0,1.2799 0.17871,2.2 0.53614,2.7602 z"
         style="font-size:16px;fill:#f2f2f2;font-family:'M+ 1m light';-inkscape-font-specification:'M+ 1m light'"
         id="path5590" />
      <path
         d="m 120.66253,1038.2906 1.76025,0 0,-3.04 0.78369,0 0,3.04 3.05615,0 0,0.7203 -3.05615,0 0,5.0395 c 0,0.683 0.1014,1.1364 0.3042,1.3604 0.2028,0.2239 0.60807,0.3359 1.21582,0.3359 0.51204,0 0.9707,-0.08 1.37598,-0.2402 l 0,0.7202 c -0.46908,0.1494 -0.94906,0.2241 -1.43994,0.2241 -0.8532,0 -1.43979,-0.1654 -1.75977,-0.4961 -0.31999,-0.3307 -0.47998,-0.9388 -0.47998,-1.8242 l 0,-5.1196 -1.76025,0 z"
         style="font-size:16px;fill:#f2f2f2;font-family:'M+ 1m light';-inkscape-font-specification:'M+ 1m light'"
         id="path5592" />
      <path
         d="m 128.66253,1038.2906 1.76025,0 0,-3.04 0.78369,0 0,3.04 3.05615,0 0,0.7203 -3.05615,0 0,5.0395 c 0,0.683 0.1014,1.1364 0.3042,1.3604 0.2028,0.2239 0.60807,0.3359 1.21582,0.3359 0.51204,0 0.9707,-0.08 1.37598,-0.2402 l 0,0.7202 c -0.46908,0.1494 -0.94906,0.2241 -1.43994,0.2241 -0.8532,0 -1.43979,-0.1654 -1.75977,-0.4961 -0.31999,-0.3307 -0.47998,-0.9388 -0.47998,-1.8242 l 0,-5.1196 -1.76025,0 z"
         style="font-size:16px;fill:#f2f2f2;font-family:'M+ 1m light';-inkscape-font-specification:'M+ 1m light'"
         id="path5594" />
      <path
         d="m 136.85442,1034.6105 2.96045,0 0,9.4399 c -1e-5,0.7575 0.0773,1.2296 0.23193,1.4163 0.15462,0.1867 0.5306,0.28 1.12793,0.28 0.31998,0 0.69336,-0.032 1.12012,-0.096 l 0,0.7202 c -0.42676,0.053 -0.82683,0.08 -1.2002,0.08 -0.84277,0 -1.40015,-0.1493 -1.67212,-0.448 -0.27197,-0.2987 -0.40796,-0.9228 -0.40795,-1.8723 l 0,-8.8159 -2.16016,0 z"
         style="font-size:16px;fill:#f2f2f2;font-family:'M+ 1m light';-inkscape-font-specification:'M+ 1m light'"
         id="path5596" />
      <path
         d="m 147.65471,1037.8107 c 0.93847,0 1.63444,0.3306 2.08789,0.9919 0.45345,0.6613 0.68017,1.728 0.68018,3.2 -10e-6,0.022 -0.003,0.075 -0.008,0.1601 -0.005,0.085 -0.008,0.1439 -0.008,0.1758 l -4.92823,0 c 0.0215,1.1842 0.23226,2.0457 0.63233,2.5842 0.40006,0.5386 1.00536,0.8079 1.81592,0.8079 0.69335,0 1.40266,-0.176 2.12793,-0.5278 l 0,0.8159 c -0.75717,0.2881 -1.47722,0.4321 -2.16016,0.4321 -2.15463,0 -3.23194,-1.4401 -3.23193,-4.3203 -1e-5,-1.4932 0.24536,-2.5864 0.73608,-3.2798 0.49072,-0.6933 1.24275,-1.04 2.2561,-1.04 z m -2.17627,3.8398 4.14405,0 c -0.0104,-1.1624 -0.19166,-1.973 -0.54371,-2.4316 -0.35205,-0.4587 -0.82674,-0.688 -1.42407,-0.688 -0.72526,0 -1.25863,0.24 -1.60009,0.72 -0.34148,0.4799 -0.53354,1.2798 -0.57618,2.3996 z"
         style="font-size:16px;fill:#f2f2f2;font-family:'M+ 1m light';-inkscape-font-specification:'M+ 1m light'"
         id="path5598" />
      <path
         d="m 156.4384,1034.6105 -2.94384,0 0,-0.6397 3.68017,0 0,14.3198 -3.68017,0 0,-0.6401 2.94384,0 z"
         style="font-size:16px;fill:#f2f2f2;font-family:'M+ 1m light';-inkscape-font-specification:'M+ 1m light'"
         id="path5600" />
    </g>
    <g
       id="g5553"
       transform="matrix(0.47515879,0,0,0.47515879,5.672125,1032.8445)">
      <path
         id="path5515"
         d="m 5.479,7.945 c 0,-1.44 0,-7.945 0,-7.945 H 4.409 3.776 2.707 c 0,0 0,6.505 0,7.945 C 2.707,9.385 0,11.133 0,13.185 0,15.237 0,30.08 0,30.604 0,31.127 0.35,32 1.135,32 c 0.534,0 1.85,0 2.642,0 0.374,0 0.633,0 0.633,0 0.792,0 2.107,0 2.642,0 0.785,0 1.135,-0.873 1.135,-1.396 0,-0.524 0,-15.367 0,-17.419 0,-2.052 -2.708,-3.799 -2.708,-5.24 z m -2.174,2.333 c -0.175,0.239 -0.371,0.541 -0.584,0.889 -0.215,0.349 -0.419,0.756 -0.627,1.197 -0.079,0.226 -0.16,0.462 -0.228,0.699 -0.002,0.251 -0.082,0.436 -0.047,0.751 0.021,0.584 0.044,1.198 0.067,1.834 0.042,1.272 0.05,2.63 0.061,3.986 -0.003,2.714 -0.085,5.428 -0.212,7.463 -0.056,1.018 -0.147,1.866 -0.19,2.46 -0.053,0.594 -0.097,0.933 -0.097,0.933 0,0 -0.044,-0.339 -0.097,-0.933 C 1.308,28.963 1.217,28.115 1.161,27.097 1.034,25.062 0.952,22.348 0.949,19.634 0.959,18.278 0.967,16.92 1.01,15.648 1.033,15.012 1.056,14.398 1.077,13.814 1.067,13.543 1.169,13.175 1.227,12.882 1.34,12.606 1.465,12.35 1.584,12.109 1.729,11.887 1.866,11.675 1.998,11.473 2.148,11.289 2.29,11.115 2.423,10.95 2.699,10.632 2.945,10.363 3.159,10.153 3.583,9.729 3.855,9.521 3.855,9.521 c 0,0 -0.212,0.271 -0.55,0.757 z"
         inkscape:connector-curvature="0"
         style="fill:#f2f2f2" />
      <g
         id="g5517"
         style="fill:#f2f2f2">
</g>
      <g
         id="g5519"
         style="fill:#f2f2f2">
</g>
      <g
         id="g5521"
         style="fill:#f2f2f2">
</g>
      <g
         id="g5523"
         style="fill:#f2f2f2">
</g>
      <g
         id="g5525"
         style="fill:#f2f2f2">
</g>
      <g
         id="g5527"
         style="fill:#f2f2f2">
</g>
      <g
         id="g5529"
         style="fill:#f2f2f2">
</g>
      <g
         id="g5531"
         style="fill:#f2f2f2">
</g>
      <g
         id="g5533"
         style="fill:#f2f2f2">
</g>
      <g
         id="g5535"
         style="fill:#f2f2f2">
</g>
      <g
         id="g5537"
         style="fill:#f2f2f2">
</g>
      <g
         id="g5539"
         style="fill:#f2f2f2">
</g>
      <g
         id="g5541"
         style="fill:#f2f2f2">
</g>
      <g
         id="g5543"
         style="fill:#f2f2f2">
</g>
      <g
         id="g5545"
         style="fill:#f2f2f2">
</g>
    </g>
  </g>
</svg>
