<?xml version="1.0" encoding="UTF-8" standalone="no"?>
<!-- Created with Inkscape (http://www.inkscape.org/) -->

<svg
   xmlns:dc="http://purl.org/dc/elements/1.1/"
   xmlns:cc="http://creativecommons.org/ns#"
   xmlns:rdf="http://www.w3.org/1999/02/22-rdf-syntax-ns#"
   xmlns:svg="http://www.w3.org/2000/svg"
   xmlns="http://www.w3.org/2000/svg"
   xmlns:sodipodi="http://sodipodi.sourceforge.net/DTD/sodipodi-0.dtd"
   xmlns:inkscape="http://www.inkscape.org/namespaces/inkscape"
   width="255"
   height="24"
   id="svg2"
   version="1.1"
   inkscape:version="0.48.2 r9819"
   sodipodi:docname="corrugated carton00.svg">
  <defs
     id="defs4" />
  <sodipodi:namedview
     id="base"
     pagecolor="#ffffff"
     bordercolor="#666666"
     borderopacity="1.0"
     inkscape:pageopacity="0.0"
     inkscape:pageshadow="2"
     inkscape:zoom="2.56"
     inkscape:cx="101.10961"
     inkscape:cy="11.586138"
     inkscape:document-units="px"
     inkscape:current-layer="layer1"
     showgrid="false"
     inkscape:window-width="1053"
     inkscape:window-height="435"
     inkscape:window-x="319"
     inkscape:window-y="153"
     inkscape:window-maximized="0" />
  <metadata
     id="metadata7">
    <rdf:RDF>
      <cc:Work
         rdf:about="">
        <dc:format>image/svg+xml</dc:format>
        <dc:type
           rdf:resource="http://purl.org/dc/dcmitype/StillImage" />
        <dc:title></dc:title>
      </cc:Work>
    </rdf:RDF>
  </metadata>
  <g
     inkscape:label="レイヤー 1"
     inkscape:groupmode="layer"
     id="layer1"
     transform="translate(0,-1028.3622)">
    <text
       xml:space="preserve"
       style="font-size:40px;font-style:normal;font-weight:normal;line-height:125%;letter-spacing:0px;word-spacing:0px;fill:#f2f2f2;fill-opacity:1;stroke:none;font-family:Sans"
       x="20.262135"
       y="1046.2906"
       id="text2985"
       sodipodi:linespacing="125%"><tspan
         sodipodi:role="line"
         id="tspan2987"
         x="20.262135"
         y="1046.2906"
         style="font-size:16px;font-family:'M+ 1m light';-inkscape-font-specification:'M+ 1m light';fill:#f2f2f2">ダンボール[Corrugated Carton]</tspan></text>
    <g
       transform="matrix(1.25,0,0,-1.25,-493.73773,1869.7731)"
       inkscape:label="danball"
       id="g4765"
       style="fill:#f2f2f2">
      <path
         id="path4793"
         style="fill:#f2f2f2;fill-opacity:1;fill-rule:nonzero;stroke:none"
         d="m 402.72299,658.39855 c 2.5022,0.15431 4.0348,1.44414 4.59734,3.86935 0.58367,-0.0768 1.17961,-0.14847 1.78607,-0.21427 -0.74974,-3.43954 -2.8772,-5.27023 -6.38341,-5.49062 -1.78593,0.011 -3.30449,0.62787 -4.55602,1.85164 -1.25159,1.22386 -1.88779,2.73474 -1.90993,4.53215 0.0222,1.77464 0.66158,3.2653 1.9182,4.47261 1.25681,1.20722 2.77251,1.81637 4.54775,1.82723 2.99878,-0.1322 5.05482,-1.59301 6.1682,-4.38224 0.16554,0.0226 0.33629,0.0442 0.51308,0.0665 -0.37493,-0.56272 -0.74441,-1.12501 -1.10828,-1.68713 -0.57357,0.36336 -1.14703,0.7331 -1.72001,1.1074 0.1767,0.0226 0.35275,0.0496 0.52915,0.0838 -0.8488,1.89586 -2.30924,2.88278 -4.38214,2.95995 -2.80006,-0.20983 -4.36007,-1.69232 -4.67977,-4.44806 0.28642,-2.82286 1.84634,-4.33883 4.67977,-4.54825 m -2.00096,3.20826 -2.5298,1.40579 1.93425,0.74358 -1.33891,1.02559 2.52994,1.48865 1.40548,-1.19081 1.40561,1.19081 2.53042,-1.48865 -1.33959,-1.02559 1.93513,-0.74358 -2.53096,-1.40579 -2.00061,0.74461 -2.00096,-0.74461 m -0.5291,-0.14875 0.44657,-0.29748 1.93499,0.74371 0,-2.76181 -2.38156,1.33973 0,0.97585 m 2.53006,3.62155 -2.38114,-1.38928 2.38114,-1.33891 2.36454,1.33891 -2.36454,1.38928 m 0.14872,-3.17532 1.91823,-0.74371 0.44665,0.29748 0,-0.97585 -2.36488,-1.33973 0,2.76181 z"
         inkscape:connector-curvature="0" />
    </g>
  </g>
</svg>
