<?xml version="1.0" encoding="UTF-8" standalone="no"?>
<!-- Created with Inkscape (http://www.inkscape.org/) -->

<svg
   xmlns:dc="http://purl.org/dc/elements/1.1/"
   xmlns:cc="http://creativecommons.org/ns#"
   xmlns:rdf="http://www.w3.org/1999/02/22-rdf-syntax-ns#"
   xmlns:svg="http://www.w3.org/2000/svg"
   xmlns="http://www.w3.org/2000/svg"
   xmlns:sodipodi="http://sodipodi.sourceforge.net/DTD/sodipodi-0.dtd"
   xmlns:inkscape="http://www.inkscape.org/namespaces/inkscape"
   width="320"
   height="24"
   id="svg2"
   version="1.1"
   inkscape:version="0.48.2 r9819"
   sodipodi:docname="cans00.svg">
  <defs
     id="defs4" />
  <sodipodi:namedview
     id="base"
     pagecolor="#ffffff"
     bordercolor="#666666"
     borderopacity="1.0"
     inkscape:pageopacity="0.0"
     inkscape:pageshadow="2"
     inkscape:zoom="2.56"
     inkscape:cx="147.94328"
     inkscape:cy="-17.390731"
     inkscape:document-units="px"
     inkscape:current-layer="layer1"
     showgrid="false"
     inkscape:window-width="1053"
     inkscape:window-height="435"
     inkscape:window-x="-4"
     inkscape:window-y="198"
     inkscape:window-maximized="0" />
  <metadata
     id="metadata7">
    <rdf:RDF>
      <cc:Work
         rdf:about="">
        <dc:format>image/svg+xml</dc:format>
        <dc:type
           rdf:resource="http://purl.org/dc/dcmitype/StillImage" />
        <dc:title></dc:title>
      </cc:Work>
    </rdf:RDF>
  </metadata>
  <g
     inkscape:label="レイヤー 1"
     inkscape:groupmode="layer"
     id="layer1"
     transform="translate(0,-1028.3622)">
    <g
       style="font-size:40px;font-style:normal;font-weight:normal;line-height:125%;letter-spacing:0px;word-spacing:0px;fill:#f2f2f2;fill-opacity:1;stroke:none;font-family:Sans"
       id="text2985">
      <path
         d="m 75.815357,1039.756 -6.52832,0 0,5.8081 4.60791,0 0,-4.1279 0.800293,0 0,5.8081 -0.800293,0 0,-0.9922 -10.015625,0 0,0.9922 -0.800293,0 0,-5.8081 0.800293,0 0,4.1279 4.60791,0 0,-5.8081 -6.52832,0 0,-0.7041 6.52832,0 0,-3.9839 -3.295898,0 c -0.661462,1.3014 -1.44027,2.4481 -2.336426,3.4399 l -0.623535,-0.4638 c 1.407875,-1.5573 2.44775,-3.3547 3.119629,-5.3921 l 0.751953,0.208 c -0.170578,0.5332 -0.362472,1.0399 -0.575684,1.52 l 9.167969,0 0,0.688 -5.408203,0 0,3.9839 6.52832,0 z"
         style="font-size:16px;fill:#f2f2f2;font-family:'M+ 1m light';-inkscape-font-specification:'M+ 1m light'"
         id="path5651" />
      <path
         d="m 84.374928,1041.1798 0,-2.0796 1.024414,0 0,2.0796 z"
         style="font-size:16px;fill:#f2f2f2;font-family:'M+ 1m light';-inkscape-font-specification:'M+ 1m light'"
         id="path5653" />
      <path
         d="m 93.607349,1042.9879 c 0.842447,-1.0026 2.026365,-2.4905 3.551758,-4.4639 0.767899,-1.024 1.287918,-1.6721 1.560059,-1.944 0.272129,-0.272 0.562819,-0.408 0.87207,-0.408 0.341139,0 0.671704,0.128 0.991704,0.384 0.31997,0.2561 0.944,0.8854 1.87207,1.888 2.17609,2.3255 4.07485,4.2988 5.69628,5.9199 l -0.56005,0.5762 c -1.80275,-1.8135 -3.70672,-3.7922 -5.71192,-5.9361 -0.81088,-0.8639 -1.34693,-1.4186 -1.60815,-1.664 -0.26124,-0.2455 -0.487883,-0.3682 -0.679934,-0.3682 -0.127936,0 -0.295905,0.12 -0.503906,0.3601 -0.208014,0.2401 -0.562669,0.6855 -1.063965,1.3362 -0.08562,0.1068 -0.149745,0.1921 -0.192383,0.2559 -1.279951,1.6533 -2.485191,3.1679 -3.615722,4.5439 z m 12.423341,-6.1357 c 0.27212,-0.2722 0.40819,-0.6002 0.4082,-0.9842 -1e-5,-0.3839 -0.136,-0.7093 -0.40796,-0.976 -0.27198,-0.2668 -0.59994,-0.4002 -0.98388,-0.4002 -0.38397,0 -0.71193,0.1334 -0.98389,0.4002 -0.27198,0.2667 -0.40797,0.5921 -0.40796,0.976 -10e-6,0.384 0.13598,0.712 0.40796,0.9839 0.27196,0.272 0.59992,0.408 0.98389,0.408 0.38394,0 0.71182,-0.1359 0.98364,-0.4077 z m 1.04834,-0.9844 c -2e-5,0.5654 -0.19997,1.0455 -0.59985,1.4402 -0.39992,0.3947 -0.87721,0.592 -1.43189,0.592 -0.5547,0 -1.03207,-0.1973 -1.43213,-0.592 -0.40007,-0.3947 -0.60011,-0.8748 -0.6001,-1.4402 -1e-5,-0.5544 0.19734,-1.0289 0.59205,-1.4236 0.39468,-0.3947 0.87466,-0.592 1.43994,-0.592 0.56525,0 1.04523,0.1973 1.43994,0.592 0.39468,0.3947 0.59202,0.8692 0.59204,1.4236 z"
         style="font-size:16px;fill:#f2f2f2;font-family:'M+ 1m light';-inkscape-font-specification:'M+ 1m light'"
         id="path5655" />
      <path
         d="m 121.87932,1036.8761 c -0.12827,3.0719 -0.78435,5.3146 -1.96826,6.728 -1.18393,1.4134 -3.17318,2.3387 -5.96777,2.7759 l -0.14405,-0.7041 c 1.34407,-0.224 2.45605,-0.5306 3.33594,-0.9199 0.87988,-0.3893 1.61319,-0.936 2.19995,-1.6399 0.58674,-0.7039 1.0161,-1.5546 1.28809,-2.552 0.27196,-0.9974 0.44001,-2.2375 0.50415,-3.7202 z m -9.92041,0.5918 0.72022,-0.1758 c 0.29882,0.9919 0.68277,2.4051 1.15185,4.2398 l -0.73584,0.1601 c -0.38412,-1.568 -0.76286,-2.9761 -1.13623,-4.2241 z m 3.55225,-0.4961 0.72021,-0.1758 c 0.39453,1.3867 0.77848,2.8747 1.15186,4.4639 l -0.72022,0.1601 c -0.38379,-1.6106 -0.76774,-3.0934 -1.15185,-4.4482 z"
         style="font-size:16px;fill:#f2f2f2;font-family:'M+ 1m light';-inkscape-font-specification:'M+ 1m light'"
         id="path5657" />
      <path
         d="m 129.95891,1033.692 0,4.7359 c 2.86946,0.6826 5.88817,1.6214 9.05615,2.8164 l -0.25586,0.7197 c -3.09343,-1.1628 -6.02686,-2.0747 -8.80029,-2.7359 l 0,7.3599 -0.7998,0 0,-12.896 z"
         style="font-size:16px;fill:#f2f2f2;font-family:'M+ 1m light';-inkscape-font-specification:'M+ 1m light'"
         id="path5659" />
      <path
         d="m 142.27922,1035.9323 6.20801,0 0,-2.5601 0.79981,0 0,2.5601 5.88818,0 0,0.7197 -5.88818,0 0,8.1601 c -1e-5,0.6934 -0.0986,1.1467 -0.2959,1.3599 -0.19728,0.2132 -0.61589,0.3198 -1.25586,0.3198 -0.77865,0 -1.60531,-0.08 -2.47998,-0.2397 l 0.11182,-0.7041 c 0.80012,0.1386 1.55207,0.208 2.25585,0.208 0.38411,0 0.62418,-0.053 0.72022,-0.1599 0.096,-0.1066 0.14403,-0.3946 0.14404,-0.864 l 0,-8.0801 -6.20801,0 z m 10.25586,-2.9761 0.57618,-0.3203 c 0.36261,0.5654 0.83185,1.3655 1.40771,2.4004 l -0.57568,0.3037 c -0.44826,-0.8321 -0.91766,-1.6266 -1.40821,-2.3838 z m 2.04786,-0.2881 0.57617,-0.3198 c 0.57615,0.9277 1.05613,1.7436 1.43994,2.4477 l -0.57568,0.3042 c -0.46942,-0.8535 -0.94956,-1.6642 -1.44043,-2.4321 z m -12.65577,11.6157 c 1.01335,-1.7812 1.93604,-3.5625 2.76807,-5.3437 l 0.71973,0.2719 c -0.74643,1.6426 -1.67969,3.4454 -2.79981,5.4082 z m 10.11182,-5.0718 0.7041,-0.3198 c 0.84276,1.5251 1.77603,3.3757 2.79981,5.5518 l -0.71973,0.3042 c -0.97072,-2.0694 -1.89878,-3.9147 -2.78418,-5.5362 z"
         style="font-size:16px;fill:#f2f2f2;font-family:'M+ 1m light';-inkscape-font-specification:'M+ 1m light'"
         id="path5661" />
      <path
         d="m 161.95891,1033.692 0,4.7359 c 2.86946,0.6826 5.88817,1.6214 9.05615,2.8164 l -0.25586,0.7197 c -3.09343,-1.1628 -6.02686,-2.0747 -8.80029,-2.7359 l 0,7.3599 -0.7998,0 0,-12.896 z"
         style="font-size:16px;fill:#f2f2f2;font-family:'M+ 1m light';-inkscape-font-specification:'M+ 1m light'"
         id="path5663" />
      <path
         d="m 177.2553,1034.2521 0.7998,0 0,3.0879 c 0,2.0586 -0.11735,3.6666 -0.35205,4.8239 -0.2347,1.1574 -0.59204,2.0294 -1.07202,2.616 -0.47998,0.5866 -1.18921,1.0986 -2.12768,1.5361 l -0.4004,-0.6718 c 0.85352,-0.4053 1.49089,-0.872 1.91211,-1.4002 0.42122,-0.5281 0.73324,-1.3202 0.93604,-2.3762 0.20279,-1.056 0.30419,-2.5653 0.3042,-4.5278 z m 4.87988,11.2641 c 1.44009,-0.1494 2.64013,-0.7894 3.6001,-1.9201 0.95995,-1.1307 1.51984,-2.5867 1.67969,-4.368 l 0.75195,0.096 c -0.18133,2.08 -0.88258,3.76 -2.10376,5.04 -1.2212,1.2799 -2.72259,1.9199 -4.50415,1.9199 l -0.22363,0 0,-12.0317 0.7998,0 z"
         style="font-size:16px;fill:#f2f2f2;font-family:'M+ 1m light';-inkscape-font-specification:'M+ 1m light'"
         id="path5665" />
      <path
         d="m 192.02337,1034.2198 0,13.0401 2.94384,0 0,0.6401 -3.68017,0 0,-14.3198 3.68017,0 0,0.6396 z"
         style="font-size:16px;fill:#f2f2f2;font-family:'M+ 1m light';-inkscape-font-specification:'M+ 1m light'"
         id="path5667" />
      <path
         d="m 201.55901,1034.796 c -1.88802,0 -2.83203,1.7547 -2.83203,5.2639 0,3.5093 0.94401,5.264 2.83203,5.264 0.67219,0 1.32828,-0.1919 1.96826,-0.5757 l 0,0.8159 c -0.61882,0.3307 -1.28549,0.4961 -2,0.4961 -0.53353,0 -1.00562,-0.093 -1.41626,-0.28 -0.41065,-0.1867 -0.78662,-0.4987 -1.12793,-0.9361 -0.34131,-0.4373 -0.60262,-1.0587 -0.78393,-1.864 -0.18132,-0.8053 -0.27198,-1.7786 -0.27198,-2.9199 0,-2.0589 0.30135,-3.5737 0.90406,-4.5442 0.6027,-0.9705 1.50138,-1.4558 2.69604,-1.4558 0.66113,0 1.3011,0.1652 1.91992,0.4956 l 0,0.7842 c -0.61882,-0.3627 -1.24821,-0.544 -1.88818,-0.544 z"
         style="font-size:16px;fill:#f2f2f2;font-family:'M+ 1m light';-inkscape-font-specification:'M+ 1m light'"
         id="path5669" />
      <path
         d="m 208.96721,1037.42 c 0.95996,10e-5 1.6346,0.2054 2.02393,0.616 0.38931,0.4107 0.58398,1.1386 0.58398,2.1838 l 0,5.6802 -0.75195,0 -0.0161,-1.456 -0.0317,0 c -0.51205,1.0774 -1.35482,1.6162 -2.52832,1.6162 -0.68262,0 -1.23194,-0.2161 -1.64795,-0.6482 -0.41602,-0.4321 -0.62403,-1.0268 -0.62402,-1.7839 -1e-5,-0.8962 0.30932,-1.6163 0.92797,-2.1602 0.61865,-0.5439 1.62671,-0.8159 3.02417,-0.8159 l 0.86377,0 0,-0.5918 c 0,-0.7149 -0.13599,-1.2162 -0.40796,-1.5042 -0.27197,-0.2879 -0.7439,-0.4318 -1.41577,-0.4319 -0.34147,10e-5 -0.77621,0.059 -1.3042,0.1761 -0.52799,0.1173 -0.97331,0.2613 -1.33593,0.4319 l 0,-0.752 c 0.91731,-0.3734 1.79736,-0.56 2.64013,-0.5601 z m 1.82373,3.8721 -0.86377,0 c -0.95996,0 -1.73332,0.184 -2.32006,0.552 -0.58676,0.368 -0.88013,0.9467 -0.88013,1.7361 0,0.5547 0.14672,0.9893 0.44018,1.304 0.29346,0.3146 0.69605,0.4719 1.20777,0.4719 0.70409,0 1.28279,-0.2774 1.73608,-0.8321 0.45328,-0.5546 0.67993,-1.296 0.67993,-2.2241 z"
         style="font-size:16px;fill:#f2f2f2;font-family:'M+ 1m light';-inkscape-font-specification:'M+ 1m light'"
         id="path5671" />
      <path
         d="m 214.98333,1039.0201 0.0156,0 c 0.21354,-0.5013 0.52832,-0.8933 0.94434,-1.176 0.41601,-0.2827 0.89062,-0.424 1.42383,-0.4241 0.85318,10e-5 1.46117,0.2507 1.82397,0.752 0.36279,0.5013 0.54418,1.3706 0.54419,2.6079 l 0,5.1201 -0.78418,0 0,-4.976 c -1e-5,-1.1198 -0.12802,-1.8637 -0.38403,-2.2317 -0.25603,-0.368 -0.70932,-0.552 -1.35987,-0.552 -0.65055,0 -1.18123,0.3066 -1.59204,0.9199 -0.41081,0.6133 -0.61621,1.4479 -0.61621,2.5039 l 0,4.3359 -0.7998,0 0,-8.3198 0.76806,0 z"
         style="font-size:16px;fill:#f2f2f2;font-family:'M+ 1m light';-inkscape-font-specification:'M+ 1m light'"
         id="path5673" />
      <path
         d="m 228.02337,1034.2198 -5.52002,12.3204 -0.75245,0 5.52002,-12.3204 z"
         style="font-size:16px;fill:#f2f2f2;font-family:'M+ 1m light';-inkscape-font-specification:'M+ 1m light'"
         id="path5675" />
      <path
         d="m 235.2553,1037.6119 c -1e-5,-0.9918 -0.22136,-1.7118 -0.66406,-2.1599 -0.44272,-0.448 -1.14942,-0.6721 -2.12012,-0.6721 -0.48015,0 -0.93343,0.053 -1.35986,0.1602 l 0,5.4082 c 0.47981,0.074 0.9331,0.1118 1.35986,0.1118 0.98144,0 1.69083,-0.2187 2.12817,-0.656 0.43733,-0.4374 0.656,-1.1681 0.65601,-2.1922 z m 0.7998,0 c 0,1.2481 -0.28264,2.1547 -0.8479,2.72 -0.56527,0.5653 -1.4506,0.8479 -2.656,0.8479 -0.38412,0 -0.8641,-0.037 -1.43994,-0.1118 l 0,4.832 -0.81592,0 0,-11.584 c 0.68261,-0.1705 1.42919,-0.2558 2.23974,-0.2558 1.2054,0 2.09342,0.2853 2.66407,0.8559 0.57063,0.5707 0.85595,1.4693 0.85595,2.6958 z"
         style="font-size:16px;fill:#f2f2f2;font-family:'M+ 1m light';-inkscape-font-specification:'M+ 1m light'"
         id="path5677" />
      <path
         d="m 240.96721,1037.42 c 0.93847,10e-5 1.63444,0.3307 2.08789,0.992 0.45345,0.6613 0.68017,1.7279 0.68018,3.1999 -10e-6,0.021 -0.003,0.075 -0.008,0.1602 -0.005,0.085 -0.008,0.1439 -0.008,0.1758 l -4.92823,0 c 0.0215,1.1842 0.23226,2.0456 0.63233,2.5842 0.40006,0.5386 1.00536,0.8079 1.81592,0.8079 0.69335,0 1.40266,-0.176 2.12793,-0.5279 l 0,0.816 c -0.75717,0.288 -1.47722,0.4321 -2.16016,0.4321 -2.15463,0 -3.23194,-1.4401 -3.23193,-4.3203 -1e-5,-1.4932 0.24536,-2.5865 0.73608,-3.2798 0.49072,-0.6934 1.24275,-1.04 2.2561,-1.0401 z m -2.17627,3.8399 4.14405,0 c -0.0104,-1.1624 -0.19166,-1.973 -0.54371,-2.4317 -0.35205,-0.4586 -0.82674,-0.6879 -1.42407,-0.6879 -0.72526,0 -1.25863,0.24 -1.60009,0.7199 -0.34148,0.48 -0.53354,1.2799 -0.57618,2.3997 z"
         style="font-size:16px;fill:#f2f2f2;font-family:'M+ 1m light';-inkscape-font-specification:'M+ 1m light'"
         id="path5679" />
      <path
         d="m 245.97503,1037.9 1.76025,0 0,-3.04 0.78369,0 0,3.04 3.05615,0 0,0.7202 -3.05615,0 0,5.0396 c 0,0.6829 0.1014,1.1364 0.3042,1.3603 0.2028,0.224 0.60807,0.336 1.21582,0.336 0.51204,0 0.9707,-0.08 1.37598,-0.2403 l 0,0.7203 c -0.46908,0.1494 -0.94906,0.2241 -1.43994,0.2241 -0.8532,0 -1.43979,-0.1654 -1.75977,-0.4961 -0.31999,-0.3307 -0.47998,-0.9388 -0.47998,-1.8242 l 0,-5.1197 -1.76025,0 z"
         style="font-size:16px;fill:#f2f2f2;font-family:'M+ 1m light';-inkscape-font-specification:'M+ 1m light'"
         id="path5681" />
      <path
         d="m 266.83928,1036.9401 c 0,-1.4401 -0.80534,-2.1602 -2.41601,-2.1602 -0.42676,0 -0.88021,0.048 -1.36035,0.1441 l 0,4.2558 1.0083,0 c 0.94921,0 1.64786,-0.184 2.09594,-0.552 0.44808,-0.368 0.67212,-0.9306 0.67212,-1.6877 z m 1.16797,5.6318 c -10e-6,2.3255 -1.13607,3.4883 -3.4082,3.4883 -0.78939,0 -1.57341,-0.075 -2.35205,-0.2241 l 0,-11.5523 c 0.74674,-0.1491 1.50944,-0.2236 2.28808,-0.2236 2.06933,0 3.104,0.9333 3.10401,2.7998 -1e-5,1.3867 -0.63461,2.256 -1.90381,2.6079 l 0,0.032 c 0.71451,0.1494 1.2718,0.4908 1.67187,1.0239 0.40006,0.5333 0.60009,1.2159 0.6001,2.0479 z m -0.81592,-0.064 c 0,-0.8854 -0.24536,-1.5414 -0.73608,-1.968 -0.49073,-0.4266 -1.25871,-0.6399 -2.30396,-0.6399 l -1.08837,0 0,5.2959 c 0.57616,0.096 1.13622,0.1441 1.68017,0.1441 0.82129,0 1.43465,-0.2294 1.84009,-0.688 0.40543,-0.4587 0.60815,-1.1734 0.60815,-2.1441 z"
         style="font-size:16px;fill:#f2f2f2;font-family:'M+ 1m light';-inkscape-font-specification:'M+ 1m light'"
         id="path5683" />
      <path
         d="m 270.59905,1038.4684 c 0.5013,-0.6989 1.26399,-1.0483 2.28808,-1.0484 1.02409,10e-5 1.78678,0.3494 2.28809,1.0481 0.5013,0.6988 0.75195,1.7894 0.75195,3.272 0,1.4826 -0.25065,2.5733 -0.75195,3.272 -0.50131,0.6987 -1.264,1.0481 -2.28809,1.0481 -1.02409,0 -1.78678,-0.3494 -2.28808,-1.0481 -0.5013,-0.6987 -0.75196,-1.7894 -0.75195,-3.272 -1e-5,-1.4826 0.25065,-2.5731 0.75195,-3.2717 z m 0.6001,6.0317 c 0.35742,0.5599 0.92008,0.8399 1.68798,0.8399 0.7679,0 1.33057,-0.2801 1.68799,-0.8401 0.35742,-0.5601 0.53613,-1.4801 0.53614,-2.76 -1e-5,-1.28 -0.17872,-2.1999 -0.53614,-2.7598 -0.35742,-0.5599 -0.92009,-0.8398 -1.68799,-0.8398 -0.7679,0 -1.33056,0.2799 -1.68798,0.8398 -0.35743,0.5599 -0.53614,1.4798 -0.53614,2.7598 0,1.2799 0.17871,2.2 0.53614,2.7602 z"
         style="font-size:16px;fill:#f2f2f2;font-family:'M+ 1m light';-inkscape-font-specification:'M+ 1m light'"
         id="path5685" />
      <path
         d="m 277.97503,1037.9 1.76025,0 0,-3.04 0.78369,0 0,3.04 3.05615,0 0,0.7202 -3.05615,0 0,5.0396 c 0,0.6829 0.1014,1.1364 0.3042,1.3603 0.2028,0.224 0.60807,0.336 1.21582,0.336 0.51204,0 0.9707,-0.08 1.37598,-0.2403 l 0,0.7203 c -0.46908,0.1494 -0.94906,0.2241 -1.43994,0.2241 -0.8532,0 -1.43979,-0.1654 -1.75977,-0.4961 -0.31999,-0.3307 -0.47998,-0.9388 -0.47998,-1.8242 l 0,-5.1197 -1.76025,0 z"
         style="font-size:16px;fill:#f2f2f2;font-family:'M+ 1m light';-inkscape-font-specification:'M+ 1m light'"
         id="path5687" />
      <path
         d="m 285.97503,1037.9 1.76025,0 0,-3.04 0.78369,0 0,3.04 3.05615,0 0,0.7202 -3.05615,0 0,5.0396 c 0,0.6829 0.1014,1.1364 0.3042,1.3603 0.2028,0.224 0.60807,0.336 1.21582,0.336 0.51204,0 0.9707,-0.08 1.37598,-0.2403 l 0,0.7203 c -0.46908,0.1494 -0.94906,0.2241 -1.43994,0.2241 -0.8532,0 -1.43979,-0.1654 -1.75977,-0.4961 -0.31999,-0.3307 -0.47998,-0.9388 -0.47998,-1.8242 l 0,-5.1197 -1.76025,0 z"
         style="font-size:16px;fill:#f2f2f2;font-family:'M+ 1m light';-inkscape-font-specification:'M+ 1m light'"
         id="path5689" />
      <path
         d="m 294.16692,1034.2198 2.96045,0 0,9.44 c -10e-6,0.7575 0.0773,1.2296 0.23193,1.4162 0.15462,0.1867 0.5306,0.2801 1.12793,0.2801 0.31998,0 0.69336,-0.032 1.12012,-0.096 l 0,0.7202 c -0.42676,0.053 -0.82683,0.08 -1.2002,0.08 -0.84277,0 -1.40015,-0.1494 -1.67212,-0.448 -0.27197,-0.2987 -0.40796,-0.9228 -0.40795,-1.8723 l 0,-8.8159 -2.16016,0 z"
         style="font-size:16px;fill:#f2f2f2;font-family:'M+ 1m light';-inkscape-font-specification:'M+ 1m light'"
         id="path5691" />
      <path
         d="m 304.96721,1037.42 c 0.93847,10e-5 1.63444,0.3307 2.08789,0.992 0.45345,0.6613 0.68017,1.7279 0.68018,3.1999 -10e-6,0.021 -0.003,0.075 -0.008,0.1602 -0.005,0.085 -0.008,0.1439 -0.008,0.1758 l -4.92823,0 c 0.0215,1.1842 0.23226,2.0456 0.63233,2.5842 0.40006,0.5386 1.00536,0.8079 1.81592,0.8079 0.69335,0 1.40266,-0.176 2.12793,-0.5279 l 0,0.816 c -0.75717,0.288 -1.47722,0.4321 -2.16016,0.4321 -2.15463,0 -3.23194,-1.4401 -3.23193,-4.3203 -1e-5,-1.4932 0.24536,-2.5865 0.73608,-3.2798 0.49072,-0.6934 1.24275,-1.04 2.2561,-1.0401 z m -2.17627,3.8399 4.14405,0 c -0.0104,-1.1624 -0.19166,-1.973 -0.54371,-2.4317 -0.35205,-0.4586 -0.82674,-0.6879 -1.42407,-0.6879 -0.72526,0 -1.25863,0.24 -1.60009,0.7199 -0.34148,0.48 -0.53354,1.2799 -0.57618,2.3997 z"
         style="font-size:16px;fill:#f2f2f2;font-family:'M+ 1m light';-inkscape-font-specification:'M+ 1m light'"
         id="path5693" />
      <path
         d="m 313.7509,1034.2198 -2.94384,0 0,-0.6396 3.68017,0 0,14.3198 -3.68017,0 0,-0.6401 2.94384,0 z"
         style="font-size:16px;fill:#f2f2f2;font-family:'M+ 1m light';-inkscape-font-specification:'M+ 1m light'"
         id="path5695" />
    </g>
    <path
       id="path2249"
       style="fill:#f2f2f2"
       d="m 48.099567,1043.9206 1.432926,-1.3824 0.0194,0.7003 1.234788,-0.012 1.234789,-0.012 0.214266,-0.075 c 0.117849,-0.042 0.2746,-0.1167 0.348341,-0.1682 0.447093,-0.3123 0.553928,-0.8845 0.278132,-1.4892 -0.03892,-0.086 -0.450388,-0.8123 -0.914394,-1.6152 -0.464008,-0.8032 -0.83508,-1.4684 -0.824607,-1.4784 0.05081,-0.048 1.093214,-0.6363 1.101726,-0.6215 0.0053,0.012 0.382229,0.6629 0.837427,1.4525 0.929442,1.6117 1.00808,1.7595 1.131692,2.1294 0.478648,1.4319 -0.09588,2.6022 -1.473618,3.0024 -0.418851,0.1216 -0.462716,0.125 -1.836781,0.1409 l -1.318832,0.015 -0.02586,0.8016 -1.439394,-1.3964 z m -4.770097,0.5315 c -0.899357,-0.1583 -1.553166,-0.5895 -1.856374,-1.2246 -0.130018,-0.2723 -0.172542,-0.4574 -0.188223,-0.8198 -0.01639,-0.3783 0.02366,-0.6411 0.159982,-1.0508 0.115117,-0.346 0.254023,-0.6169 0.799442,-1.5585 0.25046,-0.4324 0.452353,-0.7882 0.448645,-0.7906 l -0.596748,-0.3684 c 0.0806,-0.026 1.909141,-0.545 1.910768,-0.5415 0.02654,0.057 0.478771,1.9112 0.468882,1.9211 l -0.683821,-0.3095 c -0.07768,0.1054 -0.971196,1.6746 -1.030752,1.8093 -0.100791,0.2278 -0.146362,0.4621 -0.132741,0.6821 0.0293,0.4731 0.284406,0.7813 0.788358,0.9531 l 0.200255,0.067 1.829559,0.012 1.829556,0.012 0,1.2647 -1.842487,0 c -1.64639,0 -1.870352,-0.012 -2.104301,-0.048 z m 0.65354,-7.6046 c -0.02345,-0.022 1.559028,-2.7839 1.770144,-3.0897 0.231301,-0.335 0.582913,-0.6972 0.869908,-0.896 0.1755,-0.1216 0.520035,-0.2758 0.741372,-0.3321 0.557597,-0.1416 1.205077,0.012 1.723942,0.389 0.254673,0.1888 0.633358,0.5967 0.827576,0.8913 0.09356,0.142 0.383652,0.6305 0.644636,1.0854 0.260986,0.4554 0.477766,0.8321 0.481736,0.8375 l 0.616821,-0.329 c 0.0094,0.012 -0.467648,1.9076 -0.483519,1.9235 -0.0094,0.012 -1.882733,-0.5228 -1.899846,-0.5402 l 0.638141,-0.4115 c 0,-0.037 -0.982438,-1.7285 -1.101385,-1.8969 -0.305049,-0.4318 -0.755428,-0.6582 -1.153821,-0.5799 -0.316346,0.063 -0.625836,0.2784 -0.83779,0.5846 -0.05536,0.079 -0.46756,0.7808 -0.91601,1.5569 -0.448449,0.7764 -0.826641,1.4151 -0.84043,1.4195 -0.367913,-0.1866 -0.735226,-0.3864 -1.081475,-0.6124 z m 0.345277,12.4131 0,-2.6922 0,0 0.290183,0 0,0 0.876245,0 c 0.317366,0 0.55887,0.071 0.724514,0.2151 0.165635,0.1435 0.248456,0.3526 0.248459,0.6274 -3e-6,0.2906 -0.08282,0.5111 -0.248459,0.6618 -0.165644,0.1511 -0.407148,0.2263 -0.724514,0.2263 -0.225067,0 -0.41979,0 -0.584161,0.012 l 0,0 0,0.9578 0,0 -0.582267,0 0,0 z m 0.582267,-1.4248 0,0 0.485536,0 c 0.163109,0 0.285441,-0.035 0.366998,-0.1044 0.08155,-0.07 0.12233,-0.1745 0.122334,-0.3149 -4e-6,-0.1283 -0.04077,-0.2243 -0.122334,-0.2885 -0.08156,-0.064 -0.203889,-0.096 -0.366998,-0.096 l -0.485536,0 0,0 0,0.8041 z m 2.012323,1.4248 0,0 0,-2.6922 0,0 2.052156,0 0,0 0,0.4781 0,0 -1.469888,0 0,0 0,0.5713 0,0 1.363678,0 0,0.4634 0,0 -1.363678,0 0,0 0,0.7012 0,0 1.534374,0 0,0 0,0.4782 0,0 -2.116642,0 z m 3.195826,0 0,-2.2141 0,0 -0.842104,0 0,0 0,-0.4781 0,0 2.266475,0 0,0 0,0.4781 0,0 -0.842105,0 0,0 0,2.2141 0,0 -0.582266,0 0,0 z m -2.661429,-10.8353 -0.982658,0 0,-0.5853 0.242222,-0.043 c 0.29406,-0.052 0.444216,-0.1131 0.582636,-0.2388 0.132079,-0.1191 0.204171,-0.2353 0.261811,-0.4217 l 0.04532,-0.1464 0.691102,0 0.01319,4.952 -0.853621,0 0,-3.5169 z"
       inkscape:connector-curvature="0" />
    <path
       id="path2187"
       style="fill:#f2f2f2"
       d="m 3.6201787,1046.0202 c -0.6257179,-0.1349 -0.9680209,-0.5159 -0.9670256,-1.0767 8.662e-4,-0.3958 0.059261,-0.5351 0.6652898,-1.5821 0.2569829,-0.444 0.4726763,-0.8213 0.4793147,-0.8387 l -1.0000535,-0.048 c 0.0013,-0.021 3.1211347,-1.8899 3.1416955,-1.8813 0.015677,0.012 0.72699,1.8468 0.72699,1.8807 l -0.9761933,0.025 -0.4619761,0.8002 c -0.3833813,0.6641 -0.4635577,0.8167 -0.471281,0.8971 -0.012668,0.1316 0.023734,0.2685 0.1458647,0.2695 l 9.6803121,4e-4 c 0.107948,-0.025 0.106992,-0.077 0.160491,-0.1662 l 0.980793,0 0.980797,0 0.05273,0.1594 c 0.243039,0.7354 -0.04383,1.3077 -0.768013,1.5321 l -0.154031,0.048 -6.040965,0.012 c -5.1107351,0.012 -6.0615639,0 -6.1747503,-0.025 z m 10.7661513,-2.5003 1.880937,0.012 0.277838,0.4888 -1.861832,0.016 -0.296943,-0.5148 z m -0.140053,-0.2516 -0.170187,-0.3047 1.851421,-0.019 0.186245,0.3341 -1.867479,-0.012 z m 2.145346,-0.2965 c -0.377479,-0.079 -0.527522,-0.1404 -0.890094,-0.3594 -0.499978,-0.302 -0.7575,-0.3955 -1.163011,-0.4227 l -0.20068,-0.014 0,-0.817 0.06689,0 c 0.140893,4e-4 0.444426,0.048 0.608143,0.094 0.201957,0.058 0.33146,0.1216 0.701961,0.3419 0.411327,0.2443 0.637944,0.3262 1.010573,0.3654 0.107544,0.012 0.264931,0 0.265056,0.021 l 0.0025,0.8031 -0.180099,-0.012 c -0.09904,0 -0.198621,-0.012 -0.221262,-0.012 z m -8.351353,-0.023 -0.077178,-0.012 0.015294,-0.8396 0.1699626,0 c 0.3487816,-0.012 0.6668614,-0.17 0.7994158,-0.421 l 0.05476,-0.1037 0.013092,-1.2041 0.4565654,-2e-4 c 0.2511113,0 0.4900721,-0.012 0.5310242,-0.021 0.181719,-0.051 0.289494,-0.1918 0.31709,-0.4164 l 0.01456,-0.1183 -2.3717319,0 0,-0.7615 3.0317099,0 -0.01188,0.4785 c -0.01455,0.5869 -0.04557,0.785 -0.159136,1.017 -0.172345,0.3521 -0.48831,0.5279 -1.0008936,0.5569 l -0.2131983,0.013 0,0.1332 c 0,0.3838 -0.1411871,0.9136 -0.3109463,1.1664 -0.1577982,0.2352 -0.3493166,0.393 -0.5634928,0.4643 -0.1335366,0.043 -0.515682,0.08 -0.6949786,0.067 z m 4.203977,-3.894 0.667673,0 0.01005,2.9529 c 0.11786,-0.031 0.07658,-0.013 0.139981,-0.041 0.215301,-0.1 0.273288,-0.248 0.273288,-0.6395 l 0,-0.2753 0.55573,0 -2.37e-4,0.4168 c -1.78e-4,0.2864 -0.009,0.4498 -0.02838,0.5224 -0.07406,0.2781 -0.291845,0.5464 -0.581585,0.7164 -0.258986,0.152 -0.636792,0.257 -0.928347,0.2581 l -0.108058,5e-4 0,-3.9107 z m -1.49223,3.0576 0.08959,-0.016 c 0.169319,-0.03 0.342618,-0.1648 0.407496,-0.3196 0.02231,-0.053 0.02774,-0.3266 0.02774,-1.3945 l 0,-1.3281 0.660667,0 -0.0068,1.4665 c -0.0066,1.4238 -0.0079,1.4698 -0.0494,1.5839 -0.06787,0.1865 -0.171285,0.3396 -0.33037,0.4887 -0.216064,0.2024 -0.525352,0.3509 -0.731169,0.3509 l -0.07902,0 0.01112,-0.8324 z m 3.395017,-1.149 0.0014,-0.7456 2.655139,0 0,0.7615 -2.656234,-0.016 z m -8.9420027,-0.8536 0.1554583,-0.2831 1.8815839,-0.012 -0.1761747,0.299 -1.8608675,-0.012 z m 8.9328067,-1.055 2.675727,0 0,0.7617 -2.675727,0 0,-0.7617 z m -8.62407,0.5208 0.2778627,-0.4998 1.8627192,0.013 -0.2778667,0.5007 -1.8627152,-0.014 z m 5.549295,-1.6482 -1.5619615,-0.941 1.0965475,-0.019 c 0.02288,-5e-4 -0.6062355,-1.0559 -0.6433024,-1.0963 -0.023187,-0.025 -0.081402,-0.06 -0.1294227,-0.078 -0.082651,-0.032 -0.092207,-0.032 -0.179573,0.012 -0.06111,0.026 -0.112833,0.072 -0.1531146,0.1306 -0.5715658,0.9405 -1.0861432,1.9151 -1.6612464,2.8532 l -1.8768877,0.015 2.192121,-3.7975 c 0.5369825,-0.9304 0.6117823,-1.0461 0.7994663,-1.2289 0.2528061,-0.2466 0.5002598,-0.3561 0.8022815,-0.3555 0.374717,0 0.706941,0.1941 0.988322,0.5746 0.06525,0.088 0.484489,0.7961 0.931643,1.5727 l 0.813011,1.4123 0.885411,0.037 -0.350148,0.9109 -0.377953,0.9462 -1.575194,-0.9417 z"
       inkscape:connector-curvature="0" />
    <path
       id="path2216"
       style="fill:#f2f2f2"
       d="m 27.749336,1046.102 c -1.184604,-0.109 -2.296226,-0.5191 -3.243687,-1.1967 -0.327308,-0.2342 -0.530603,-0.4082 -0.837643,-0.7166 -0.776812,-0.7805 -1.358524,-1.8767 -1.677159,-2.9461 l -0.837168,-0.019 1.42137,-1.905 1.990875,1.905 -0.977539,0.03 c 0,0.077 0.272399,0.6523 0.443716,0.936 0.260155,0.4309 0.752008,0.9903 1.142834,1.2998 1.128222,0.8931 2.563597,1.2637 3.971363,1.0257 0.685798,-0.1159 1.485386,-0.5128 2.02204,-0.8877 l 2.259995,0.031 c -1.216866,1.4744 -2.482604,2.0403 -4.313397,2.416 -0.276742,0.037 -1.090791,0.053 -1.3656,0.028 z m 3.761819,-2.6626 0.519041,-0.5095 1.875175,0.024 -0.310753,0.484 -2.083463,0 z m 0.772329,-0.8151 0.152442,-0.2133 1.769946,0 -0.120889,0.2396 -1.801499,-0.026 z m -5.824646,-1.2606 -0.12308,0.1322 c -0.237691,0.2553 -0.49468,0.4426 -0.818964,0.5972 -0.181083,0.086 -0.528181,0.1982 -0.60092,0.1982 l -0.01036,-0.8284 0.124729,-0.048 c 0.217513,-0.084 0.699465,-0.3371 0.808995,-0.4254 0.222255,-0.1794 0.516845,-0.6728 0.604847,-1.0132 0.04513,-0.1745 0.07322,-0.7365 0.04571,-0.8461 l -1.504445,-0.012 0,-0.7784 2.16059,0 -0.01101,0.5338 c -0.01684,0.816 -0.06725,1.1905 -0.227174,1.6875 l -0.08866,0.2755 0.521923,0.5906 -0.01076,0.891 -0.87141,-0.9547 z m 1.16802,0.03 c 0.126851,0 0.443402,-0.074 0.61243,-0.1614 0.284421,-0.1479 0.385697,-0.3122 0.412702,-0.6692 l 0.01113,-0.1473 -1.204037,0 0.01085,-0.7483 1.233312,-0.011 -0.02594,-0.5184 -1.09844,0 0.01081,-0.8083 2.364858,-0.011 0,0.8185 -0.673536,0 -0.02494,0.519 0.858134,0 0,0.7582 -0.872356,0 -0.01118,0.2544 c -0.02101,0.4785 -0.129157,0.8085 -0.339763,1.0369 -0.101363,0.11 -0.303763,0.2446 -0.519652,0.3459 -0.152997,0.072 -0.559658,0.2158 -0.696747,0.247 l -0.05488,0.013 0.0073,-0.9187 z m 4.709251,0.017 c 0.169244,-0.1063 0.369815,-0.2057 0.452409,-0.3412 0.03849,-0.063 0.03963,-0.1035 0.0397,-1.4071 l 8.4e-5,-1.342 0.598698,0 -5.34e-4,2.8837 -0.05703,0.1638 c -0.07737,0.2223 -0.209359,0.4269 -0.384795,0.5962 -0.193947,0.1872 -0.356961,0.2784 -0.600379,0.3355 l -0.05488,0.013 0.0067,-0.9018 z m 1.382033,0.8862 -0.01175,-3.9776 0.599289,0.012 0.02027,2.8638 c 0.08795,0 0.238116,-0.1224 0.277217,-0.2259 0.01247,-0.033 0.02123,-0.2243 0.02123,-0.464 l 0,-0.4078 0.578741,0 0,0.5054 c 0,0.404 -0.0064,0.527 -0.03184,0.6136 -0.06001,0.2043 -0.148007,0.3381 -0.367295,0.5585 -0.182097,0.1829 -0.235684,0.2238 -0.40911,0.3123 -0.257198,0.1313 -0.637661,0.2496 -0.676742,0.2106 z m -3.364469,-2.6597 2.145335,0.011 0.01085,0.7484 -2.156193,0 0,-0.7587 z m -8.541425,-0.9577 1.561836,0 -0.02496,0.1846 -1.561823,0.035 0.02494,-0.2196 z m 0.05986,-0.3087 0.103127,-0.4696 1.598173,0 -0.137208,0.4889 -1.564092,-0.02 z m 9.274137,-2.2757 0.720644,-0.029 c -0.01172,-0.034 -0.361643,-0.3401 -0.556104,-0.4874 -0.682557,-0.5163 -1.500347,-0.8488 -2.393996,-0.9727 -0.284937,-0.04 -1.012655,-0.033 -1.297179,0.01 -0.983429,0.1517 -1.780256,0.5062 -2.530312,1.1261 -0.563869,0.466 -1.144389,1.2827 -1.442603,1.9588 l -1.617624,0 c 0.359298,-1.2412 1.125192,-2.295 2.078177,-3.1472 1.310798,-1.0907 2.999939,-1.6316 4.690801,-1.502 1.293862,0.099 2.497005,0.5673 3.54842,1.3809 0.441908,0.342 1.170743,1.1515 1.479783,1.6194 l 0.718298,0.045 c 0,0.014 -1.114247,1.8644 -1.135254,1.8862 l -2.263051,-1.8886 z"
       inkscape:connector-curvature="0" />
  </g>
</svg>
