<?xml version="1.0" encoding="UTF-8" standalone="no"?>
<!-- Created with Inkscape (http://www.inkscape.org/) -->

<svg
   xmlns:dc="http://purl.org/dc/elements/1.1/"
   xmlns:cc="http://creativecommons.org/ns#"
   xmlns:rdf="http://www.w3.org/1999/02/22-rdf-syntax-ns#"
   xmlns:svg="http://www.w3.org/2000/svg"
   xmlns="http://www.w3.org/2000/svg"
   xmlns:sodipodi="http://sodipodi.sourceforge.net/DTD/sodipodi-0.dtd"
   xmlns:inkscape="http://www.inkscape.org/namespaces/inkscape"
   width="340"
   height="24"
   id="svg2"
   version="1.1"
   inkscape:version="0.48.2 r9819"
   sodipodi:docname="metals00.svg">
  <defs
     id="defs4" />
  <sodipodi:namedview
     id="base"
     pagecolor="#ffffff"
     bordercolor="#666666"
     borderopacity="1.0"
     inkscape:pageopacity="0.0"
     inkscape:pageshadow="2"
     inkscape:zoom="2.56"
     inkscape:cx="109.09898"
     inkscape:cy="-23.225812"
     inkscape:document-units="px"
     inkscape:current-layer="layer1"
     showgrid="false"
     inkscape:window-width="1053"
     inkscape:window-height="435"
     inkscape:window-x="18"
     inkscape:window-y="150"
     inkscape:window-maximized="0" />
  <metadata
     id="metadata7">
    <rdf:RDF>
      <cc:Work
         rdf:about="">
        <dc:format>image/svg+xml</dc:format>
        <dc:type
           rdf:resource="http://purl.org/dc/dcmitype/StillImage" />
        <dc:title></dc:title>
      </cc:Work>
    </rdf:RDF>
  </metadata>
  <g
     inkscape:label="レイヤー 1"
     inkscape:groupmode="layer"
     id="layer1"
     transform="translate(0,-1028.3622)">
    <g
       style="font-size:40px;font-style:normal;font-weight:normal;line-height:125%;letter-spacing:0px;word-spacing:0px;fill:#f2f2f2;fill-opacity:1;stroke:none;font-family:Sans"
       id="text2985">
      <path
         d="m 23.3344,1033.4425 0.800293,0 0,12.3203 c -8e-6,0.7787 -0.08798,1.2613 -0.263916,1.448 -0.175952,0.1867 -0.642667,0.28 -1.400146,0.28 -0.29851,0 -1.098476,-0.027 -2.399903,-0.08 l -0.01611,-0.7202 c 1.258783,0.053 2.032057,0.08 2.319824,0.08 0.469394,0 0.746737,-0.045 0.832031,-0.136 0.08528,-0.091 0.127922,-0.3866 0.12793,-0.8879 z m -7.21582,11.0723 c 1.226561,-2.2829 2.106605,-4.8322 2.640137,-7.648 l 0.768066,0.1441 c -0.543949,2.8906 -1.434736,5.4931 -2.672363,7.8076 z m 11.280273,-7.4561 0.73584,-0.272 c 1.183906,2.6241 2.149237,5.2694 2.895996,7.9361 l -0.751953,0.208 c -0.746759,-2.624 -1.706719,-5.2481 -2.879883,-7.8721 z"
         style="font-size:16px;fill:#f2f2f2;font-family:'M+ 1m light';-inkscape-font-specification:'M+ 1m light'"
         id="path5442" />
      <path
         d="m 34.72649,1037.0109 c 0.01074,-0.2028 0.01611,-0.5176 0.01611,-0.9444 l 0,-1.3598 -1.903808,0 0,-0.688 7.936035,0 0,0.688 -1.968262,0 0,2.3042 1.968262,0 0,0.6718 -1.968262,0 0,3.7759 -0.768066,0 0,-3.7759 -2.60791,0 c -0.106775,1.0241 -0.346765,1.8802 -0.719971,2.5682 -0.373213,0.6879 -0.901288,1.2772 -1.584229,1.7678 l -0.543945,-0.5601 c 0.629556,-0.4586 1.107013,-0.9787 1.432373,-1.56 0.325355,-0.5814 0.541257,-1.32 0.647705,-2.2159 l -2.144043,0 0,-0.6718 z m 0.751953,0 2.560059,0 0,-2.3042 -2.527832,0 0,1.3598 c -4e-6,0.224 -0.01075,0.5388 -0.03223,0.9444 z m 9.855957,6.7036 -5.359863,0 0,2.6401 6.560058,0 0,0.688 -13.919921,0 0,-0.688 6.560058,0 0,-2.6401 -5.408203,0 0,-0.6558 5.408203,0 0,-1.8882 0.799805,0 0,1.8882 5.359863,0 z m -3.615722,-4.1919 0,-5.4722 0.751953,0 0,5.4722 z m 3.808105,-5.792 0.783691,0 0,6 c -1.4e-5,0.7575 -0.0853,1.2349 -0.255859,1.4321 -0.170587,0.1973 -0.581231,0.2959 -1.231934,0.2959 -0.490572,0 -1.17856,-0.027 -2.063964,-0.08 l 0,-0.6879 c 0.853178,0.053 1.503893,0.08 1.952148,0.08 0.373033,0 0.602281,-0.048 0.687744,-0.144 0.08543,-0.096 0.12816,-0.3893 0.128174,-0.8799 z"
         style="font-size:16px;fill:#f2f2f2;font-family:'M+ 1m light';-inkscape-font-specification:'M+ 1m light'"
         id="path5444" />
      <path
         d="m 61.542408,1034.9625 -11.935547,0 0,2.752 -0.78418,0 0,-3.4239 6.352051,0 0,-1.4721 0.799805,0 0,1.4721 6.352051,0 0,3.2642 -0.78418,0 z m -8.143555,11.5362 c 1.087884,0.053 1.818515,0.08 2.191895,0.08 0.255851,0 0.43977,-0.04 0.551758,-0.1201 0.11197,-0.08 0.200023,-0.2854 0.26416,-0.6159 0.06412,-0.3306 0.09618,-0.8587 0.09619,-1.5843 -9e-6,-0.5543 -0.03744,-1.0556 -0.112304,-1.5039 -1.706713,1.5788 -4.133306,2.9175 -7.279786,4.0161 l -0.271972,-0.6557 c 3.231766,-1.0882 5.695631,-2.4431 7.391601,-4.0645 -0.181323,-0.6719 -0.39991,-1.2477 -0.655761,-1.7275 -1.493497,1.2903 -3.605474,2.389 -6.335938,3.2959 l -0.255859,-0.6402 c 2.677079,-0.8427 4.767734,-1.9041 6.271972,-3.184 -0.341478,-0.5225 -0.746914,-0.9865 -1.216308,-1.3921 -1.248052,0.7682 -2.799971,1.4616 -4.655762,2.08 l -0.256348,-0.624 c 2.464189,-0.7679 4.400222,-1.7011 5.808106,-2.7998 l -4.671875,0 0,-0.6719 10.624023,0 0,0.6719 -3.983886,0 c 0.277334,1.3015 0.751943,2.6027 1.423828,3.9038 1.013334,-0.6611 1.999987,-1.541 2.959961,-2.6396 l 0.543945,0.4477 c -0.970716,1.1306 -2.026705,2.0692 -3.167969,2.8159 1.055978,1.8562 2.357409,3.3762 3.904297,4.5601 l -0.496094,0.6079 c -1.418633,-1.0667 -2.663993,-2.48 -3.736084,-4.24 -1.072112,-1.7599 -1.800057,-3.5785 -2.183838,-5.4558 l -0.335937,0 c -0.394865,0.3627 -0.78435,0.6773 -1.168457,0.9439 0.832023,0.7252 1.482739,1.6399 1.952148,2.7439 0.469392,1.104 0.704092,2.2746 0.704102,3.5119 -10e-6,1.2269 -0.109385,2.0377 -0.328125,2.4324 -0.218759,0.3947 -0.616057,0.592 -1.191895,0.592 -0.469408,0 -1.264004,-0.027 -2.383789,-0.08 z"
         style="font-size:16px;fill:#f2f2f2;font-family:'M+ 1m light';-inkscape-font-specification:'M+ 1m light'"
         id="path5446" />
      <path
         d="m 71.958424,1045.2828 0,0.016 c -9e-6,0.7041 0.03466,1.1175 0.104004,1.2402 0.06933,0.1227 0.306794,0.2 0.712402,0.2319 0.565094,0.043 1.135732,0.064 1.711914,0.064 0.661121,0 1.295723,-0.021 1.903809,-0.064 0.298815,-0.021 0.504218,-0.034 0.61621,-0.04 0.111966,-0.01 0.242581,-0.051 0.391846,-0.1362 0.149237,-0.085 0.24258,-0.1602 0.280029,-0.2241 0.03742,-0.064 0.08543,-0.224 0.144043,-0.48 0.05858,-0.256 0.09325,-0.4933 0.104004,-0.7119 0.01073,-0.2186 0.03205,-0.5893 0.06396,-1.1121 l 0.78418,0.08 c -0.03224,0.5762 -0.0617,1.0109 -0.08838,1.3042 -0.02671,0.2933 -0.08001,0.5813 -0.159912,0.864 -0.07993,0.2827 -0.154556,0.4774 -0.223877,0.584 -0.06935,0.1066 -0.202651,0.2079 -0.399902,0.304 -0.19728,0.096 -0.389256,0.1547 -0.575928,0.176 -0.1867,0.021 -0.4721,0.043 -0.856201,0.064 -0.800143,0.053 -1.48813,0.08 -2.063965,0.08 -0.501313,0 -1.135915,-0.027 -1.903809,-0.08 -0.597339,-0.043 -0.96534,-0.1706 -1.104004,-0.3838 -0.138679,-0.2132 -0.208015,-0.7519 -0.208008,-1.6162 l 0,-0.1597 -4.608398,0 0,1.0557 -0.751953,0 0,-5.9038 11.488281,0 0,4.8481 z m -0.767579,-2.1601 -4.608398,0 0,1.52 4.608398,0 z m 0.767579,0 0,1.52 4.608398,0 0,-1.52 z m -0.767579,-0.5918 0,-1.4561 -4.608398,0 0,1.4561 z m 0.767579,0 4.608398,0 0,-1.4561 -4.608398,0 z m -0.01563,-6.8482 6.319824,0 0,3.44 -0.768067,0 0,-2.7998 -5.551757,0 0,3.6797 -0.736329,0 0,-3.6797 -5.551757,0 0,2.7998 -0.768067,0 0,-3.44 6.319824,0 0,-1.1362 -5.807617,0 0,-0.688 12.351563,0 0,0.688 -5.807617,0 z m -5.312012,2.128 0,-0.6079 3.599609,0 0,0.6079 z m 0,1.6318 0,-0.6079 3.599609,0 0,0.6079 z m 6.288086,-1.6318 0,-0.6079 3.599609,0 0,0.6079 z m 0,1.6318 0,-0.6079 3.599609,0 0,0.6079 z"
         style="font-size:16px;fill:#f2f2f2;font-family:'M+ 1m light';-inkscape-font-specification:'M+ 1m light'"
         id="path5448" />
      <path
         d="m 87.062428,1041.5704 0,-2.0796 1.024414,0 0,2.0796 z"
         style="font-size:16px;fill:#f2f2f2;font-family:'M+ 1m light';-inkscape-font-specification:'M+ 1m light'"
         id="path5450" />
      <path
         d="m 98.982838,1042.3707 0.655761,-0.3842 c 0.661451,0.9921 1.280101,2.0856 1.855961,3.2802 l -0.67188,0.3198 c -0.57618,-1.1627 -1.189456,-2.2346 -1.839842,-3.2158 z m 7.247562,3.168 -0.63965,-0.3843 c 0.74673,-1.1517 1.35464,-2.2236 1.82373,-3.2158 l 0.68799,0.3198 c -0.50132,1.0456 -1.12534,2.139 -1.87207,3.2803 z m -2.15967,-12.0962 c 2.0052,1.5895 4.27717,2.9976 6.81592,4.2241 l -0.28809,0.6402 c -2.59181,-1.2373 -4.93312,-2.6774 -7.02393,-4.3203 -2.09082,1.6429 -4.432128,3.083 -7.023921,4.3203 l -0.288086,-0.6402 c 2.538734,-1.2265 4.810707,-2.6346 6.815917,-4.2241 z m -0.0962,12.9761 6.32031,0 0,0.7041 -13.44043,0 0,-0.7041 6.32031,0 0,-5.1841 -5.680174,0 0,-0.6719 5.680174,0 0,-2.48 -3.888181,0 0,-0.6879 8.576171,0 0,0.6879 -3.88818,0 0,2.48 5.68017,0 0,0.6719 -5.68017,0 z"
         style="font-size:16px;fill:#f2f2f2;font-family:'M+ 1m light';-inkscape-font-specification:'M+ 1m light'"
         id="path5452" />
      <path
         d="m 114.37444,1035.7946 10.62402,0 0,-1.3282 -10.62402,0 z m 1.79199,5.2959 3.76026,0 0,-1.856 -3.76026,0 z m 8.32031,0 0,-1.856 -3.79199,0 0,1.856 z m -10.1123,-1.9039 c 0,3.1895 -0.51726,5.8882 -1.55176,8.0962 l -0.62402,-0.5283 c 0.9388,-2.112 1.4082,-4.7519 1.4082,-7.9199 l 0,-5.0239 12.17578,0 0,2.6079 -11.4082,0 z m 8.19238,4.4639 0.67188,-0.272 c 0.6507,0.9922 1.20002,1.8936 1.64795,2.7041 l -0.67188,0.2881 c -0.14943,-0.2666 -0.39487,-0.688 -0.73633,-1.2641 -2.47462,0.3948 -4.93848,0.6401 -7.3916,0.7358 l -0.0322,-0.6558 c 1.16275,-0.043 2.45344,-0.1333 3.87207,-0.2719 l 0,-1.8399 -4.56006,0 0,4.3521 -0.76807,0 0,-4.9922 5.32813,0 0,-0.752 -3.76026,0 -0.71973,0 0,-3.04 4.47999,0 0,-0.896 c -1.42937,0.075 -2.99203,0.1118 -4.68799,0.1118 l -0.0161,-0.624 c 3.59472,0 6.99739,-0.2026 10.20801,-0.6079 l 0.0801,0.6401 c -1.51466,0.1921 -3.11997,0.3361 -4.81592,0.4322 l 0,0.9438 4.56006,0 0,3.04 -0.76807,0 -3.79199,0 0,0.752 5.47168,0 0,3.6157 c -1e-5,0.5762 -0.072,0.9389 -0.21582,1.0881 -0.14389,0.1493 -0.50392,0.2239 -1.08008,0.2239 -0.27735,0 -0.91733,-0.026 -1.91992,-0.08 l -0.0161,-0.6723 c 0.90689,0.053 1.49901,0.08 1.77637,0.08 0.35187,0 0.55711,-0.029 0.61572,-0.088 0.0586,-0.059 0.0879,-0.2587 0.0879,-0.6001 l 0,-2.9278 -4.71973,0 0,1.7598 c 0.60806,-0.074 1.41861,-0.1812 2.43164,-0.3198 -0.25587,-0.4053 -0.44239,-0.6934 -0.55957,-0.8643 z"
         style="font-size:16px;fill:#f2f2f2;font-family:'M+ 1m light';-inkscape-font-specification:'M+ 1m light'"
         id="path5454" />
      <path
         d="m 136.67864,1039.4586 0,1.8721 5.07178,0 0,-1.8721 z m 0,-0.6401 5.07178,0 0,-1.792 -5.07178,0 z m -5.13623,-1.3916 -3.05567,0 0,-0.6563 3.32813,0 0,-3.248 0.73584,0 0,3.248 2.92773,0 0,0.6563 -2.52783,0 c 0.75748,0.6292 1.61621,1.4665 2.57617,2.5117 l -0.5122,0.5122 c -0.88543,-1.0133 -1.70672,-1.8667 -2.46387,-2.5601 l 0,2.7681 -0.73584,0 0,-2.5762 c -0.75749,1.056 -1.77621,2.0267 -3.05615,2.9122 l -0.41602,-0.5601 c 1.42936,-0.9814 2.49593,-1.984 3.19971,-3.0078 z m 4.22412,-2.8003 0,-0.688 7.20019,0 0,0.688 -3.56787,0 c -0.12826,0.7253 -0.25098,1.312 -0.36816,1.7602 l 3.47217,0 0,8.1119 -5.82422,0 -0.75195,0 0,-8.1119 2.30371,0 c 0.1494,-0.5869 0.27749,-1.1736 0.38427,-1.7602 z m 5.98389,9.2319 0,-1.9038 -5.07178,0 0,1.9038 z m -6.79981,3.104 c 1.2692,-0.5973 2.26122,-1.3066 2.97608,-2.1279 l 0.52783,0.4961 c -0.74676,0.8639 -1.78142,1.6105 -3.10401,2.2397 z m 4.95996,-1.5678 0.43213,-0.5762 c 1.09862,0.6722 2.05321,1.4295 2.86377,2.272 l -0.47998,0.5283 c -0.8213,-0.8213 -1.75994,-1.5627 -2.81592,-2.2241 z m -11.02392,-11.2159 0.57617,-0.3364 c 0.49056,0.6615 0.97054,1.4082 1.43994,2.2402 l -0.59229,0.3042 c -0.42643,-0.7574 -0.90104,-1.4934 -1.42382,-2.208 z m 4.44775,1.8716 c 0.56542,-0.7145 1.02945,-1.4505 1.39209,-2.208 l 0.62402,0.2725 c -0.33073,0.693 -0.81608,1.4503 -1.45605,2.2719 z m -1.51953,5.0562 0.73584,0 0,1.312 2.94385,0 0,0.6719 -2.9917,0 c -1e-5,0.032 -0.0108,0.08 -0.0322,0.1442 -0.0215,0.064 -0.0322,0.1119 -0.0322,0.1438 1.07747,0.7787 2.06429,1.6374 2.96045,2.5762 l -0.5122,0.544 c -0.83204,-0.9174 -1.71209,-1.7281 -2.64014,-2.4322 -0.27735,0.7041 -0.71998,1.3548 -1.32788,1.9522 -0.60791,0.5973 -1.33863,1.088 -2.19214,1.4721 l -0.35205,-0.6562 c 0.94954,-0.4268 1.72029,-0.9681 2.31226,-1.624 0.59195,-0.656 0.9519,-1.3627 1.07983,-2.1201 l -3.27979,0 0,-0.6719 3.32813,0 z"
         style="font-size:16px;fill:#f2f2f2;font-family:'M+ 1m light';-inkscape-font-specification:'M+ 1m light'"
         id="path5456" />
      <path
         d="m 146.71087,1034.6105 0,13.04 2.94384,0 0,0.6401 -3.68017,0 0,-14.3198 3.68017,0 0,0.6397 z"
         style="font-size:16px;fill:#f2f2f2;font-family:'M+ 1m light';-inkscape-font-specification:'M+ 1m light'"
         id="path5458" />
      <path
         d="m 155.65471,1035.1866 c -0.58659,10e-5 -1.06388,0.1761 -1.43188,0.5281 -0.36801,0.3521 -0.55201,0.8107 -0.552,1.3758 -1e-5,0.6188 0.14664,1.1335 0.43994,1.5441 0.29329,0.4107 0.78124,0.7868 1.46386,1.1282 1.08789,0.5121 1.83984,1.0401 2.25586,1.584 0.41601,0.544 0.62402,1.2586 0.62403,2.144 -1e-5,0.96 -0.25595,1.6933 -0.76782,2.2 -0.51189,0.5067 -1.2426,0.76 -2.19214,0.76 -0.92807,0 -1.78142,-0.2881 -2.56006,-0.8643 l 0,-0.9599 c 0.83203,0.7252 1.70133,1.0879 2.60791,1.0879 0.68294,0 1.20304,-0.1893 1.5603,-0.5679 0.35725,-0.3786 0.53588,-0.9305 0.53589,-1.6558 -1e-5,-0.6829 -0.15731,-1.2403 -0.47192,-1.6723 -0.31463,-0.432 -0.872,-0.8399 -1.67212,-1.2237 -0.94923,-0.4482 -1.62655,-0.947 -2.03199,-1.4963 -0.40543,-0.5493 -0.60815,-1.2186 -0.60815,-2.008 0,-0.7787 0.25333,-1.4133 0.76001,-1.9039 0.50667,-0.4905 1.17081,-0.7358 1.99243,-0.7358 0.91731,0 1.75992,0.2132 2.52783,0.6397 l 0,0.9121 c -0.78939,-0.544 -1.61605,-0.8159 -2.47998,-0.816 z"
         style="font-size:16px;fill:#f2f2f2;font-family:'M+ 1m light';-inkscape-font-specification:'M+ 1m light'"
         id="path5460" />
      <path
         d="m 160.02288,1046.2906 0,-8.3198 0.70361,0 0.0161,1.168 0.0478,0 c 0.37338,-0.8854 0.90137,-1.3281 1.58399,-1.3281 0.39485,0 0.70695,0.1093 0.93628,0.3278 0.22932,0.2186 0.40258,0.5788 0.51977,1.0804 l 0.0322,0 c 0.37337,-0.9388 0.94401,-1.4082 1.71191,-1.4082 0.59733,0 1.02132,0.1893 1.27198,0.5678 0.25064,0.3786 0.37597,1.0427 0.37597,1.9922 l 0,5.9199 -0.78418,0 0,-5.7597 c -0.0104,-0.7894 -0.0956,-1.3175 -0.25561,-1.5842 -0.16,-0.2668 -0.43205,-0.4002 -0.81616,-0.4002 -0.40528,0 -0.73324,0.2507 -0.98389,0.752 -0.25066,0.5013 -0.37598,1.2321 -0.37598,2.1923 l 0,4.7998 -0.76806,0 0,-5.6 c -0.0108,-0.8425 -0.0961,-1.4104 -0.25611,-1.7039 -0.15999,-0.2935 -0.4213,-0.4402 -0.78393,-0.4402 -0.41602,0 -0.75204,0.3014 -1.00806,0.9041 -0.25602,0.6027 -0.38403,1.4693 -0.38403,2.5998 l 0,4.2402 z"
         style="font-size:16px;fill:#f2f2f2;font-family:'M+ 1m light';-inkscape-font-specification:'M+ 1m light'"
         id="path5462" />
      <path
         d="m 171.65471,1037.8107 c 0.95996,0 1.6346,0.2053 2.02393,0.6159 0.38931,0.4107 0.58398,1.1386 0.58398,2.1839 l 0,5.6801 -0.75195,0 -0.0161,-1.456 -0.0317,0 c -0.51205,1.0775 -1.35482,1.6162 -2.52832,1.6162 -0.68262,0 -1.23194,-0.2161 -1.64795,-0.6482 -0.41602,-0.4321 -0.62403,-1.0268 -0.62402,-1.7839 -1e-5,-0.8962 0.30932,-1.6162 0.92797,-2.1602 0.61865,-0.5439 1.62671,-0.8159 3.02417,-0.8159 l 0.86377,0 0,-0.5918 c 0,-0.7148 -0.13599,-1.2162 -0.40796,-1.5041 -0.27197,-0.288 -0.7439,-0.4319 -1.41577,-0.4319 -0.34147,0 -0.77621,0.059 -1.3042,0.176 -0.52799,0.1174 -0.97331,0.2613 -1.33593,0.4319 l 0,-0.752 c 0.91731,-0.3733 1.79736,-0.56 2.64013,-0.56 z m 1.82373,3.872 -0.86377,0 c -0.95996,0 -1.73332,0.184 -2.32006,0.552 -0.58676,0.368 -0.88013,0.9467 -0.88013,1.7361 0,0.5547 0.14672,0.9894 0.44018,1.304 0.29346,0.3146 0.69605,0.4719 1.20777,0.4719 0.70409,0 1.28279,-0.2773 1.73608,-0.832 0.45328,-0.5547 0.67993,-1.2961 0.67993,-2.2241 z"
         style="font-size:16px;fill:#f2f2f2;font-family:'M+ 1m light';-inkscape-font-specification:'M+ 1m light'"
         id="path5464" />
      <path
         d="m 176.85442,1034.6105 2.96045,0 0,9.4399 c -1e-5,0.7575 0.0773,1.2296 0.23193,1.4163 0.15462,0.1867 0.5306,0.28 1.12793,0.28 0.31998,0 0.69336,-0.032 1.12012,-0.096 l 0,0.7202 c -0.42676,0.053 -0.82683,0.08 -1.2002,0.08 -0.84277,0 -1.40015,-0.1493 -1.67212,-0.448 -0.27197,-0.2987 -0.40796,-0.9228 -0.40795,-1.8723 l 0,-8.8159 -2.16016,0 z"
         style="font-size:16px;fill:#f2f2f2;font-family:'M+ 1m light';-inkscape-font-specification:'M+ 1m light'"
         id="path5466" />
      <path
         d="m 184.85442,1034.6105 2.96045,0 0,9.4399 c -1e-5,0.7575 0.0773,1.2296 0.23193,1.4163 0.15462,0.1867 0.5306,0.28 1.12793,0.28 0.31998,0 0.69336,-0.032 1.12012,-0.096 l 0,0.7202 c -0.42676,0.053 -0.82683,0.08 -1.2002,0.08 -0.84277,0 -1.40015,-0.1493 -1.67212,-0.448 -0.27197,-0.2987 -0.40796,-0.9228 -0.40795,-1.8723 l 0,-8.8159 -2.16016,0 z"
         style="font-size:16px;fill:#f2f2f2;font-family:'M+ 1m light';-inkscape-font-specification:'M+ 1m light'"
         id="path5468" />
      <path
         d="m 203.65471,1037.8107 c 0.95996,0 1.6346,0.2053 2.02393,0.6159 0.38931,0.4107 0.58398,1.1386 0.58398,2.1839 l 0,5.6801 -0.75195,0 -0.0161,-1.456 -0.0317,0 c -0.51205,1.0775 -1.35482,1.6162 -2.52832,1.6162 -0.68262,0 -1.23194,-0.2161 -1.64795,-0.6482 -0.41602,-0.4321 -0.62403,-1.0268 -0.62402,-1.7839 -1e-5,-0.8962 0.30932,-1.6162 0.92797,-2.1602 0.61865,-0.5439 1.62671,-0.8159 3.02417,-0.8159 l 0.86377,0 0,-0.5918 c 0,-0.7148 -0.13599,-1.2162 -0.40796,-1.5041 -0.27197,-0.288 -0.7439,-0.4319 -1.41577,-0.4319 -0.34147,0 -0.77621,0.059 -1.3042,0.176 -0.52799,0.1174 -0.97331,0.2613 -1.33593,0.4319 l 0,-0.752 c 0.91731,-0.3733 1.79736,-0.56 2.64013,-0.56 z m 1.82373,3.872 -0.86377,0 c -0.95996,0 -1.73332,0.184 -2.32006,0.552 -0.58676,0.368 -0.88013,0.9467 -0.88013,1.7361 0,0.5547 0.14672,0.9894 0.44018,1.304 0.29346,0.3146 0.69605,0.4719 1.20777,0.4719 0.70409,0 1.28279,-0.2773 1.73608,-0.832 0.45328,-0.5547 0.67993,-1.2961 0.67993,-2.2241 z"
         style="font-size:16px;fill:#f2f2f2;font-family:'M+ 1m light';-inkscape-font-specification:'M+ 1m light'"
         id="path5470" />
      <path
         d="m 211.70256,1038.5787 c -0.63997,0 -1.15462,0.2907 -1.54394,0.8721 -0.38933,0.5814 -0.58399,1.3947 -0.58399,2.4399 l 0,0.48 c 0,1.056 0.19198,1.872 0.57593,2.448 0.38395,0.576 0.90128,0.864 1.552,0.864 0.6722,0 1.1923,-0.2959 1.56031,-0.8879 0.36799,-0.592 0.55199,-1.4801 0.552,-2.6643 -1e-5,-2.3678 -0.70411,-3.5518 -2.11231,-3.5518 z m 2.91211,3.5518 c 0,1.5254 -0.25871,2.6268 -0.77612,3.3042 -0.51742,0.6774 -1.17603,1.0161 -1.97583,1.0161 -1.05599,0 -1.80794,-0.5387 -2.25586,-1.6162 l -0.0322,0 0,4.9761 -0.7998,0 0,-11.8399 0.75195,0 0.0156,1.4561 0.0322,0 c 0.52279,-1.0775 1.28548,-1.6162 2.28809,-1.6162 1.83463,0 2.75195,1.4399 2.75195,4.3198 z"
         style="font-size:16px;fill:#f2f2f2;font-family:'M+ 1m light';-inkscape-font-specification:'M+ 1m light'"
         id="path5472" />
      <path
         d="m 219.70256,1038.5787 c -0.63997,0 -1.15462,0.2907 -1.54394,0.8721 -0.38933,0.5814 -0.58399,1.3947 -0.58399,2.4399 l 0,0.48 c 0,1.056 0.19198,1.872 0.57593,2.448 0.38395,0.576 0.90128,0.864 1.552,0.864 0.6722,0 1.1923,-0.2959 1.56031,-0.8879 0.36799,-0.592 0.55199,-1.4801 0.552,-2.6643 -1e-5,-2.3678 -0.70411,-3.5518 -2.11231,-3.5518 z m 2.91211,3.5518 c 0,1.5254 -0.25871,2.6268 -0.77612,3.3042 -0.51742,0.6774 -1.17603,1.0161 -1.97583,1.0161 -1.05599,0 -1.80794,-0.5387 -2.25586,-1.6162 l -0.0322,0 0,4.9761 -0.7998,0 0,-11.8399 0.75195,0 0.0156,1.4561 0.0322,0 c 0.52279,-1.0775 1.28548,-1.6162 2.28809,-1.6162 1.83463,0 2.75195,1.4399 2.75195,4.3198 z"
         style="font-size:16px;fill:#f2f2f2;font-family:'M+ 1m light';-inkscape-font-specification:'M+ 1m light'"
         id="path5474" />
      <path
         d="m 224.85442,1034.6105 2.96045,0 0,9.4399 c -1e-5,0.7575 0.0773,1.2296 0.23193,1.4163 0.15462,0.1867 0.5306,0.28 1.12793,0.28 0.31998,0 0.69336,-0.032 1.12012,-0.096 l 0,0.7202 c -0.42676,0.053 -0.82683,0.08 -1.2002,0.08 -0.84277,0 -1.40015,-0.1493 -1.67212,-0.448 -0.27197,-0.2987 -0.40796,-0.9228 -0.40795,-1.8723 l 0,-8.8159 -2.16016,0 z"
         style="font-size:16px;fill:#f2f2f2;font-family:'M+ 1m light';-inkscape-font-specification:'M+ 1m light'"
         id="path5476" />
      <path
         d="m 233.73479,1037.9708 2.71973,0 0,7.6157 1.84033,0 0,0.7041 -4.96045,0 0,-0.7041 2.32031,0 0,-6.9121 -1.91992,0 z m 1.74365,-2 0,-1.8403 0.97608,0 0,1.8403 z"
         style="font-size:16px;fill:#f2f2f2;font-family:'M+ 1m light';-inkscape-font-specification:'M+ 1m light'"
         id="path5478" />
      <path
         d="m 243.65471,1037.8107 c 0.95996,0 1.6346,0.2053 2.02393,0.6159 0.38931,0.4107 0.58398,1.1386 0.58398,2.1839 l 0,5.6801 -0.75195,0 -0.0161,-1.456 -0.0317,0 c -0.51205,1.0775 -1.35482,1.6162 -2.52832,1.6162 -0.68262,0 -1.23194,-0.2161 -1.64795,-0.6482 -0.41602,-0.4321 -0.62403,-1.0268 -0.62402,-1.7839 -1e-5,-0.8962 0.30932,-1.6162 0.92797,-2.1602 0.61865,-0.5439 1.62671,-0.8159 3.02417,-0.8159 l 0.86377,0 0,-0.5918 c 0,-0.7148 -0.13599,-1.2162 -0.40796,-1.5041 -0.27197,-0.288 -0.7439,-0.4319 -1.41577,-0.4319 -0.34147,0 -0.77621,0.059 -1.3042,0.176 -0.52799,0.1174 -0.97331,0.2613 -1.33593,0.4319 l 0,-0.752 c 0.91731,-0.3733 1.79736,-0.56 2.64013,-0.56 z m 1.82373,3.872 -0.86377,0 c -0.95996,0 -1.73332,0.184 -2.32006,0.552 -0.58676,0.368 -0.88013,0.9467 -0.88013,1.7361 0,0.5547 0.14672,0.9894 0.44018,1.304 0.29346,0.3146 0.69605,0.4719 1.20777,0.4719 0.70409,0 1.28279,-0.2773 1.73608,-0.832 0.45328,-0.5547 0.67993,-1.2961 0.67993,-2.2241 z"
         style="font-size:16px;fill:#f2f2f2;font-family:'M+ 1m light';-inkscape-font-specification:'M+ 1m light'"
         id="path5480" />
      <path
         d="m 249.67083,1039.4108 0.0156,0 c 0.21354,-0.5013 0.52832,-0.8933 0.94434,-1.1761 0.41601,-0.2827 0.89062,-0.424 1.42383,-0.424 0.85318,0 1.46117,0.2506 1.82397,0.7519 0.36279,0.5013 0.54418,1.3706 0.54419,2.6079 l 0,5.1201 -0.78418,0 0,-4.976 c -1e-5,-1.1198 -0.12802,-1.8637 -0.38403,-2.2317 -0.25603,-0.368 -0.70932,-0.552 -1.35987,-0.552 -0.65055,0 -1.18123,0.3066 -1.59204,0.9199 -0.41081,0.6133 -0.61621,1.4479 -0.61621,2.5039 l 0,4.3359 -0.7998,0 0,-8.3198 0.76806,0 z"
         style="font-size:16px;fill:#f2f2f2;font-family:'M+ 1m light';-inkscape-font-specification:'M+ 1m light'"
         id="path5482" />
      <path
         d="m 260.19866,1038.5465 c -0.76791,0 -1.36255,0.2987 -1.78394,0.896 -0.42139,0.5973 -0.63208,1.4933 -0.63208,2.688 0,2.4001 0.8374,3.6001 2.51221,3.6001 0.62923,0 1.23176,-0.16 1.80762,-0.48 l 0,0.8159 c -0.60776,0.2562 -1.22104,0.3843 -1.83985,0.3843 -1.06673,0 -1.88005,-0.36 -2.43994,-1.0801 -0.5599,-0.72 -0.83984,-1.8001 -0.83984,-3.2402 0,-1.5254 0.288,-2.6267 0.86401,-3.304 0.57601,-0.6772 1.34399,-1.0158 2.30396,-1.0158 0.61848,0 1.23176,0.1279 1.83984,0.3838 l 0,0.8164 c -0.58659,-0.3096 -1.18392,-0.4644 -1.79199,-0.4644 z"
         style="font-size:16px;fill:#f2f2f2;font-family:'M+ 1m light';-inkscape-font-specification:'M+ 1m light'"
         id="path5484" />
      <path
         d="m 267.65471,1037.8107 c 0.93847,0 1.63444,0.3306 2.08789,0.9919 0.45345,0.6613 0.68017,1.728 0.68018,3.2 -10e-6,0.022 -0.003,0.075 -0.008,0.1601 -0.005,0.085 -0.008,0.1439 -0.008,0.1758 l -4.92823,0 c 0.0215,1.1842 0.23226,2.0457 0.63233,2.5842 0.40006,0.5386 1.00536,0.8079 1.81592,0.8079 0.69335,0 1.40266,-0.176 2.12793,-0.5278 l 0,0.8159 c -0.75717,0.2881 -1.47722,0.4321 -2.16016,0.4321 -2.15463,0 -3.23194,-1.4401 -3.23193,-4.3203 -1e-5,-1.4932 0.24536,-2.5864 0.73608,-3.2798 0.49072,-0.6933 1.24275,-1.04 2.2561,-1.04 z m -2.17627,3.8398 4.14405,0 c -0.0104,-1.1624 -0.19166,-1.973 -0.54371,-2.4316 -0.35205,-0.4587 -0.82674,-0.688 -1.42407,-0.688 -0.72526,0 -1.25863,0.24 -1.60009,0.72 -0.34148,0.4799 -0.53354,1.2798 -0.57618,2.3996 z"
         style="font-size:16px;fill:#f2f2f2;font-family:'M+ 1m light';-inkscape-font-specification:'M+ 1m light'"
         id="path5486" />
      <path
         d="m 278.71087,1034.6105 -5.52002,12.3203 -0.75245,0 5.52002,-12.3203 z"
         style="font-size:16px;fill:#f2f2f2;font-family:'M+ 1m light';-inkscape-font-specification:'M+ 1m light'"
         id="path5488" />
      <path
         d="m 280.37444,1046.2906 0,-11.6801 1.02441,0 2.17578,7.6801 0.0322,0 2.17578,-7.6801 0.99219,0 0,11.6801 -0.81641,0 0,-9.9521 -0.0317,0 -1.91993,6.752 -0.89599,0 -1.91992,-6.752 -0.0322,0 0,9.9521 z"
         style="font-size:16px;fill:#f2f2f2;font-family:'M+ 1m light';-inkscape-font-specification:'M+ 1m light'"
         id="path5490" />
      <path
         d="m 291.65471,1037.8107 c 0.93847,0 1.63444,0.3306 2.08789,0.9919 0.45345,0.6613 0.68017,1.728 0.68018,3.2 -10e-6,0.022 -0.003,0.075 -0.008,0.1601 -0.005,0.085 -0.008,0.1439 -0.008,0.1758 l -4.92823,0 c 0.0215,1.1842 0.23226,2.0457 0.63233,2.5842 0.40006,0.5386 1.00536,0.8079 1.81592,0.8079 0.69335,0 1.40266,-0.176 2.12793,-0.5278 l 0,0.8159 c -0.75717,0.2881 -1.47722,0.4321 -2.16016,0.4321 -2.15463,0 -3.23194,-1.4401 -3.23193,-4.3203 -1e-5,-1.4932 0.24536,-2.5864 0.73608,-3.2798 0.49072,-0.6933 1.24275,-1.04 2.2561,-1.04 z m -2.17627,3.8398 4.14405,0 c -0.0104,-1.1624 -0.19166,-1.973 -0.54371,-2.4316 -0.35205,-0.4587 -0.82674,-0.688 -1.42407,-0.688 -0.72526,0 -1.25863,0.24 -1.60009,0.72 -0.34148,0.4799 -0.53354,1.2798 -0.57618,2.3996 z"
         style="font-size:16px;fill:#f2f2f2;font-family:'M+ 1m light';-inkscape-font-specification:'M+ 1m light'"
         id="path5492" />
      <path
         d="m 296.66253,1038.2906 1.76025,0 0,-3.04 0.78369,0 0,3.04 3.05615,0 0,0.7203 -3.05615,0 0,5.0395 c 0,0.683 0.1014,1.1364 0.3042,1.3604 0.2028,0.2239 0.60807,0.3359 1.21582,0.3359 0.51204,0 0.9707,-0.08 1.37598,-0.2402 l 0,0.7202 c -0.46908,0.1494 -0.94906,0.2241 -1.43994,0.2241 -0.8532,0 -1.43979,-0.1654 -1.75977,-0.4961 -0.31999,-0.3307 -0.47998,-0.9388 -0.47998,-1.8242 l 0,-5.1196 -1.76025,0 z"
         style="font-size:16px;fill:#f2f2f2;font-family:'M+ 1m light';-inkscape-font-specification:'M+ 1m light'"
         id="path5494" />
      <path
         d="m 307.65471,1037.8107 c 0.95996,0 1.6346,0.2053 2.02393,0.6159 0.38931,0.4107 0.58398,1.1386 0.58398,2.1839 l 0,5.6801 -0.75195,0 -0.0161,-1.456 -0.0317,0 c -0.51205,1.0775 -1.35482,1.6162 -2.52832,1.6162 -0.68262,0 -1.23194,-0.2161 -1.64795,-0.6482 -0.41602,-0.4321 -0.62403,-1.0268 -0.62402,-1.7839 -1e-5,-0.8962 0.30932,-1.6162 0.92797,-2.1602 0.61865,-0.5439 1.62671,-0.8159 3.02417,-0.8159 l 0.86377,0 0,-0.5918 c 0,-0.7148 -0.13599,-1.2162 -0.40796,-1.5041 -0.27197,-0.288 -0.7439,-0.4319 -1.41577,-0.4319 -0.34147,0 -0.77621,0.059 -1.3042,0.176 -0.52799,0.1174 -0.97331,0.2613 -1.33593,0.4319 l 0,-0.752 c 0.91731,-0.3733 1.79736,-0.56 2.64013,-0.56 z m 1.82373,3.872 -0.86377,0 c -0.95996,0 -1.73332,0.184 -2.32006,0.552 -0.58676,0.368 -0.88013,0.9467 -0.88013,1.7361 0,0.5547 0.14672,0.9894 0.44018,1.304 0.29346,0.3146 0.69605,0.4719 1.20777,0.4719 0.70409,0 1.28279,-0.2773 1.73608,-0.832 0.45328,-0.5547 0.67993,-1.2961 0.67993,-2.2241 z"
         style="font-size:16px;fill:#f2f2f2;font-family:'M+ 1m light';-inkscape-font-specification:'M+ 1m light'"
         id="path5496" />
      <path
         d="m 312.85442,1034.6105 2.96045,0 0,9.4399 c -10e-6,0.7575 0.0773,1.2296 0.23193,1.4163 0.15462,0.1867 0.5306,0.28 1.12793,0.28 0.31998,0 0.69336,-0.032 1.12012,-0.096 l 0,0.7202 c -0.42676,0.053 -0.82683,0.08 -1.2002,0.08 -0.84277,0 -1.40015,-0.1493 -1.67212,-0.448 -0.27197,-0.2987 -0.40796,-0.9228 -0.40795,-1.8723 l 0,-8.8159 -2.16016,0 z"
         style="font-size:16px;fill:#f2f2f2;font-family:'M+ 1m light';-inkscape-font-specification:'M+ 1m light'"
         id="path5498" />
      <path
         d="m 323.60686,1038.5148 c -1.19466,0 -1.79199,0.4586 -1.79199,1.3759 0,0.4161 0.12793,0.7627 0.38379,1.0401 0.25585,0.2773 0.73583,0.5172 1.43994,0.7197 1.0026,0.2988 1.69596,0.6375 2.08008,1.0161 0.38411,0.3786 0.57616,0.904 0.57617,1.5762 -10e-6,0.6934 -0.23739,1.2347 -0.71216,1.624 -0.47478,0.3893 -1.14413,0.584 -2.00806,0.584 -0.86393,0 -1.69059,-0.208 -2.47998,-0.624 l 0,-0.8159 c 0.78939,0.4905 1.58936,0.7358 2.39991,0.7358 1.33332,0 1.99999,-0.5013 2,-1.5039 -10e-6,-0.4694 -0.14397,-0.8428 -0.43189,-1.1201 -0.28793,-0.2774 -0.80526,-0.528 -1.552,-0.752 -0.90658,-0.2666 -1.54924,-0.5919 -1.92798,-0.976 -0.37874,-0.3842 -0.56812,-0.8855 -0.56811,-1.504 -1e-5,-0.6614 0.22135,-1.1734 0.66406,-1.5361 0.4427,-0.3626 1.0747,-0.5439 1.89599,-0.5439 0.83203,0 1.632,0.1759 2.39991,0.5278 l 0,0.7842 c -0.79981,-0.4053 -1.58904,-0.6079 -2.36768,-0.6079 z"
         style="font-size:16px;fill:#f2f2f2;font-family:'M+ 1m light';-inkscape-font-specification:'M+ 1m light'"
         id="path5500" />
      <path
         d="m 332.4384,1034.6105 -2.94384,0 0,-0.6397 3.68017,0 0,14.3198 -3.68017,0 0,-0.6401 2.94384,0 z"
         style="font-size:16px;fill:#f2f2f2;font-family:'M+ 1m light';-inkscape-font-specification:'M+ 1m light'"
         id="path5502" />
    </g>
    <g
       id="g5426"
       transform="matrix(0.03433281,0,0,0.03433281,-1.1110342,1031.5244)"
       style="fill:#f2f2f2">
	<path
   id="path5428"
   d="M 394.18,178.741 C 394.18,106.352 332.193,47.462 256,47.462 c -76.193,0 -138.18,58.891 -138.18,131.279 0,50.467 19.548,79.123 38.464,106.849 15.547,22.779 31.605,46.33 33,77.959 h 133.519 c 1.402,-31.604 17.429,-55.146 32.961,-77.939 18.885,-27.713 38.416,-56.369 38.416,-106.869 z"
   inkscape:connector-curvature="0"
   style="fill:#f2f2f2" />

	<path
   id="path5430"
   d="m 190.72,415.899 c 0,9.425 7.641,17.065 17.066,17.065 h 10.431 c 3.223,17.95 18.906,31.573 37.783,31.573 18.877,0 34.56,-13.623 37.783,-31.573 h 10.431 c 9.425,0 17.066,-7.641 17.066,-17.065 V 387.105 H 190.72 v 28.794 z"
   inkscape:connector-curvature="0"
   style="fill:#f2f2f2" />

</g>
  </g>
</svg>
