<?xml version="1.0" encoding="UTF-8" standalone="no"?>
<!-- Created with Inkscape (http://www.inkscape.org/) -->

<svg
   xmlns:dc="http://purl.org/dc/elements/1.1/"
   xmlns:cc="http://creativecommons.org/ns#"
   xmlns:rdf="http://www.w3.org/1999/02/22-rdf-syntax-ns#"
   xmlns:svg="http://www.w3.org/2000/svg"
   xmlns="http://www.w3.org/2000/svg"
   xmlns:sodipodi="http://sodipodi.sourceforge.net/DTD/sodipodi-0.dtd"
   xmlns:inkscape="http://www.inkscape.org/namespaces/inkscape"
   width="220"
   height="24"
   id="svg2"
   version="1.1"
   inkscape:version="0.48.2 r9819"
   sodipodi:docname="moyaseru02.svg">
  <defs
     id="defs4" />
  <sodipodi:namedview
     id="base"
     pagecolor="#ffffff"
     bordercolor="#666666"
     borderopacity="1.0"
     inkscape:pageopacity="0.0"
     inkscape:pageshadow="2"
     inkscape:zoom="2.8"
     inkscape:cx="47.386147"
     inkscape:cy="2.2330474"
     inkscape:document-units="px"
     inkscape:current-layer="g3088"
     showgrid="false"
     inkscape:window-width="1053"
     inkscape:window-height="435"
     inkscape:window-x="71"
     inkscape:window-y="76"
     inkscape:window-maximized="0" />
  <metadata
     id="metadata7">
    <rdf:RDF>
      <cc:Work
         rdf:about="">
        <dc:format>image/svg+xml</dc:format>
        <dc:type
           rdf:resource="http://purl.org/dc/dcmitype/StillImage" />
        <dc:title />
      </cc:Work>
    </rdf:RDF>
  </metadata>
  <g
     inkscape:label="レイヤー 1"
     inkscape:groupmode="layer"
     id="layer1"
     transform="translate(0,-1028.3622)">
    <text
       xml:space="preserve"
       style="font-size:40px;font-style:normal;font-weight:normal;line-height:125%;letter-spacing:0px;word-spacing:0px;fill:#f2f2f2;fill-opacity:1;stroke:none;font-family:Sans"
       x="17.499998"
       y="1046.2906"
       id="text2985"
       sodipodi:linespacing="125%"><tspan
         sodipodi:role="line"
         id="tspan2987"
         x="17.499998"
         y="1046.2906"
         style="font-size:16px;font-family:'M+ 1m light';-inkscape-font-specification:'M+ 1m light';fill:#f2f2f2">燃やせるごみ[Conbustible]</tspan></text>
    <g
       id="g3088"
       transform="matrix(1,0,0,0.70373101,-6.2484604,307.64099)"
       style="fill:#f2f2f2;stroke:#e1e1e1;stroke-opacity:1">
      <path
         id="path3891"
         d="m 10.748565,1051.3976 c -0.9284669,-2.7453 -0.434017,-4.3184 0.279578,-5.8005 0.781454,-1.623 0.982859,-3.2298 0.982859,-3.2298 0,0 0.614308,1.1348 0.36858,2.9098 1.085276,-1.7167 1.290081,-4.452 1.126225,-5.4994 2.453122,2.436 3.50153,7.7108 2.088626,11.6199 7.514893,-6.0419 1.86926,-15.0824 0.886401,-16.1009 0.327629,1.0185 0.389749,2.7424 -0.272094,3.579 -1.120376,-6.0371 -3.890571,-7.2743 -3.890571,-7.2743 0.327629,3.1133 -1.187637,6.5177 -2.6487859,9.0616 -0.05134,-1.2415 -0.105871,-2.0981 -0.565276,-3.2862 -0.103123,2.2553 -1.316012,4.0936 -1.644457,6.3533 -0.4449016,3.0599 0.333262,5.3004 3.2889149,7.6675 z"
         inkscape:connector-curvature="0"
         style="stroke-width:1.19205594" />
    </g>
  </g>
</svg>
