<?xml version="1.0" encoding="UTF-8" standalone="no"?>
<!-- Created with Inkscape (http://www.inkscape.org/) -->

<svg
   xmlns:dc="http://purl.org/dc/elements/1.1/"
   xmlns:cc="http://creativecommons.org/ns#"
   xmlns:rdf="http://www.w3.org/1999/02/22-rdf-syntax-ns#"
   xmlns:svg="http://www.w3.org/2000/svg"
   xmlns="http://www.w3.org/2000/svg"
   xmlns:sodipodi="http://sodipodi.sourceforge.net/DTD/sodipodi-0.dtd"
   xmlns:inkscape="http://www.inkscape.org/namespaces/inkscape"
   width="188"
   height="24"
   id="svg2"
   version="1.1"
   inkscape:version="0.48.2 r9819"
   sodipodi:docname="plastic00.svg">
  <defs
     id="defs4" />
  <sodipodi:namedview
     id="base"
     pagecolor="#ffffff"
     bordercolor="#666666"
     borderopacity="1.0"
     inkscape:pageopacity="0.0"
     inkscape:pageshadow="2"
     inkscape:zoom="3.6203867"
     inkscape:cx="115.22749"
     inkscape:cy="-6.702424"
     inkscape:document-units="px"
     inkscape:current-layer="layer1"
     showgrid="false"
     inkscape:window-width="1053"
     inkscape:window-height="435"
     inkscape:window-x="66"
     inkscape:window-y="140"
     inkscape:window-maximized="0" />
  <metadata
     id="metadata7">
    <rdf:RDF>
      <cc:Work
         rdf:about="">
        <dc:format>image/svg+xml</dc:format>
        <dc:type
           rdf:resource="http://purl.org/dc/dcmitype/StillImage" />
        <dc:title></dc:title>
      </cc:Work>
    </rdf:RDF>
  </metadata>
  <g
     inkscape:label="レイヤー 1"
     inkscape:groupmode="layer"
     id="layer1"
     transform="translate(0,-1028.3622)">
    <text
       xml:space="preserve"
       style="font-size:40px;font-style:normal;font-weight:normal;line-height:125%;letter-spacing:0px;word-spacing:0px;fill:#f2f2f2;fill-opacity:1;stroke:none;font-family:Sans"
       x="20.262135"
       y="1046.2906"
       id="text2985"
       sodipodi:linespacing="125%"><tspan
         sodipodi:role="line"
         id="tspan2987"
         x="20.262135"
         y="1046.2906"
         style="font-size:16px;font-family:'M+ 1m light';-inkscape-font-specification:'M+ 1m light';fill:#f2f2f2">プラスチック[Plastic]</tspan></text>
    <path
       id="path_frameup"
       style="fill:#f2f2f2;stroke:none"
       d="m 2.9238998,1037.7647 0,-2.703 c 0,-1.6734 0.9010242,-2.5101 2.7030725,-2.5101 l 8.6884497,0 c 1.673331,0 2.509996,0.8367 2.509996,2.5101 l 0,0.7723 1.15846,0 -2.123843,2.51 -2.123844,-2.51 1.158461,0 0,-0.3861 c 0,-0.6436 -0.321795,-0.9655 -0.965383,-0.9655 l -8.10922,0 c -0.6435884,0 -0.965383,0.3219 -0.965383,0.9655 l 0,2.3168 -1.9307662,0 z m 0.9653823,0.7723 -2.1238431,2.51 1.1584608,0 0,3.6685 c 0,1.5446 0.7723063,2.3169 2.316919,2.3169 l 9.4607562,0 c 1.415895,0 2.123843,-0.7723 2.123843,-2.3169 l 0,-1.5447 -1.930766,0 0,1.1585 c 0,0.5149 -0.257436,0.7724 -0.772307,0.7724 l -8.6884495,0 c -0.3861528,0 -0.5792295,-0.2575 -0.5792295,-0.7724 l 0,-3.2823 1.1584599,0 -2.1238438,-2.51 z m 6.1525019,-2.3991 c -0.5031768,0 -0.9937213,0.2158 -1.3316251,0.6148 -0.4701261,0.555 -0.5447436,1.3439 -0.1870427,1.9772 l -1.9307672,0 0,1.1585 2.8961502,0 c 0,1.5445 -0.965383,2.3169 -2.8961502,2.3169 l 0,1.1584 c 2.703073,0 4.054611,-1.2872 4.054609,-3.8616 0.680991,-0.2557 1.130862,-0.9082 1.127085,-1.6356 -0.0038,-0.7275 -0.460369,-1.3751 -1.143978,-1.6237 -0.192264,-0.07 -0.391385,-0.1039 -0.588281,-0.1051 z m -0.01267,0.8929 c 0.44763,0 0.810922,0.3633 0.810922,0.811 0,0.4476 -0.363293,0.8108 -0.810922,0.8108 -0.4476282,0 -0.8109214,-0.3632 -0.8109214,-0.8108 0,-0.4477 0.3632921,-0.811 0.8109214,-0.811 z m 1.776311,1.6993 4.054611,0 0,0.9655 -4.054611,0 0,-0.9655 z m 0,1.5446 4.054611,0 c 0,2.0595 -1.351538,3.0892 -4.054611,3.0892 l 0,-0.9653 c 1.802048,0 2.703073,-0.3862 2.703073,-1.1585 l -2.703073,0 0,-0.9654 z"
       inkscape:connector-curvature="0" />
  </g>
</svg>
