<?xml version="1.0" encoding="UTF-8" standalone="no"?>
<!-- Created with Inkscape (http://www.inkscape.org/) -->

<svg
   xmlns:dc="http://purl.org/dc/elements/1.1/"
   xmlns:cc="http://creativecommons.org/ns#"
   xmlns:rdf="http://www.w3.org/1999/02/22-rdf-syntax-ns#"
   xmlns:svg="http://www.w3.org/2000/svg"
   xmlns="http://www.w3.org/2000/svg"
   xmlns:sodipodi="http://sodipodi.sourceforge.net/DTD/sodipodi-0.dtd"
   xmlns:inkscape="http://www.inkscape.org/namespaces/inkscape"
   width="270"
   height="24"
   id="svg2"
   version="1.1"
   inkscape:version="0.48.2 r9819"
   sodipodi:docname="paper00.svg">
  <defs
     id="defs4" />
  <sodipodi:namedview
     id="base"
     pagecolor="#ffffff"
     bordercolor="#666666"
     borderopacity="1.0"
     inkscape:pageopacity="0.0"
     inkscape:pageshadow="2"
     inkscape:zoom="2.56"
     inkscape:cx="32.635022"
     inkscape:cy="9.0247349"
     inkscape:document-units="px"
     inkscape:current-layer="layer1"
     showgrid="false"
     inkscape:window-width="1053"
     inkscape:window-height="435"
     inkscape:window-x="18"
     inkscape:window-y="150"
     inkscape:window-maximized="0" />
  <metadata
     id="metadata7">
    <rdf:RDF>
      <cc:Work
         rdf:about="">
        <dc:format>image/svg+xml</dc:format>
        <dc:type
           rdf:resource="http://purl.org/dc/dcmitype/StillImage" />
        <dc:title></dc:title>
      </cc:Work>
    </rdf:RDF>
  </metadata>
  <g
     inkscape:label="レイヤー 1"
     inkscape:groupmode="layer"
     id="layer1"
     transform="translate(0,-1028.3622)">
    <text
       xml:space="preserve"
       style="font-size:40px;font-style:normal;font-weight:normal;line-height:125%;letter-spacing:0px;word-spacing:0px;fill:#f2f2f2;fill-opacity:1;stroke:none;font-family:Sans"
       x="36.668385"
       y="1045.1188"
       id="text2985"
       sodipodi:linespacing="125%"><tspan
         sodipodi:role="line"
         id="tspan2987"
         x="36.668385"
         y="1045.1188"
         style="font-size:16px;font-family:'M+ 1m light';-inkscape-font-specification:'M+ 1m light';fill:#f2f2f2">新聞・古紙・古布[Paper/Cloth]</tspan></text>
    <path
       id="path2227"
       style="fill:#f2f2f2"
       d="m 7.597331,1047.8302 c -1.406046,-0.085 -2.681738,-0.607 -3.601223,-1.4744 l -0.148213,-0.1398 -1.020205,1.0196 0,-3.1412 3.162366,0 -1.091114,1.0865 0.159393,0.1458 c 0.906289,0.8289 2.22858,1.1919 3.676615,1.0094 1.892511,-0.2386 3.823848,-1.3795 5.151351,-3.0431 0.08365,-0.1048 0.160755,-0.2019 0.167107,-0.1959 l 1.050852,1.0313 -0.09935,0.1236 c -0.482422,0.6005 -1.192299,1.2851 -1.812109,1.7474 -1.495105,1.1152 -3.117044,1.7318 -4.81369,1.8301 -0.393592,0.023 -0.408114,0.023 -0.781781,0 z m 4.664697,-3.7011 c -0.411357,-0.09 -0.762311,-0.598 -0.906107,-1.3109 -0.08771,-0.4349 -0.224417,-1.5693 -0.274456,-2.2775 l -0.01438,-0.2036 -0.662239,0 0.01497,2.2753 0.70414,-0.1437 0.03874,1.1376 -2.302508,0.4672 -0.02026,-1.0596 -0.339814,0.058 -0.21865,-1.7851 0.623361,-0.089 0.29626,1.5748 0.180944,-0.019 0,-1.8782 -0.76746,0.1765 -0.07844,-0.256 -0.416959,0.053 -0.03131,3.2667 -0.981971,0 0.01548,-3.1747 -1.150019,0.063 -0.02305,-1.0524 0.542486,-0.012 0.369224,-0.4177 -0.987147,-1.0447 0.532742,-0.8997 0.214018,0.1296 0.602018,-1.0642 0.808198,0.4101 -0.8155,1.2324 0.336279,0.3849 0.670896,-1.1504 0.855716,0.3813 -1.431184,1.9772 0.638192,-0.043 -0.118467,-0.4172 0.703442,-0.2014 0.510612,1.2776 0.0022,-3.386 0.349634,-0.014 c 0.50393,-0.021 1.104274,-0.07 1.56031,-0.128 0.394851,-0.051 1.097567,-0.1701 1.335746,-0.2272 0.06879,-0.016 0.12786,-0.029 0.12888,-0.026 l 0.410965,1.1213 c 0.01584,0.043 -0.362216,0.101 -0.652295,0.1355 l -0.413047,0.052 -0.05447,1.3189 1.152802,-0.05 0.01181,1.0831 -1.144066,0.027 0.01328,0.2661 c 0.02327,0.4668 0.163043,1.2842 0.267151,1.5625 0.022,0.059 0.05883,0.124 0.08183,0.1448 0.04043,0.037 0.04364,0.037 0.0966,0 0.07445,-0.056 0.170961,-0.2318 0.247799,-0.4525 l 0.06386,-0.1835 0.07059,0.173 c 0.03882,0.095 0.149638,0.3515 0.246248,0.5696 l 0.175658,0.3966 -0.0253,0.1435 c -0.05426,0.3078 -0.194229,0.6427 -0.352009,0.8423 -0.182728,0.2312 -0.429749,0.3276 -0.691963,0.2701 z m -1.23809,-4.8226 0.01756,-1.2029 -0.636649,0 0,1.2351 0.619092,-0.032 z m 3.226198,3.5376 0.517583,-0.8579 1.065562,1.0776 -0.55732,0.8159 -1.025825,-1.0356 z m -8.390948,0.3453 c 0.147607,-0.4985 0.184112,-1.0891 0.232754,-1.616 0.01528,-0.1868 0.03045,-0.3522 0.03973,-0.3516 l 0.746421,0.053 c 0.003,0.426 -0.0081,0.8801 -0.0418,1.3065 -0.04484,0.3748 -0.163461,0.9868 -0.207132,1.0687 l -0.769979,-0.4604 z m -3.586763,-1.534 0.06473,-0.5888 1.412121,1.4355 0.09539,0.7284 -1.572237,-1.5751 z m 12.666216,-0.035 0.319343,-0.809 1.105585,1.1919 -0.341659,0.7115 -1.083269,-1.0944 z m -12.444272,-1.3629 0.18012,-0.5939 1.212316,1.2056 -0.11867,0.6673 -1.273766,-1.279 z m 12.953654,-0.096 0.113853,-0.639 1.230328,1.2486 -0.195615,0.6091 -1.148566,-1.2187 z m -12.532738,-1.0965 0.352764,-0.7485 1.104254,1.1185 -0.312704,0.782 -1.144314,-1.152 z m 12.664928,-0.54 -0.08221,-0.6675 1.525964,1.5361 -0.0605,0.5143 -1.383253,-1.3829 z m -12.131182,-0.568 0.555618,-0.8436 1.056527,1.0952 -0.518314,0.8533 -1.093831,-1.1049 z m 0.73545,-1.0694 c -0.02493,-0.026 0.452736,-0.5548 0.74008,-0.8485 1.558971,-1.5932 3.435647,-2.5639 5.480285,-2.8346 0.35096,-0.046 1.331996,-0.053 1.669898,-0.011 0.504463,0.063 1.078799,0.2042 1.509494,0.372 0.625099,0.2435 1.271383,0.6477 1.711109,1.07 l 0.14173,0.1361 1.04202,-1.0414 0,3.162 -3.151931,-0.016 1.063156,-1.066 c -8.22e-4,-0.01 -0.06904,-0.073 -0.151705,-0.1452 -0.512388,-0.4473 -1.189033,-0.7811 -1.867362,-0.9212 -0.745917,-0.1541 -1.579571,-0.1365 -2.41585,0.051 -1.676478,0.3758 -3.389157,1.4968 -4.559386,2.9844 -0.07225,0.092 -0.13728,0.1693 -0.144507,0.1722 l -1.067031,-1.0641 z"
       inkscape:connector-curvature="0" />
    <path
       id="path4899"
       d="m 30.911792,1034.0274 -0.184842,0.1849 v -0.1849 h -0.908778 c -0.409372,0.6332 -1.27442,1.0709 -2.278742,1.0709 -1.003955,0 -1.869002,-0.4377 -2.278742,-1.0709 H 24.35191 v 0.1849 l -0.184842,-0.1849 -3.268733,3.2702 1.787789,1.7892 1.665419,-1.6661 v 8.3315 h 6.375039 v -8.3315 l 1.665419,1.6661 1.787789,-1.7896 -3.267998,-3.2699 z"
       stroke-miterlimit="10"
       inkscape:connector-curvature="0"
       style="stroke:none;stroke-width:1.46991932000000000;stroke-linejoin:round;stroke-miterlimit:10;fill:#f9f9f9" />
  </g>
</svg>
