<?xml version="1.0" encoding="UTF-8" standalone="no"?>
<!-- Created with Inkscape (http://www.inkscape.org/) -->

<svg
   xmlns:dc="http://purl.org/dc/elements/1.1/"
   xmlns:cc="http://creativecommons.org/ns#"
   xmlns:rdf="http://www.w3.org/1999/02/22-rdf-syntax-ns#"
   xmlns:svg="http://www.w3.org/2000/svg"
   xmlns="http://www.w3.org/2000/svg"
   xmlns:sodipodi="http://sodipodi.sourceforge.net/DTD/sodipodi-0.dtd"
   xmlns:inkscape="http://www.inkscape.org/namespaces/inkscape"
   width="255"
   height="24"
   id="svg2"
   version="1.1"
   inkscape:version="0.48.2 r9819"
   sodipodi:docname="sodai00.svg">
  <defs
     id="defs4" />
  <sodipodi:namedview
     id="base"
     pagecolor="#ffffff"
     bordercolor="#666666"
     borderopacity="1.0"
     inkscape:pageopacity="0.0"
     inkscape:pageshadow="2"
     inkscape:zoom="3.6203867"
     inkscape:cx="72.657888"
     inkscape:cy="-8.1971942"
     inkscape:document-units="px"
     inkscape:current-layer="text2985"
     showgrid="false"
     inkscape:window-width="1053"
     inkscape:window-height="435"
     inkscape:window-x="66"
     inkscape:window-y="140"
     inkscape:window-maximized="0" />
  <metadata
     id="metadata7">
    <rdf:RDF>
      <cc:Work
         rdf:about="">
        <dc:format>image/svg+xml</dc:format>
        <dc:type
           rdf:resource="http://purl.org/dc/dcmitype/StillImage" />
        <dc:title></dc:title>
      </cc:Work>
    </rdf:RDF>
  </metadata>
  <g
     inkscape:label="レイヤー 1"
     inkscape:groupmode="layer"
     id="layer1"
     transform="translate(0,-1028.3622)">
    <g
       style="font-size:40px;font-style:normal;font-weight:normal;line-height:125%;letter-spacing:0px;word-spacing:0px;fill:#f2f2f2;fill-opacity:1;stroke:none;font-family:Sans"
       id="text2985">
      <path
         d="m 28.134205,1042.9464 0,3.6802 5.808105,0 0,-3.6802 z m 0,-4.2397 0,3.5517 5.808105,0 0,-3.5517 z m 0,-0.688 5.808105,0 0,-3.44 -5.808105,0 z m -1.472168,0.5278 0,0.6724 -2.191895,0 c 0.426754,0.8317 1.178706,2.341 2.25586,4.5278 l -0.575684,0.3838 c -0.277349,-0.5866 -0.906743,-1.8879 -1.888183,-3.9038 l 0,7.3921 -0.751954,0 0,-7.0083 c -0.565432,1.792 -1.365399,3.4401 -2.399902,4.9443 l -0.464355,-0.6401 c 1.248045,-1.8239 2.14404,-3.7225 2.687988,-5.6958 l -2.383789,0 0,-0.6724 2.560058,0 0,-5.104 0.751954,0 0,5.104 z m -5.631836,-4.064 0.655762,-0.208 c 0.469399,1.0883 0.901527,2.2829 1.296386,3.584 l -0.65625,0.1763 c -0.469402,-1.472 -0.901368,-2.6561 -1.295898,-3.5523 z m 3.759766,3.3443 c 0.576166,-1.2269 1.008295,-2.4536 1.296386,-3.6802 l 0.671875,0.1279 c -0.288092,1.2055 -0.7308,2.4694 -1.328125,3.792 z m 11.040039,9.4878 -10.031739,0 0,-0.688 1.600098,0 0,-12.752 7.312012,0 0,12.752 1.119629,0 z"
         style="font-size:16px;fill:#f2f2f2;font-family:'M+ 1m light';-inkscape-font-specification:'M+ 1m light'"
         id="path4589" />
      <path
         d="m 37.494068,1037.3624 0,-0.7197 6.368164,0 0,-3.2002 0.799805,0 0,3.2002 6.368164,0 0,0.7197 -6.352051,0 c 0.07454,1.9948 0.693188,3.8002 1.855957,5.4163 1.162749,1.616 2.741361,2.8827 4.73584,3.8 l -0.383789,0.6402 c -1.642591,-0.736 -3.042573,-1.7654 -4.199951,-3.0882 -1.157399,-1.3227 -1.95468,-2.8 -2.391846,-4.4318 -0.44825,1.6318 -1.256354,3.1091 -2.424316,4.4318 -1.167973,1.3228 -2.578617,2.3522 -4.231934,3.0882 l -0.383789,-0.6402 c 1.994463,-0.9173 3.573075,-2.184 4.73584,-3.8 1.162753,-1.6161 1.781405,-3.4215 1.855957,-5.4163 z"
         style="font-size:16px;fill:#f2f2f2;font-family:'M+ 1m light';-inkscape-font-specification:'M+ 1m light'"
         id="path4591" />
      <path
         d="m 62.853931,1037.5065 0.608399,-0.336 c 0.50129,0.7894 1.018542,1.6695 1.551758,2.6402 l -0.624024,0.3198 c -0.543957,-1.0238 -1.056,-1.8984 -1.536133,-2.624 z m 2.112305,-0.6397 0.624024,-0.3359 c 0.543931,0.8424 1.071925,1.7436 1.583984,2.7036 l -0.624024,0.3203 c -0.672214,-1.2054 -1.200208,-2.1014 -1.583984,-2.688 z m -9.26416,-1.4883 0,-0.7197 8.959961,0 0,0.7197 z m 9.952148,10.6719 c -0.629244,0.1921 -1.466564,0.3521 -2.511962,0.4802 -1.04542,0.1281 -2.016204,0.1922 -2.912354,0.1922 -1.823899,0 -3.2745,-0.2987 -4.351807,-0.896 -1.077313,-0.5973 -1.615968,-1.392 -1.615966,-2.3841 -2e-6,-0.992 0.741371,-2.208 2.224121,-3.6481 l 0.543945,0.4799 c -1.322595,1.2696 -1.98389,2.3043 -1.983887,3.1043 -3e-6,0.8 0.466631,1.4372 1.399903,1.9118 0.933263,0.4747 2.194492,0.712 3.783691,0.712 0.842765,0 1.773509,-0.067 2.792236,-0.2 1.018706,-0.1333 1.84268,-0.2906 2.471924,-0.4719 z"
         style="font-size:16px;fill:#f2f2f2;font-family:'M+ 1m light';-inkscape-font-specification:'M+ 1m light'"
         id="path4593" />
      <path
         d="m 72.645924,1046.5626 c -0.70378,0 -1.410322,-0.4106 -2.119629,-1.2319 -0.709312,-0.8213 -1.063966,-1.6852 -1.063965,-2.5918 -10e-7,-0.8535 0.514647,-1.6109 1.543945,-2.2722 1.029293,-0.6613 2.38118,-1.0133 4.055664,-1.0559 0.106764,-0.7149 0.272129,-2.1122 0.496094,-4.1919 l -4.959961,0 0,-0.688 5.728027,0 0,0.688 c -0.202807,1.8558 -0.373542,3.2584 -0.512207,4.208 1.397452,0.053 2.768219,0.293 4.112305,0.7197 0.04263,-0.7786 0.06395,-2.2239 0.06396,-4.3359 l 0.751953,0 c -1.2e-5,1.8239 -0.03208,3.3598 -0.09619,4.6079 0.992174,0.3734 1.925604,0.8374 2.800293,1.3921 l -0.352051,0.624 c -0.842788,-0.5228 -1.674818,-0.9442 -2.496094,-1.2642 -0.07456,1.0026 -0.186536,1.8266 -0.335937,2.472 -0.149426,0.6453 -0.37078,1.1893 -0.664063,1.632 -0.293305,0.4427 -0.613292,0.7921 -0.959961,1.0481 -0.34669,0.2561 -0.824065,0.5333 -1.432129,0.8318 l -0.383789,-0.6396 c 0.735993,-0.3627 1.285309,-0.712 1.647949,-1.0481 0.36262,-0.3361 0.666575,-0.8615 0.911866,-1.5762 0.245268,-0.7147 0.410714,-1.712 0.496337,-2.9919 -1.354827,-0.4587 -2.741545,-0.7147 -4.160156,-0.7681 -0.266609,1.7493 -0.559902,3.1041 -0.879883,4.0642 -0.319993,0.9601 -0.645351,1.5948 -0.976074,1.9041 -0.330734,0.3092 -0.73617,0.4638 -1.216308,0.4638 z m 2.304199,-6.4477 c -1.418625,0.043 -2.559982,0.3253 -3.424072,0.8479 -0.864098,0.5226 -1.296145,1.1146 -1.296143,1.7761 -2e-6,0.693 0.277341,1.3782 0.832031,2.0557 0.554684,0.6774 1.082679,1.0161 1.583985,1.0161 0.469396,0 0.885411,-0.4107 1.248046,-1.232 0.362625,-0.8213 0.714675,-2.3092 1.056153,-4.4638 z"
         style="font-size:16px;fill:#f2f2f2;font-family:'M+ 1m light';-inkscape-font-specification:'M+ 1m light'"
         id="path4595" />
      <path
         d="m 87.398365,1034.6105 0,13.04 2.943848,0 0,0.6401 -3.680176,0 0,-14.3198 3.680176,0 0,0.6397 z"
         style="font-size:16px;fill:#f2f2f2;font-family:'M+ 1m light';-inkscape-font-specification:'M+ 1m light'"
         id="path4597" />
      <path
         d="m 98.214283,1037.3307 c -6e-6,-1.4401 -0.805344,-2.1602 -2.416016,-2.1602 -0.426761,0 -0.880211,0.048 -1.360351,0.1441 l 0,4.2558 1.008301,0 c 0.949214,0 1.647863,-0.184 2.095947,-0.552 0.448074,-0.368 0.672113,-0.9305 0.672119,-1.6877 z m 1.167969,5.6318 c -7e-6,2.3255 -1.136074,3.4883 -3.408203,3.4883 -0.789391,0 -1.573407,-0.075 -2.352051,-0.2241 l 0,-11.5523 c 0.746743,-0.149 1.509437,-0.2236 2.288086,-0.2236 2.06933,0 3.103997,0.9333 3.104004,2.7998 -7e-6,1.3867 -0.634609,2.256 -1.903809,2.6079 l 0,0.032 c 0.714513,0.1495 1.271804,0.4908 1.671875,1.024 0.400058,0.5332 0.600091,1.2158 0.600098,2.0478 z m -0.815918,-0.064 c -7e-6,-0.8855 -0.245368,-1.5415 -0.736084,-1.9681 -0.490728,-0.4265 -1.258712,-0.6398 -2.303955,-0.6399 l -1.088379,0 0,5.2959 c 0.576169,0.096 1.136227,0.1441 1.680176,0.1441 0.821284,0 1.434646,-0.2293 1.840087,-0.688 0.405431,-0.4587 0.608148,-1.1733 0.608155,-2.144 z"
         style="font-size:16px;fill:#f2f2f2;font-family:'M+ 1m light';-inkscape-font-specification:'M+ 1m light'"
         id="path4599" />
      <path
         d="m 106.08635,1044.8668 -0.0322,0 c -0.44793,1.056 -1.20525,1.584 -2.27198,1.584 -0.83203,0 -1.4187,-0.2374 -1.76001,-0.7122 -0.34131,-0.4747 -0.51196,-1.3041 -0.51196,-2.488 l 0,-5.2798 0.76807,0 0,5.1358 c 0,1.056 0.12264,1.7573 0.36792,2.104 0.24528,0.3467 0.67732,0.52 1.29614,0.52 0.63997,0 1.15462,-0.3014 1.54395,-0.9041 0.38931,-0.6027 0.58397,-1.4426 0.58398,-2.5197 l 0,-4.336 0.78369,0 0,8.3198 -0.75195,0 z"
         style="font-size:16px;fill:#f2f2f2;font-family:'M+ 1m light';-inkscape-font-specification:'M+ 1m light'"
         id="path4601" />
      <path
         d="m 109.54192,1034.6105 2.96045,0 0,9.4399 c -1e-5,0.7575 0.0773,1.2296 0.23193,1.4163 0.15462,0.1867 0.5306,0.28 1.12793,0.28 0.31998,0 0.69336,-0.032 1.12012,-0.096 l 0,0.7202 c -0.42676,0.053 -0.82683,0.08 -1.2002,0.08 -0.84277,0 -1.40015,-0.1493 -1.67212,-0.448 -0.27197,-0.2987 -0.40796,-0.9228 -0.40795,-1.8723 l 0,-8.8159 -2.16016,0 z"
         style="font-size:16px;fill:#f2f2f2;font-family:'M+ 1m light';-inkscape-font-specification:'M+ 1m light'"
         id="path4603" />
      <path
         d="m 122.39006,1037.9708 0.99219,0 -4.16015,4 4.16015,4.3198 -0.99219,0 -3.88769,-4.1279 0,4.1279 -0.80029,0 0,-12 0.80029,0 0,7.4878 z"
         style="font-size:16px;fill:#f2f2f2;font-family:'M+ 1m light';-inkscape-font-specification:'M+ 1m light'"
         id="path4605" />
      <path
         d="m 126.0219,1037.9708 2.33643,6.9278 0.0317,0 2.28809,-6.9278 0.86377,0 -4.07959,11.8399 -0.83203,0 1.32764,-3.8081 -2.81592,-8.0318 z"
         style="font-size:16px;fill:#f2f2f2;font-family:'M+ 1m light';-inkscape-font-specification:'M+ 1m light'"
         id="path4607" />
      <path
         d="m 147.33391,1037.5704 c -1e-5,1.6107 -0.6613,2.6294 -1.98388,3.0562 l -0.0161,0.032 c 0.54427,0.224 0.9816,0.9279 1.31201,2.1118 l 0.97608,3.52 -0.84766,0 -0.94433,-3.5039 c -0.19207,-0.7148 -0.43474,-1.2028 -0.72803,-1.4641 -0.2933,-0.2612 -0.75456,-0.3918 -1.38379,-0.3918 l -1.31201,0 0,5.3598 -0.83203,0 0,-11.6162 c 0.74674,-0.149 1.49332,-0.2236 2.23974,-0.2236 1.19498,0 2.0804,0.256 2.65625,0.7678 0.57584,0.5119 0.86376,1.2959 0.86377,2.3518 z m -4.92773,2.6402 1.12011,0 c 1.07715,0 1.84774,-0.2027 2.31177,-0.6079 0.46403,-0.4053 0.69604,-1.0827 0.69605,-2.0323 -1e-5,-0.8212 -0.22397,-1.4266 -0.67188,-1.8159 -0.44792,-0.3893 -1.14665,-0.584 -2.09619,-0.584 -0.5013,0 -0.95459,0.043 -1.35986,0.128 z"
         style="font-size:16px;fill:#f2f2f2;font-family:'M+ 1m light';-inkscape-font-specification:'M+ 1m light'"
         id="path4609" />
      <path
         d="m 154.08635,1044.8668 -0.0322,0 c -0.44793,1.056 -1.20525,1.584 -2.27198,1.584 -0.83203,0 -1.4187,-0.2374 -1.76001,-0.7122 -0.34131,-0.4747 -0.51196,-1.3041 -0.51196,-2.488 l 0,-5.2798 0.76807,0 0,5.1358 c 0,1.056 0.12264,1.7573 0.36792,2.104 0.24528,0.3467 0.67732,0.52 1.29614,0.52 0.63997,0 1.15462,-0.3014 1.54395,-0.9041 0.38931,-0.6027 0.58397,-1.4426 0.58398,-2.5197 l 0,-4.336 0.78369,0 0,8.3198 -0.75195,0 z"
         style="font-size:16px;fill:#f2f2f2;font-family:'M+ 1m light';-inkscape-font-specification:'M+ 1m light'"
         id="path4611" />
      <path
         d="m 158.37395,1034.2906 0,5.1363 0.0322,0 c 0.45865,-1.0775 1.21061,-1.6162 2.25586,-1.6162 1.84537,0 2.76806,1.4399 2.76806,4.3198 0,1.5254 -0.26132,2.6268 -0.78393,3.3042 -0.52263,0.6774 -1.18401,1.0161 -1.98413,1.0161 -1.01335,0 -1.77605,-0.5387 -2.28809,-1.6162 l -0.0317,0 0,1.456 -0.76806,0 0,-12 z m 4.25635,7.8399 c -1e-5,-2.3678 -0.70932,-3.5518 -2.12793,-3.5518 -0.6403,0 -1.15511,0.2907 -1.54443,0.8721 -0.38933,0.5814 -0.58399,1.3947 -0.58399,2.4399 l 0,0.48 c 0,1.056 0.19206,1.872 0.57617,2.448 0.38411,0.576 0.90153,0.864 1.55225,0.864 0.68261,0 1.20792,-0.2986 1.57593,-0.896 0.36799,-0.5973 0.55199,-1.4827 0.552,-2.6562 z"
         style="font-size:16px;fill:#f2f2f2;font-family:'M+ 1m light';-inkscape-font-specification:'M+ 1m light'"
         id="path4613" />
      <path
         d="m 166.37395,1034.2906 0,5.1363 0.0322,0 c 0.45865,-1.0775 1.21061,-1.6162 2.25586,-1.6162 1.84537,0 2.76806,1.4399 2.76806,4.3198 0,1.5254 -0.26132,2.6268 -0.78393,3.3042 -0.52263,0.6774 -1.18401,1.0161 -1.98413,1.0161 -1.01335,0 -1.77605,-0.5387 -2.28809,-1.6162 l -0.0317,0 0,1.456 -0.76806,0 0,-12 z m 4.25635,7.8399 c -1e-5,-2.3678 -0.70932,-3.5518 -2.12793,-3.5518 -0.6403,0 -1.15511,0.2907 -1.54443,0.8721 -0.38933,0.5814 -0.58399,1.3947 -0.58399,2.4399 l 0,0.48 c 0,1.056 0.19206,1.872 0.57617,2.448 0.38411,0.576 0.90153,0.864 1.55225,0.864 0.68261,0 1.20792,-0.2986 1.57593,-0.896 0.36799,-0.5973 0.55199,-1.4827 0.552,-2.6562 z"
         style="font-size:16px;fill:#f2f2f2;font-family:'M+ 1m light';-inkscape-font-specification:'M+ 1m light'"
         id="path4615" />
      <path
         d="m 174.42229,1037.9708 2.71973,0 0,7.6157 1.84033,0 0,0.7041 -4.96045,0 0,-0.7041 2.32031,0 0,-6.9121 -1.91992,0 z m 1.74365,-2 0,-1.8403 0.97608,0 0,1.8403 z"
         style="font-size:16px;fill:#f2f2f2;font-family:'M+ 1m light';-inkscape-font-specification:'M+ 1m light'"
         id="path4617" />
      <path
         d="m 184.29436,1038.5148 c -1.19466,0 -1.79199,0.4586 -1.79199,1.3759 0,0.4161 0.12793,0.7627 0.38379,1.0401 0.25585,0.2773 0.73583,0.5172 1.43994,0.7197 1.0026,0.2988 1.69596,0.6375 2.08008,1.0161 0.38411,0.3786 0.57616,0.904 0.57617,1.5762 -1e-5,0.6934 -0.23739,1.2347 -0.71216,1.624 -0.47478,0.3893 -1.14413,0.584 -2.00806,0.584 -0.86393,0 -1.69059,-0.208 -2.47998,-0.624 l 0,-0.8159 c 0.78939,0.4905 1.58936,0.7358 2.39991,0.7358 1.33332,0 1.99999,-0.5013 2,-1.5039 -1e-5,-0.4694 -0.14397,-0.8428 -0.43189,-1.1201 -0.28793,-0.2774 -0.80526,-0.528 -1.552,-0.752 -0.90658,-0.2666 -1.54924,-0.5919 -1.92798,-0.976 -0.37874,-0.3842 -0.56812,-0.8855 -0.56811,-1.504 -1e-5,-0.6614 0.22135,-1.1734 0.66406,-1.5361 0.4427,-0.3626 1.0747,-0.5439 1.89599,-0.5439 0.83203,0 1.632,0.1759 2.39991,0.5278 l 0,0.7842 c -0.79981,-0.4053 -1.58904,-0.6079 -2.36768,-0.6079 z"
         style="font-size:16px;fill:#f2f2f2;font-family:'M+ 1m light';-inkscape-font-specification:'M+ 1m light'"
         id="path4619" />
      <path
         d="m 190.42229,1034.2906 0,5.1202 0.0317,0 c 0.21354,-0.5121 0.52026,-0.9068 0.92017,-1.1841 0.39989,-0.2774 0.86661,-0.416 1.40014,-0.416 0.85319,0 1.4611,0.2506 1.82373,0.7519 0.36263,0.5013 0.54394,1.3706 0.54395,2.6079 l 0,5.1201 -0.78369,0 0,-4.976 c -1e-5,-1.1198 -0.12802,-1.8637 -0.38404,-2.2317 -0.25602,-0.368 -0.70939,-0.552 -1.3601,-0.552 -0.65072,0 -1.17872,0.3066 -1.58399,0.9199 -0.40527,0.6133 -0.60791,1.4479 -0.60791,2.5039 l 0,4.3359 -0.80029,0 0,-12 z"
         style="font-size:16px;fill:#f2f2f2;font-family:'M+ 1m light';-inkscape-font-specification:'M+ 1m light'"
         id="path4621" />
      <path
         d="m 201.1259,1034.6105 -2.94384,0 0,-0.6397 3.68017,0 0,14.3198 -3.68017,0 0,-0.6401 2.94384,0 z"
         style="font-size:16px;fill:#f2f2f2;font-family:'M+ 1m light';-inkscape-font-specification:'M+ 1m light'"
         id="path4623" />
    </g>
    <g
       id="g4018"
       transform="translate(-4.0500004,1036.0399)">
	
	
	
	
<g
   id="g4064"
   transform="matrix(0.57505602,0,0,0.57505602,6.5179614,-4.1354676)">
  <g
     id="g4072">
    <path
       style="fill:#f2f2f2"
       inkscape:connector-curvature="0"
       d="m 21,26 c -0.551,0 -1,-0.449 -1,-1 v -1 h 1 c 1.594,0 2,-0.542 2,-0.542 V 25 c 0,0.551 -0.449,1 -1,1 h -1 z"
       id="path4046" />
    <path
       style="fill:#f2f2f2"
       inkscape:connector-curvature="0"
       d="M 4,26 C 3.449,26 3,25.551 3,25 V 23.458 C 3,23.458 3.406,24 5,24 h 1 v 1 c 0,0.551 -0.449,1 -1,1 H 4 z"
       id="path4048" />
    <path
       style="fill:none"
       d="M 0,0 26,0 26,26 0,26 z"
       id="rect4050" />
    <g
       id="g4052">
	<path
   style="fill:#f2f2f2"
   inkscape:connector-curvature="0"
   d="m 25.813,15.5 c 0,-1.277 -1.036,-2.313 -2.313,-2.313 -0.992,0 -1.832,0.628 -2.16,1.506 l -1.097,2.457 c -0.082,-0.051 -3.399,-1.093 -7.181,-1.093 -3.782,0 -7.23,1.047 -7.314,1.099 L 4.709,14.851 C 4.428,13.893 3.55,13.188 2.5,13.188 c -1.277,0 -2.313,1.035 -2.313,2.313 0,1.063 0.722,1.949 1.699,2.22 L 2.314,21.4 C 2.766,22.961 5,23 5,23 h 16 c 0,0 2.234,-0.039 2.686,-1.602 l 0.428,-3.679 c 0.976,-0.27 1.699,-1.156 1.699,-2.219 z"
   id="path4054" />

</g>
    <path
       style="fill:#f2f2f2"
       inkscape:connector-curvature="0"
       d="m 2.5,11.987 c 1.512,0 2.869,0.998 3.334,2.438 L 6.34,15.55 c 0.979,-0.353 4.499,-0.693 6.723,-0.693 2.163,0 5.633,0.316 6.593,0.666 l 0.575,-1.289 c 0.521,-1.346 1.83,-2.247 3.27,-2.247 0.106,0 0.207,0.022 0.312,0.031 0,-0.006 0.001,-0.013 0.001,-0.019 0,-2.658 -2.154,-4.813 -4.813,-4.813 -0.334,0 -11.666,0 -12,0 -2.658,0 -4.813,2.154 -4.813,4.813 0,0.006 10e-4,0.013 10e-4,0.019 C 2.293,12.01 2.394,11.987 2.5,11.987 z"
       id="path4056" />
  </g>
</g>
</g>
  </g>
</svg>
