<?xml version="1.0" encoding="UTF-8" standalone="no"?>
<!-- Created with Inkscape (http://www.inkscape.org/) -->

<svg
   xmlns:dc="http://purl.org/dc/elements/1.1/"
   xmlns:cc="http://creativecommons.org/ns#"
   xmlns:rdf="http://www.w3.org/1999/02/22-rdf-syntax-ns#"
   xmlns:svg="http://www.w3.org/2000/svg"
   xmlns="http://www.w3.org/2000/svg"
   xmlns:sodipodi="http://sodipodi.sourceforge.net/DTD/sodipodi-0.dtd"
   xmlns:inkscape="http://www.inkscape.org/namespaces/inkscape"
   width="200"
   height="24"
   id="svg2"
   version="1.1"
   inkscape:version="0.48.2 r9819"
   sodipodi:docname="toxic00.svg">
  <defs
     id="defs4" />
  <sodipodi:namedview
     id="base"
     pagecolor="#ffffff"
     bordercolor="#666666"
     borderopacity="1.0"
     inkscape:pageopacity="0.0"
     inkscape:pageshadow="2"
     inkscape:zoom="2.56"
     inkscape:cx="109.09898"
     inkscape:cy="-5.8654686"
     inkscape:document-units="px"
     inkscape:current-layer="layer1"
     showgrid="false"
     inkscape:window-width="1053"
     inkscape:window-height="435"
     inkscape:window-x="71"
     inkscape:window-y="197"
     inkscape:window-maximized="0" />
  <metadata
     id="metadata7">
    <rdf:RDF>
      <cc:Work
         rdf:about="">
        <dc:format>image/svg+xml</dc:format>
        <dc:type
           rdf:resource="http://purl.org/dc/dcmitype/StillImage" />
        <dc:title></dc:title>
      </cc:Work>
    </rdf:RDF>
  </metadata>
  <g
     inkscape:label="レイヤー 1"
     inkscape:groupmode="layer"
     id="layer1"
     transform="translate(0,-1028.3622)">
    <g
       style="font-size:40px;font-style:normal;font-weight:normal;line-height:125%;letter-spacing:0px;word-spacing:0px;fill:#f2f2f2;fill-opacity:1;stroke:none;font-family:Sans"
       id="text2985">
      <path
         d="m 34.30901,1040.9532 8.320312,0 0,-2.288 -8.320312,0 z m 0,0.6402 0,2.3359 8.320312,0 0,-2.3359 z m -3.759766,0.7358 -0.368164,-0.6719 c 1.130858,-0.8427 2.074948,-1.7307 2.832275,-2.664 0.75732,-0.9333 1.397212,-2.0026 1.919678,-3.208 l -4.367676,0 0,-0.6719 4.639649,0 c 0.181309,-0.4482 0.373366,-1.0029 0.576172,-1.6641 l 0.784179,0.1119 c -0.192064,0.6399 -0.362799,1.1574 -0.512207,1.5522 l 8.655762,0 0,0.6719 -8.927734,0 c -0.341478,0.8001 -0.720221,1.5361 -1.136231,2.208 l 8.78418,0 0,8.3682 c -1.4e-5,0.5973 -0.09336,0.9653 -0.28003,1.104 -0.186699,0.1386 -0.653414,0.208 -1.400146,0.208 -0.469087,0 -1.231619,-0.027 -2.287598,-0.08 l 0,-0.6719 c 0.981109,0.053 1.71174,0.08 2.191895,0.08 0.490547,0 0.775866,-0.021 0.855957,-0.064 0.08006,-0.043 0.120104,-0.1972 0.120117,-0.4638 l 0,-1.9038 -8.320312,0 0,3.1836 -0.799805,0 0,-8.1919 c -0.853519,1.0133 -1.840171,1.936 -2.959961,2.768 z"
         style="font-size:16px;fill:#f2f2f2;font-family:'M+ 1m light';-inkscape-font-specification:'M+ 1m light'"
         id="path5871" />
      <path
         d="m 49.157154,1047.0494 0,0.8799 -0.799805,0 0,-4.9121 10.559571,0 0,4.9121 -0.799805,0 0,-0.8799 z m 4.879883,-5.872 6.543945,0 0,0.6718 -13.887695,0 0,-0.6718 6.543945,0 0,-1.584 -5.600097,0 0,-0.6402 5.600097,0 0,-1.4399 -5.120117,0 0,-0.6401 5.120117,0 0,-1.3282 -5.520019,0 0,2.0162 -0.751953,0 0,-2.688 6.271972,0 0,-1.4239 0.799805,0 0,1.4239 6.271973,0 0,2.688 -0.751954,0 0,-2.0162 -5.520019,0 0,1.3282 5.120117,0 0,0.6401 -5.120117,0 0,1.4399 5.600098,0 0,0.6402 -5.600098,0 z m 4.080078,5.1997 0,-2.688 -8.959961,0 0,2.688 z"
         style="font-size:16px;fill:#f2f2f2;font-family:'M+ 1m light';-inkscape-font-specification:'M+ 1m light'"
         id="path5873" />
      <path
         d="m 72.228931,1037.8971 0.608399,-0.3359 c 0.50129,0.7894 1.018542,1.6694 1.551758,2.6401 l -0.624024,0.3198 c -0.543957,-1.0237 -1.056,-1.8984 -1.536133,-2.624 z m 2.112305,-0.6397 0.624024,-0.3359 c 0.543931,0.8425 1.071925,1.7437 1.583984,2.7036 l -0.624024,0.3203 c -0.672214,-1.2054 -1.200208,-2.1014 -1.583984,-2.688 z m -9.26416,-1.4882 0,-0.7198 8.959961,0 0,0.7198 z m 9.952148,10.6718 c -0.629244,0.1921 -1.466564,0.3522 -2.511962,0.4803 -1.04542,0.1281 -2.016204,0.1921 -2.912354,0.1921 -1.823899,0 -3.2745,-0.2987 -4.351807,-0.896 -1.077313,-0.5973 -1.615968,-1.392 -1.615966,-2.384 -2e-6,-0.992 0.741371,-2.2081 2.224121,-3.6482 l 0.543945,0.48 c -1.322595,1.2695 -1.98389,2.3042 -1.983887,3.1042 -3e-6,0.8 0.466631,1.4373 1.399903,1.9119 0.933263,0.4746 2.194492,0.7119 3.783691,0.7119 0.842765,0 1.773509,-0.067 2.792236,-0.2 1.018706,-0.1333 1.84268,-0.2906 2.471924,-0.4719 z"
         style="font-size:16px;fill:#f2f2f2;font-family:'M+ 1m light';-inkscape-font-specification:'M+ 1m light'"
         id="path5875" />
      <path
         d="m 82.020924,1046.9532 c -0.70378,0 -1.410322,-0.4106 -2.119629,-1.2319 -0.709312,-0.8213 -1.063966,-1.6852 -1.063965,-2.5918 -10e-7,-0.8535 0.514647,-1.6109 1.543945,-2.2722 1.029293,-0.6613 2.38118,-1.0133 4.055664,-1.0559 0.106764,-0.7148 0.272129,-2.1121 0.496094,-4.1919 l -4.959961,0 0,-0.688 5.728027,0 0,0.688 c -0.202807,1.8558 -0.373542,3.2585 -0.512207,4.208 1.397452,0.053 2.768219,0.293 4.112305,0.7197 0.04263,-0.7786 0.06395,-2.2239 0.06396,-4.3359 l 0.751953,0 c -1.2e-5,1.8239 -0.03208,3.3599 -0.09619,4.6079 0.992174,0.3734 1.925604,0.8374 2.800293,1.3921 l -0.352051,0.624 c -0.842788,-0.5228 -1.674818,-0.9442 -2.496094,-1.2641 -0.07456,1.0026 -0.186536,1.8265 -0.335937,2.4719 -0.149426,0.6453 -0.37078,1.1894 -0.664063,1.6321 -0.293305,0.4427 -0.613292,0.792 -0.959961,1.0481 -0.34669,0.256 -0.824065,0.5332 -1.432129,0.8317 l -0.383789,-0.6396 c 0.735993,-0.3626 1.285309,-0.712 1.647949,-1.0481 0.36262,-0.3361 0.666575,-0.8615 0.911866,-1.5762 0.245268,-0.7146 0.410714,-1.712 0.496337,-2.9919 -1.354827,-0.4587 -2.741545,-0.7147 -4.160156,-0.7681 -0.266609,1.7494 -0.559902,3.1041 -0.879883,4.0642 -0.319993,0.9602 -0.645351,1.5948 -0.976074,1.9041 -0.330734,0.3092 -0.73617,0.4638 -1.216308,0.4638 z m 2.304199,-6.4477 c -1.418625,0.043 -2.559982,0.3253 -3.424072,0.8479 -0.864098,0.5226 -1.296145,1.1147 -1.296143,1.7761 -2e-6,0.6931 0.277341,1.3783 0.832031,2.0557 0.554684,0.6774 1.082679,1.0161 1.583985,1.0161 0.469396,0 0.885411,-0.4106 1.248046,-1.2319 0.362625,-0.8213 0.714675,-2.3093 1.056153,-4.4639 z"
         style="font-size:16px;fill:#f2f2f2;font-family:'M+ 1m light';-inkscape-font-specification:'M+ 1m light'"
         id="path5877" />
      <path
         d="m 96.773365,1035.0011 0,13.04 2.943848,0 0,0.6402 -3.680176,0 0,-14.3198 3.680176,0 0,0.6396 z"
         style="font-size:16px;fill:#f2f2f2;font-family:'M+ 1m light';-inkscape-font-specification:'M+ 1m light'"
         id="path5879" />
      <path
         d="m 102.5971,1035.0011 6.08007,0 0,0.752 -2.64013,0 0,10.9282 -0.79981,0 0,-10.9282 -2.64013,0 z"
         style="font-size:16px;fill:#f2f2f2;font-family:'M+ 1m light';-inkscape-font-specification:'M+ 1m light'"
         id="path5881" />
      <path
         d="m 111.34905,1039.2496 c 0.5013,-0.6989 1.26399,-1.0483 2.28808,-1.0483 1.02409,0 1.78678,0.3494 2.28809,1.0481 0.5013,0.6987 0.75195,1.7894 0.75195,3.272 0,1.4825 -0.25065,2.5732 -0.75195,3.2719 -0.50131,0.6988 -1.264,1.0481 -2.28809,1.0481 -1.02409,0 -1.78678,-0.3493 -2.28808,-1.0481 -0.5013,-0.6987 -0.75196,-1.7894 -0.75195,-3.2719 -1e-5,-1.4826 0.25065,-2.5732 0.75195,-3.2718 z m 0.6001,6.0318 c 0.35742,0.5599 0.92008,0.8398 1.68798,0.8398 0.7679,0 1.33057,-0.28 1.68799,-0.8401 0.35742,-0.56 0.53613,-1.48 0.53614,-2.76 -1e-5,-1.2799 -0.17872,-2.1998 -0.53614,-2.7597 -0.35742,-0.5599 -0.92009,-0.8399 -1.68799,-0.8399 -0.7679,0 -1.33056,0.28 -1.68798,0.8399 -0.35743,0.5599 -0.53614,1.4798 -0.53614,2.7597 0,1.28 0.17871,2.2001 0.53614,2.7603 z"
         style="font-size:16px;fill:#f2f2f2;font-family:'M+ 1m light';-inkscape-font-specification:'M+ 1m light'"
         id="path5883" />
      <path
         d="m 119.60491,1038.3615 2.03222,3.6479 0.0322,0 2.03174,-3.6479 0.896,0 -2.46387,4.1596 2.46387,4.1602 -0.94385,0 -2.01612,-3.648 -0.0322,0 -2.01563,3.648 -0.91211,0 2.46387,-4.1602 -2.46387,-4.1596 z"
         style="font-size:16px;fill:#f2f2f2;font-family:'M+ 1m light';-inkscape-font-specification:'M+ 1m light'"
         id="path5885" />
      <path
         d="m 127.79729,1038.3615 2.71973,0 0,7.6157 1.84033,0 0,0.7041 -4.96045,0 0,-0.7041 2.32031,0 0,-6.9121 -1.91992,0 z m 1.74365,-2 0,-1.8404 0.97608,0 0,1.8404 z"
         style="font-size:16px;fill:#f2f2f2;font-family:'M+ 1m light';-inkscape-font-specification:'M+ 1m light'"
         id="path5887" />
      <path
         d="m 138.26116,1038.9371 c -0.76791,0 -1.36255,0.2987 -1.78394,0.896 -0.42139,0.5974 -0.63208,1.4934 -0.63208,2.688 0,2.4001 0.8374,3.6001 2.51221,3.6001 0.62923,0 1.23176,-0.16 1.80762,-0.48 l 0,0.816 c -0.60776,0.2561 -1.22104,0.3842 -1.83985,0.3842 -1.06673,0 -1.88005,-0.36 -2.43994,-1.08 -0.5599,-0.7201 -0.83984,-1.8002 -0.83984,-3.2403 0,-1.5254 0.288,-2.6267 0.86401,-3.3039 0.57601,-0.6773 1.34399,-1.0159 2.30396,-1.0159 0.61848,0 1.23176,0.1279 1.83984,0.3838 l 0,0.8164 c -0.58659,-0.3096 -1.18392,-0.4644 -1.79199,-0.4644 z"
         style="font-size:16px;fill:#f2f2f2;font-family:'M+ 1m light';-inkscape-font-specification:'M+ 1m light'"
         id="path5889" />
      <path
         d="m 150.94915,1035.0011 1.02392,10.4321 0.0322,0 1.16797,-8.832 0.9917,0 1.16797,8.832 0.0322,0 1.02393,-10.4321 0.76806,0 -1.18408,11.6802 -1.13574,0 -1.18408,-8.9922 -0.0322,0 -1.18408,8.9922 -1.13574,0 -1.18408,-11.6802 z"
         style="font-size:16px;fill:#f2f2f2;font-family:'M+ 1m light';-inkscape-font-specification:'M+ 1m light'"
         id="path5891" />
      <path
         d="m 161.71721,1038.2013 c 0.95996,0 1.6346,0.2053 2.02393,0.616 0.38931,0.4106 0.58398,1.1386 0.58398,2.1838 l 0,5.6802 -0.75195,0 -0.0161,-1.4561 -0.0317,0 c -0.51205,1.0775 -1.35482,1.6162 -2.52832,1.6162 -0.68262,0 -1.23194,-0.216 -1.64795,-0.6482 -0.41602,-0.4321 -0.62403,-1.0267 -0.62402,-1.7839 -1e-5,-0.8962 0.30932,-1.6162 0.92797,-2.1602 0.61865,-0.5439 1.62671,-0.8159 3.02417,-0.8159 l 0.86377,0 0,-0.5918 c 0,-0.7148 -0.13599,-1.2162 -0.40796,-1.5041 -0.27197,-0.2879 -0.7439,-0.4319 -1.41577,-0.4319 -0.34147,0 -0.77621,0.059 -1.3042,0.176 -0.52799,0.1174 -0.97331,0.2613 -1.33593,0.4319 l 0,-0.7519 c 0.91731,-0.3734 1.79736,-0.5601 2.64013,-0.5601 z m 1.82373,3.8721 -0.86377,0 c -0.95996,0 -1.73332,0.184 -2.32006,0.552 -0.58676,0.368 -0.88013,0.9467 -0.88013,1.7361 0,0.5546 0.14672,0.9893 0.44018,1.3039 0.29346,0.3146 0.69605,0.4719 1.20777,0.4719 0.70409,0 1.28279,-0.2773 1.73608,-0.832 0.45328,-0.5547 0.67993,-1.2961 0.67993,-2.2241 z"
         style="font-size:16px;fill:#f2f2f2;font-family:'M+ 1m light';-inkscape-font-specification:'M+ 1m light'"
         id="path5893" />
      <path
         d="m 169.66936,1038.9054 c -1.19466,0 -1.79199,0.4587 -1.79199,1.376 0,0.416 0.12793,0.7627 0.38379,1.04 0.25585,0.2774 0.73583,0.5173 1.43994,0.7197 1.0026,0.2989 1.69596,0.6376 2.08008,1.0162 0.38411,0.3785 0.57616,0.9039 0.57617,1.5761 -1e-5,0.6934 -0.23739,1.2347 -0.71216,1.624 -0.47478,0.3894 -1.14413,0.584 -2.00806,0.584 -0.86393,0 -1.69059,-0.208 -2.47998,-0.624 l 0,-0.8159 c 0.78939,0.4905 1.58936,0.7358 2.39991,0.7358 1.33332,0 1.99999,-0.5013 2,-1.5039 -1e-5,-0.4694 -0.14397,-0.8427 -0.43189,-1.1201 -0.28793,-0.2773 -0.80526,-0.528 -1.552,-0.7519 -0.90658,-0.2666 -1.54924,-0.592 -1.92798,-0.9761 -0.37874,-0.3841 -0.56812,-0.8854 -0.56811,-1.5039 -1e-5,-0.6615 0.22135,-1.1735 0.66406,-1.5362 0.4427,-0.3626 1.0747,-0.5439 1.89599,-0.5439 0.83203,0 1.632,0.1759 2.39991,0.5278 l 0,0.7842 c -0.79981,-0.4053 -1.58904,-0.6079 -2.36768,-0.6079 z"
         style="font-size:16px;fill:#f2f2f2;font-family:'M+ 1m light';-inkscape-font-specification:'M+ 1m light'"
         id="path5895" />
      <path
         d="m 174.72503,1038.6813 1.76025,0 0,-3.0401 0.78369,0 0,3.0401 3.05615,0 0,0.7202 -3.05615,0 0,5.0395 c 0,0.683 0.1014,1.1364 0.3042,1.3604 0.2028,0.224 0.60807,0.3359 1.21582,0.3359 0.51204,0 0.9707,-0.08 1.37598,-0.2402 l 0,0.7202 c -0.46908,0.1494 -0.94906,0.2241 -1.43994,0.2241 -0.8532,0 -1.43979,-0.1653 -1.75977,-0.4961 -0.31999,-0.3307 -0.47998,-0.9388 -0.47998,-1.8242 l 0,-5.1196 -1.76025,0 z"
         style="font-size:16px;fill:#f2f2f2;font-family:'M+ 1m light';-inkscape-font-specification:'M+ 1m light'"
         id="path5897" />
      <path
         d="m 185.71721,1038.2013 c 0.93847,0 1.63444,0.3306 2.08789,0.9919 0.45345,0.6613 0.68017,1.728 0.68018,3.2 -10e-6,0.022 -0.003,0.075 -0.008,0.1601 -0.005,0.085 -0.008,0.1439 -0.008,0.1758 l -4.92823,0 c 0.0215,1.1843 0.23226,2.0457 0.63233,2.5843 0.40006,0.5385 1.00536,0.8078 1.81592,0.8078 0.69335,0 1.40266,-0.1759 2.12793,-0.5278 l 0,0.8159 c -0.75717,0.2881 -1.47722,0.4321 -2.16016,0.4321 -2.15463,0 -3.23194,-1.4401 -3.23193,-4.3203 -1e-5,-1.4931 0.24536,-2.5864 0.73608,-3.2798 0.49072,-0.6933 1.24275,-1.04 2.2561,-1.04 z m -2.17627,3.8398 4.14405,0 c -0.0104,-1.1624 -0.19166,-1.9729 -0.54371,-2.4316 -0.35205,-0.4587 -0.82674,-0.688 -1.42407,-0.688 -0.72526,0 -1.25863,0.24 -1.60009,0.72 -0.34148,0.48 -0.53354,1.2799 -0.57618,2.3996 z"
         style="font-size:16px;fill:#f2f2f2;font-family:'M+ 1m light';-inkscape-font-specification:'M+ 1m light'"
         id="path5899" />
      <path
         d="m 194.5009,1035.0011 -2.94384,0 0,-0.6396 3.68017,0 0,14.3198 -3.68017,0 0,-0.6402 2.94384,0 z"
         style="font-size:16px;fill:#f2f2f2;font-family:'M+ 1m light';-inkscape-font-specification:'M+ 1m light'"
         id="path5901" />
    </g>
    <path
       id="path5851"
       d="M 11.197904,1037.0141 H 10.21278 v -0.735 H 7.6401977 v 0.735 H 6.7059099 c -0.6080807,0 -1.1025349,0.4946 -1.1025349,1.1027 v 9.8002 c 0,0.6078 0.4946046,1.1025 1.1025349,1.1025 h 4.4918431 c 0.608081,0 1.102534,-0.4947 1.102534,-1.1025 v -9.8002 c 1.52e-4,-0.6081 -0.494453,-1.1027 -1.102383,-1.1027 z m 0.36736,10.9029 c 0,0.2026 -0.164767,0.3676 -0.367511,0.3676 H 6.7059099 c -0.2027444,0 -0.3675116,-0.1647 -0.3675116,-0.3676 v -9.8002 c 0,-0.2026 0.1647672,-0.3676 0.3675116,-0.3676 h 4.4918431 c 0.202744,0 0.367511,0.165 0.367511,0.3676 v 9.8002 z m -1.306791,-8.2892 c 0,0.1354 -0.109545,0.2452 -0.244959,0.2452 H 9.1970924 v 0.8164 c 0,0.1354 -0.1096929,0.2452 -0.2451096,0.2452 -0.1354167,0 -0.244958,-0.1106 -0.244958,-0.2452 v -0.8164 H 7.8904511 c -0.1354155,0 -0.244958,-0.1106 -0.244958,-0.2452 0,-0.1353 0.1096929,-0.2451 0.244958,-0.2451 h 0.8165737 v -0.8166 c 0,-0.1354 0.1097043,-0.2452 0.244958,-0.2452 0.135566,0 0.2451096,0.1106 0.2451096,0.2452 v 0.8166 h 0.8164216 c 0.135416,0 0.244959,0.1106 0.244959,0.2451 z m 0,7.5952 c 0,0.1353 -0.109545,0.2449 -0.244959,0.2449 H 7.8901479 c -0.1354155,0 -0.2449568,-0.1094 -0.2449568,-0.2449 0,-0.1354 0.1096929,-0.2452 0.2449568,-0.2452 h 2.1232151 c 0.135567,0 0.24511,0.1106 0.24511,0.2452 z"
       inkscape:connector-curvature="0"
       style="fill:#f2f2f2" />
    <path
       id="path5861"
       d="m 20.248738,1047.816 h 4.433057 v 0.7074 h -4.433057 v -0.7074 z m 4.004593,-11.749 h 0.427922 v 11.516 h -4.433057 v -11.5165 h 0.529215 v -0.9475 h 0.26217 v -0.3092 h 0.837969 v -1.2702 l 1.394268,0 v 0.2497 h 0.11321 v 0.7106 h -0.11321 v 0.3088 h 0.737219 v 0.3098 h 0.243211 5.41e-4 v 0.9473 z m -2.896871,0.8087 h -0.561174 v 10.0118 h 0.561174 v -10.0118 z m -6.72596,0.8175 h 4.179553 v 10.8301 H 14.6305 v -10.8301 z m 0.315796,3.7061 h 3.548503 v -3.3909 h -3.548503 v 3.3909 z m 3.101623,-6.1247 h -2.628742 v 1.9457 h 2.629283 v -1.9457 z m 9.440287,-2.3254 -0.04442,-0.1566 -3.878384,1.1007 0.04442,0.1566 3.878383,-1.1007 z m -3.809591,1.3363 -0.04442,0.1566 3.878383,1.1006 0.04441,-0.1565 -3.878383,-1.1007 z m -0.01896,-0.021 3.643296,-0.037 -0.0016,-0.163 -3.643296,0.038 0.0016,0.1625 z"
       inkscape:connector-curvature="0"
       style="fill:#f2f2f2" />
  </g>
</svg>
