<?xml version="1.0" encoding="UTF-8" standalone="no"?>
<!-- Created with Inkscape (http://www.inkscape.org/) -->

<svg
   xmlns:dc="http://purl.org/dc/elements/1.1/"
   xmlns:cc="http://creativecommons.org/ns#"
   xmlns:rdf="http://www.w3.org/1999/02/22-rdf-syntax-ns#"
   xmlns:svg="http://www.w3.org/2000/svg"
   xmlns="http://www.w3.org/2000/svg"
   xmlns:sodipodi="http://sodipodi.sourceforge.net/DTD/sodipodi-0.dtd"
   xmlns:inkscape="http://www.inkscape.org/namespaces/inkscape"
   width="240"
   height="24"
   id="svg2"
   version="1.1"
   inkscape:version="0.48.2 r9819"
   sodipodi:docname="magazine00.svg">
  <defs
     id="defs4" />
  <sodipodi:namedview
     id="base"
     pagecolor="#ffffff"
     bordercolor="#666666"
     borderopacity="1.0"
     inkscape:pageopacity="0.0"
     inkscape:pageshadow="2"
     inkscape:zoom="2.56"
     inkscape:cx="109.09898"
     inkscape:cy="-23.225812"
     inkscape:document-units="px"
     inkscape:current-layer="layer1"
     showgrid="false"
     inkscape:window-width="1053"
     inkscape:window-height="435"
     inkscape:window-x="71"
     inkscape:window-y="197"
     inkscape:window-maximized="0" />
  <metadata
     id="metadata7">
    <rdf:RDF>
      <cc:Work
         rdf:about="">
        <dc:format>image/svg+xml</dc:format>
        <dc:type
           rdf:resource="http://purl.org/dc/dcmitype/StillImage" />
        <dc:title></dc:title>
      </cc:Work>
    </rdf:RDF>
  </metadata>
  <g
     inkscape:label="レイヤー 1"
     inkscape:groupmode="layer"
     id="layer1"
     transform="translate(0,-1028.3622)">
    <g
       style="font-size:40px;font-style:normal;font-weight:normal;line-height:125%;letter-spacing:0px;word-spacing:0px;fill:#f2f2f2;fill-opacity:1;stroke:none;font-family:Sans"
       id="text2985">
      <path
         d="m 39.395924,1038.1173 0,-2.7358 -2.879883,0 0,2.7358 z m 0,3.5361 0,-2.8642 -2.879883,0 0,2.8642 z m 0,0.6719 -2.879883,0 0,2.9282 2.879883,0 z m -8.560059,-9.8237 0.751953,0 c -4e-6,0.7038 -0.01058,1.2104 -0.03174,1.52 l 2.063965,0 0,3.8237 c -6e-6,0.1921 0.02132,0.3121 0.06397,0.3601 0.04264,0.048 0.170566,0.072 0.383789,0.072 0.19205,0 0.322747,-0.053 0.392089,-0.1599 0.06933,-0.1066 0.120111,-0.368 0.152344,-0.784 l -0.544433,-0.4961 c 1.248039,-1.248 2.160147,-2.7627 2.736328,-4.5439 l 0.73584,0.144 c -0.255869,0.8106 -0.565114,1.5572 -0.927735,2.2398 l 2.911621,0 c 0.362618,-0.7253 0.672026,-1.5199 0.928223,-2.3838 l 0.73584,0.144 c -0.223972,0.7465 -0.511895,1.493 -0.86377,2.2398 l 2.560059,0 0,0.7041 -2.751953,0 0,2.7358 2.463867,0 0,0.6719 -2.463867,0 0,2.8642 2.463867,0 0,0.6719 -2.463867,0 0,2.9282 2.959961,0 0,0.688 -6.576172,0 0,0.9278 -0.78418,0 0,-10.816 c -0.08529,0.1176 -0.213224,0.2829 -0.383789,0.4961 -0.02149,0.7468 -0.06951,1.2854 -0.144043,1.616 -0.07455,0.3306 -0.194506,0.5466 -0.359863,0.648 -0.165372,0.1014 -0.445482,0.1521 -0.840332,0.1521 -0.458665,0 -0.759934,-0.064 -0.903809,-0.1922 -0.143885,-0.1281 -0.215825,-0.4214 -0.21582,-0.8801 l 0,-3.1997 -1.375977,0 c -0.117516,1.3441 -0.392256,2.3948 -0.824218,3.1521 -0.431969,0.7573 -1.096031,1.4026 -1.992188,1.9358 l -0.383789,-0.6719 c 0.767902,-0.4587 1.33854,-1.016 1.711914,-1.6721 0.37337,-0.6561 0.613441,-1.5707 0.720215,-2.7439 l -2.063965,0 0,-0.6719 2.111816,0 c 0.0319,-0.4694 0.04785,-0.9761 0.04785,-1.52 z m 0.672363,5.8076 0.783692,0 0,1.9522 2.784179,0 0,0.6718 -2.592285,0 c 1.045567,1.0456 1.936354,2.0376 2.672364,2.9761 l -0.479981,0.5122 c -0.672207,-0.8961 -1.472336,-1.8242 -2.400391,-2.7842 l 0,5.104 -0.751953,0 0,-4.9438 c -0.661136,1.2266 -1.610353,2.3891 -2.847656,3.4878 l -0.448242,-0.5757 c 1.344073,-1.1628 2.357419,-2.4216 3.040039,-3.7764 l -2.751953,0 0,-0.6718 2.992187,0 z"
         style="font-size:16px;fill:#f2f2f2;font-family:'M+ 1m light';-inkscape-font-specification:'M+ 1m light'"
         id="path5791" />
      <path
         d="m 45.747974,1046.1813 0,0.7363 -0.719726,0 0,-4.7524 4.495605,0 0,4.0161 z m 0,-0.688 3.087891,0 0,-2.6558 -3.087891,0 z m 12.91211,-10.9761 0,0.7041 -3.855957,0 0,3.2319 3.535644,0 0,0.688 -7.711914,0 0,-0.688 3.39209,0 0,-3.2319 -3.664062,0 0,-0.7041 3.664062,0 0,-2 0.78418,0 0,2 z m -9.008301,10.9922 c 0.576165,-1.1947 1.013502,-2.6027 1.312012,-4.2241 l 0.687988,0.1601 c -0.287768,1.6534 -0.735684,3.1094 -1.34375,4.3682 z m 7.696289,-1.9038 c -0.0534,0.8958 -0.12542,1.5304 -0.216064,1.9038 -0.09067,0.3734 -0.221368,0.6267 -0.39209,0.76 -0.170749,0.1333 -0.464124,0.2159 -0.880127,0.2478 -0.330416,0.032 -0.730318,0.048 -1.199707,0.048 -0.469412,0 -0.874848,-0.016 -1.216309,-0.048 -0.405283,-0.032 -0.666594,-0.1225 -0.783935,-0.2717 -0.117359,-0.1493 -0.176035,-0.4853 -0.176026,-1.0081 l 0,-4.416 0.78418,0 0,4.208 c -1e-5,0.3734 0.024,0.5974 0.07202,0.6721 0.048,0.075 0.189362,0.1227 0.424073,0.1438 0.341135,0.022 0.655751,0.032 0.943847,0.032 0.266591,0 0.581206,-0.011 0.943848,-0.032 0.266915,-0.021 0.450997,-0.072 0.552246,-0.1518 0.101224,-0.08 0.183825,-0.2695 0.247803,-0.5681 0.06395,-0.2987 0.122627,-0.8266 0.176025,-1.5838 z m -4.271973,-3.6001 0.416016,-0.5283 c 1.013336,0.736 1.941232,1.5628 2.783691,2.4804 l -0.47998,0.4956 c -0.885102,-0.9492 -1.791677,-1.7651 -2.719727,-2.4477 z m 3.839844,1.4238 0.671875,-0.2558 c 0.618801,1.4078 1.141587,2.8318 1.56836,4.2719 l -0.687989,0.2242 c -0.41603,-1.4294 -0.933445,-2.8428 -1.552246,-4.2403 z m -11.887695,-7.5678 0,-0.6719 4.47998,0 0,0.6719 z m -0.464356,2.2241 0,-0.688 5.375977,0 0,0.688 z m 0.560059,2.2397 0,-0.6719 4.319824,0 0,0.6719 z m 0,2.2559 0,-0.6719 4.319824,0 0,0.6719 z"
         style="font-size:16px;fill:#f2f2f2;font-family:'M+ 1m light';-inkscape-font-specification:'M+ 1m light'"
         id="path5793" />
      <path
         d="m 67.171803,1040.7892 0,-2.0796 1.024414,0 0,2.0796 z"
         style="font-size:16px;fill:#f2f2f2;font-family:'M+ 1m light';-inkscape-font-specification:'M+ 1m light'"
         id="path5795" />
      <path
         d="m 87.395924,1038.1173 0,-2.7358 -2.879883,0 0,2.7358 z m 0,3.5361 0,-2.8642 -2.879883,0 0,2.8642 z m 0,0.6719 -2.879883,0 0,2.9282 2.879883,0 z m -8.560059,-9.8237 0.751953,0 c -4e-6,0.7038 -0.01058,1.2104 -0.03174,1.52 l 2.063965,0 0,3.8237 c -6e-6,0.1921 0.02132,0.3121 0.06396,0.3601 0.04264,0.048 0.170566,0.072 0.383789,0.072 0.19205,0 0.322747,-0.053 0.392089,-0.1599 0.06933,-0.1066 0.120111,-0.368 0.152344,-0.784 l -0.544433,-0.4961 c 1.248039,-1.248 2.160147,-2.7627 2.736328,-4.5439 l 0.73584,0.144 c -0.255869,0.8106 -0.565114,1.5572 -0.927735,2.2398 l 2.911621,0 c 0.362618,-0.7253 0.672026,-1.5199 0.928223,-2.3838 l 0.73584,0.144 c -0.223972,0.7465 -0.511895,1.493 -0.86377,2.2398 l 2.560059,0 0,0.7041 -2.751953,0 0,2.7358 2.463867,0 0,0.6719 -2.463867,0 0,2.8642 2.463867,0 0,0.6719 -2.463867,0 0,2.9282 2.959961,0 0,0.688 -6.576172,0 0,0.9278 -0.78418,0 0,-10.816 c -0.08529,0.1176 -0.213224,0.2829 -0.383789,0.4961 -0.02149,0.7468 -0.06951,1.2854 -0.144043,1.616 -0.07455,0.3306 -0.194506,0.5466 -0.359863,0.648 -0.165372,0.1014 -0.445482,0.1521 -0.840332,0.1521 -0.458665,0 -0.759934,-0.064 -0.903809,-0.1922 -0.143885,-0.1281 -0.215825,-0.4214 -0.21582,-0.8801 l 0,-3.1997 -1.375977,0 c -0.117516,1.3441 -0.392256,2.3948 -0.824218,3.1521 -0.431969,0.7573 -1.096031,1.4026 -1.992188,1.9358 l -0.383789,-0.6719 c 0.767902,-0.4587 1.33854,-1.016 1.711914,-1.6721 0.37337,-0.6561 0.613441,-1.5707 0.720215,-2.7439 l -2.063965,0 0,-0.6719 2.111816,0 c 0.0319,-0.4694 0.04785,-0.9761 0.04785,-1.52 z m 0.672363,5.8076 0.783692,0 0,1.9522 2.784179,0 0,0.6718 -2.592285,0 c 1.045567,1.0456 1.936354,2.0376 2.672364,2.9761 l -0.479981,0.5122 c -0.672207,-0.8961 -1.472336,-1.8242 -2.400391,-2.7842 l 0,5.104 -0.751953,0 0,-4.9438 c -0.661136,1.2266 -1.610353,2.3891 -2.847656,3.4878 l -0.448242,-0.5757 c 1.344073,-1.1628 2.357419,-2.4216 3.040039,-3.7764 l -2.751953,0 0,-0.6718 2.992187,0 z"
         style="font-size:16px;fill:#f2f2f2;font-family:'M+ 1m light';-inkscape-font-specification:'M+ 1m light'"
         id="path5797" />
      <path
         d="m 103.1718,1038.3575 c -0.1172,-1.2373 -0.18653,-2.672 -0.20801,-4.3042 -0.79981,0.1176 -1.72234,0.219 -2.76757,0.3042 l 0,4 z m 3.6001,0 0,0.7198 -2.75195,0 c 0.16014,1.3122 0.37083,2.4882 0.63208,3.528 0.26121,1.0399 0.51455,1.8079 0.76001,2.304 0.24543,0.4961 0.45343,0.7441 0.62402,0.7441 0.20246,0 0.3784,-1.04 0.52783,-3.1201 l 0.72022,0.1763 c -0.0749,1.0133 -0.17629,1.8133 -0.3042,2.3999 -0.12795,0.5866 -0.26662,0.9785 -0.41602,1.1758 -0.14943,0.1972 -0.33074,0.2959 -0.54394,0.2959 -0.53322,0 -1.06121,-0.672 -1.58399,-2.0159 -0.5228,-1.3439 -0.91749,-3.1732 -1.18408,-5.488 l -3.05566,0 0,6.0639 c 0.93846,-0.32 1.9357,-0.7412 2.9917,-1.2636 l 0.19189,0.624 c -1.96257,0.9599 -3.845222,1.6479 -5.647949,2.064 l -0.144043,-0.6724 c 0.629551,-0.1491 1.237623,-0.3143 1.824219,-0.4956 l 0,-11.584 0,-0.096 c 2.506503,-0.1813 4.826483,-0.4959 6.959963,-0.9438 l 0.16015,0.6718 c -0.93881,0.2028 -1.87745,0.3736 -2.81591,0.5122 0.0211,1.7279 0.0957,3.1945 0.22363,4.3999 z m -9.664062,-1.2163 0.687988,-0.1919 c 0.458652,1.1947 0.832024,2.4961 1.120117,3.9043 l -0.687988,0.1436 c -0.09604,-0.4479 -0.165371,-0.7466 -0.208008,-0.896 l -2.047852,0.1123 0,6.624 -0.751953,0 0,-6.5761 -2.800293,0.1601 -0.03174,-0.688 1.263672,-0.064 c 0.181638,-0.224 0.485675,-0.6133 0.912109,-1.168 -0.71452,-1.2373 -1.397137,-2.368 -2.047851,-3.3921 l 0.512207,-0.5762 c 0.0319,0.053 0.127847,0.2108 0.287842,0.4722 0.159991,0.2614 0.288002,0.4666 0.384033,0.6157 0.597328,-0.9277 1.189287,-1.9516 1.775879,-3.0718 l 0.671875,0.3042 c -0.629236,1.184 -1.306481,2.3306 -2.031739,3.44 0.192055,0.3092 0.496091,0.8319 0.91211,1.5679 0.885087,-1.2266 1.706375,-2.4852 2.463867,-3.7759 l 0.640137,0.3359 c -1.002935,1.7494 -2.181645,3.4826 -3.536133,5.1997 0.362627,-0.021 0.903967,-0.05 1.624023,-0.088 0.720047,-0.037 1.261388,-0.067 1.624024,-0.088 -0.245449,-0.8746 -0.490891,-1.6427 -0.736328,-2.3042 z m -4.655762,8.6241 c 0.447915,-1.4187 0.741209,-2.9174 0.879883,-4.4961 l 0.720215,0.064 c -0.128258,1.5147 -0.432294,3.0453 -0.91211,4.5918 z m 5.887695,-1.0401 -0.703613,0.064 c -0.106777,-1.1839 -0.293463,-2.3625 -0.560059,-3.5357 l 0.687989,-0.1279 c 0.277337,1.2373 0.469231,2.4372 0.575683,3.5996 z"
         style="font-size:16px;fill:#f2f2f2;font-family:'M+ 1m light';-inkscape-font-specification:'M+ 1m light'"
         id="path5799" />
      <path
         d="m 110.82024,1033.8292 0,13.0401 2.94385,0 0,0.6401 -3.68018,0 0,-14.3198 3.68018,0 0,0.6396 z"
         style="font-size:16px;fill:#f2f2f2;font-family:'M+ 1m light';-inkscape-font-specification:'M+ 1m light'"
         id="path5801" />
      <path
         d="m 116.48381,1045.5094 0,-11.6802 1.02442,0 2.17578,7.6802 0.0322,0 2.17578,-7.6802 0.99218,0 0,11.6802 -0.8164,0 0,-9.9521 -0.0317,0 -1.91992,6.7519 -0.896,0 -1.91992,-6.7519 -0.0322,0 0,9.9521 z"
         style="font-size:16px;fill:#f2f2f2;font-family:'M+ 1m light';-inkscape-font-specification:'M+ 1m light'"
         id="path5803" />
      <path
         d="m 127.76409,1037.0294 c 0.95995,0 1.63459,0.2053 2.02392,0.616 0.38932,0.4106 0.58398,1.1386 0.58399,2.1838 l 0,5.6802 -0.75196,0 -0.0161,-1.4561 -0.0317,0 c -0.51205,1.0775 -1.35482,1.6163 -2.52832,1.6163 -0.68262,0 -1.23193,-0.2161 -1.64795,-0.6482 -0.41601,-0.4322 -0.62402,-1.0268 -0.62402,-1.784 0,-0.8961 0.30932,-1.6162 0.92798,-2.1601 0.61865,-0.544 1.6267,-0.8159 3.02417,-0.8159 l 0.86377,0 0,-0.5918 c -1e-5,-0.7149 -0.13599,-1.2163 -0.40796,-1.5042 -0.27198,-0.2879 -0.7439,-0.4319 -1.41577,-0.4319 -0.34148,0 -0.77621,0.059 -1.3042,0.176 -0.528,0.1174 -0.97331,0.2614 -1.33594,0.4319 l 0,-0.7519 c 0.91732,-0.3734 1.79736,-0.5601 2.64014,-0.5601 z m 1.82373,3.8721 -0.86377,0 c -0.95997,0 -1.73332,0.184 -2.32007,0.552 -0.58675,0.368 -0.88013,0.9467 -0.88013,1.7361 0,0.5547 0.14673,0.9893 0.44019,1.3039 0.29345,0.3146 0.69604,0.472 1.20776,0.472 0.7041,0 1.28279,-0.2774 1.73609,-0.8321 0.45328,-0.5547 0.67992,-1.296 0.67993,-2.2241 z"
         style="font-size:16px;fill:#f2f2f2;font-family:'M+ 1m light';-inkscape-font-specification:'M+ 1m light'"
         id="path5805" />
      <path
         d="m 133.31585,1047.9415 c 0.70409,0.3519 1.4134,0.5279 2.12793,0.5279 0.74674,0 1.30679,-0.2187 1.68017,-0.656 0.37337,-0.4374 0.56005,-1.1946 0.56006,-2.2718 l 0,-1.6963 -0.0322,0 c -0.47982,1.056 -1.23177,1.584 -2.25586,1.584 -0.7679,0 -1.41854,-0.3173 -1.9519,-0.9519 -0.53337,-0.6346 -0.80005,-1.6773 -0.80005,-3.1282 0,-2.8798 0.91732,-4.3198 2.75195,-4.3198 1.0026,0 1.7653,0.5388 2.28809,1.6162 l 0.0322,0 0.0156,-1.456 0.75195,0 0,8.352 c 0,1.28 -0.24528,2.208 -0.73584,2.784 -0.49056,0.576 -1.25863,0.864 -2.30419,0.864 -0.69304,0 -1.40235,-0.1441 -2.12793,-0.4322 z m 0.12793,-6.5923 c -1e-5,1.0987 0.18399,1.928 0.552,2.4881 0.368,0.56 0.8881,0.8401 1.5603,0.8401 0.63997,0 1.15462,-0.272 1.54395,-0.8159 0.38931,-0.544 0.58397,-1.3013 0.58398,-2.272 l 0,-0.48 c -1e-5,-1.0452 -0.19467,-1.8586 -0.58398,-2.4399 -0.38933,-0.5814 -0.90398,-0.8721 -1.54395,-0.8721 -0.71485,0 -1.24561,0.288 -1.59229,0.864 -0.34668,0.576 -0.52002,1.4719 -0.52001,2.6877 z"
         style="font-size:16px;fill:#f2f2f2;font-family:'M+ 1m light';-inkscape-font-specification:'M+ 1m light'"
         id="path5807" />
      <path
         d="m 143.76409,1037.0294 c 0.95995,0 1.63459,0.2053 2.02392,0.616 0.38932,0.4106 0.58398,1.1386 0.58399,2.1838 l 0,5.6802 -0.75196,0 -0.0161,-1.4561 -0.0317,0 c -0.51205,1.0775 -1.35482,1.6163 -2.52832,1.6163 -0.68262,0 -1.23193,-0.2161 -1.64795,-0.6482 -0.41601,-0.4322 -0.62402,-1.0268 -0.62402,-1.784 0,-0.8961 0.30932,-1.6162 0.92798,-2.1601 0.61865,-0.544 1.6267,-0.8159 3.02417,-0.8159 l 0.86377,0 0,-0.5918 c -1e-5,-0.7149 -0.13599,-1.2163 -0.40796,-1.5042 -0.27198,-0.2879 -0.7439,-0.4319 -1.41577,-0.4319 -0.34148,0 -0.77621,0.059 -1.3042,0.176 -0.528,0.1174 -0.97331,0.2614 -1.33594,0.4319 l 0,-0.7519 c 0.91732,-0.3734 1.79736,-0.5601 2.64014,-0.5601 z m 1.82373,3.8721 -0.86377,0 c -0.95997,0 -1.73332,0.184 -2.32007,0.552 -0.58675,0.368 -0.88013,0.9467 -0.88013,1.7361 0,0.5547 0.14673,0.9893 0.44019,1.3039 0.29345,0.3146 0.69604,0.472 1.20776,0.472 0.7041,0 1.28279,-0.2774 1.73609,-0.8321 0.45328,-0.5547 0.67992,-1.296 0.67993,-2.2241 z"
         style="font-size:16px;fill:#f2f2f2;font-family:'M+ 1m light';-inkscape-font-specification:'M+ 1m light'"
         id="path5809" />
      <path
         d="m 149.09221,1037.1896 5.1836,0 0,0.7197 -4.25586,6.8481 0,0.032 4.25586,0 0,0.7202 -5.1836,0 0,-0.7202 4.25586,-6.8477 0,-0.032 -4.25586,0 z"
         style="font-size:16px;fill:#f2f2f2;font-family:'M+ 1m light';-inkscape-font-specification:'M+ 1m light'"
         id="path5811" />
      <path
         d="m 157.84417,1037.1896 2.71972,0 0,7.6157 1.84033,0 0,0.7041 -4.96044,0 0,-0.7041 2.32031,0 0,-6.9121 -1.91992,0 z m 1.74365,-2 0,-1.8404 0.97607,0 0,1.8404 z"
         style="font-size:16px;fill:#f2f2f2;font-family:'M+ 1m light';-inkscape-font-specification:'M+ 1m light'"
         id="path5813" />
      <path
         d="m 165.7802,1038.6295 0.0156,0 c 0.21354,-0.5013 0.52831,-0.8933 0.94433,-1.176 0.41601,-0.2827 0.89062,-0.4241 1.42383,-0.4241 0.85318,0 1.46118,0.2507 1.82397,0.752 0.36279,0.5013 0.54419,1.3706 0.54419,2.6079 l 0,5.1201 -0.78418,0 0,-4.9761 c 0,-1.1198 -0.12801,-1.8637 -0.38403,-2.2317 -0.25603,-0.368 -0.70931,-0.552 -1.35986,-0.552 -0.65056,0 -1.18124,0.3067 -1.59204,0.92 -0.41081,0.6132 -0.61622,1.4479 -0.61621,2.5039 l 0,4.3359 -0.79981,0 0,-8.3198 0.76807,0 z"
         style="font-size:16px;fill:#f2f2f2;font-family:'M+ 1m light';-inkscape-font-specification:'M+ 1m light'"
         id="path5815" />
      <path
         d="m 175.76409,1037.0294 c 0.93847,0 1.63443,0.3307 2.08789,0.992 0.45344,0.6613 0.68017,1.7279 0.68017,3.1999 0,0.022 -0.003,0.075 -0.008,0.1602 -0.005,0.085 -0.008,0.1439 -0.008,0.1758 l -4.92822,0 c 0.0215,1.1842 0.23226,2.0456 0.63232,2.5842 0.40006,0.5386 1.00537,0.8078 1.81592,0.8078 0.69335,0 1.40266,-0.1759 2.12793,-0.5278 l 0,0.8159 c -0.75717,0.2881 -1.47722,0.4322 -2.16016,0.4322 -2.15462,0 -3.23193,-1.4401 -3.23193,-4.3204 0,-1.4931 0.24536,-2.5864 0.73608,-3.2797 0.49072,-0.6934 1.24276,-1.0401 2.25611,-1.0401 z m -2.17627,3.8399 4.14404,0 c -0.0104,-1.1625 -0.19166,-1.973 -0.5437,-2.4317 -0.35206,-0.4586 -0.82675,-0.688 -1.42407,-0.688 -0.72527,0 -1.25863,0.24 -1.6001,0.72 -0.34147,0.48 -0.53353,1.2799 -0.57617,2.3997 z"
         style="font-size:16px;fill:#f2f2f2;font-family:'M+ 1m light';-inkscape-font-specification:'M+ 1m light'"
         id="path5817" />
      <path
         d="m 186.82024,1033.8292 -5.52002,12.3203 -0.75244,0 5.52002,-12.3203 z"
         style="font-size:16px;fill:#f2f2f2;font-family:'M+ 1m light';-inkscape-font-specification:'M+ 1m light'"
         id="path5819" />
      <path
         d="m 194.05217,1037.2213 c 0,-0.9918 -0.22136,-1.7118 -0.66406,-2.1599 -0.44271,-0.4481 -1.14942,-0.6721 -2.12012,-0.6721 -0.48014,0 -0.93343,0.053 -1.35986,0.1601 l 0,5.4082 c 0.47982,0.075 0.9331,0.1119 1.35986,0.1119 0.98144,0 1.69084,-0.2187 2.12818,-0.656 0.43733,-0.4374 0.656,-1.1681 0.656,-2.1922 z m 0.79981,0 c -1e-5,1.2481 -0.28264,2.1547 -0.8479,2.72 -0.56527,0.5653 -1.45061,0.8479 -2.65601,0.8479 -0.38412,0 -0.8641,-0.037 -1.43994,-0.1118 l 0,4.832 -0.81592,0 0,-11.584 c 0.68262,-0.1705 1.4292,-0.2558 2.23975,-0.2558 1.2054,0 2.09342,0.2853 2.66406,0.8559 0.57063,0.5707 0.85595,1.4693 0.85596,2.6958 z"
         style="font-size:16px;fill:#f2f2f2;font-family:'M+ 1m light';-inkscape-font-specification:'M+ 1m light'"
         id="path5821" />
      <path
         d="m 199.76409,1037.0294 c 0.95995,0 1.63459,0.2053 2.02392,0.616 0.38932,0.4106 0.58398,1.1386 0.58399,2.1838 l 0,5.6802 -0.75196,0 -0.0161,-1.4561 -0.0317,0 c -0.51205,1.0775 -1.35482,1.6163 -2.52832,1.6163 -0.68262,0 -1.23193,-0.2161 -1.64795,-0.6482 -0.41601,-0.4322 -0.62402,-1.0268 -0.62402,-1.784 0,-0.8961 0.30932,-1.6162 0.92798,-2.1601 0.61865,-0.544 1.6267,-0.8159 3.02417,-0.8159 l 0.86377,0 0,-0.5918 c -1e-5,-0.7149 -0.13599,-1.2163 -0.40796,-1.5042 -0.27198,-0.2879 -0.7439,-0.4319 -1.41577,-0.4319 -0.34148,0 -0.77621,0.059 -1.3042,0.176 -0.528,0.1174 -0.97331,0.2614 -1.33594,0.4319 l 0,-0.7519 c 0.91732,-0.3734 1.79736,-0.5601 2.64014,-0.5601 z m 1.82373,3.8721 -0.86377,0 c -0.95997,0 -1.73332,0.184 -2.32007,0.552 -0.58675,0.368 -0.88013,0.9467 -0.88013,1.7361 0,0.5547 0.14673,0.9893 0.44019,1.3039 0.29345,0.3146 0.69604,0.472 1.20776,0.472 0.7041,0 1.28279,-0.2774 1.73609,-0.8321 0.45328,-0.5547 0.67992,-1.296 0.67993,-2.2241 z"
         style="font-size:16px;fill:#f2f2f2;font-family:'M+ 1m light';-inkscape-font-specification:'M+ 1m light'"
         id="path5823" />
      <path
         d="m 207.81194,1037.7975 c -0.63998,0 -1.15463,0.2907 -1.54395,0.8721 -0.38932,0.5813 -0.58398,1.3947 -0.58398,2.4399 l 0,0.48 c 0,1.056 0.19197,1.872 0.57593,2.448 0.38395,0.576 0.90128,0.864 1.552,0.864 0.67219,0 1.1923,-0.296 1.5603,-0.888 0.368,-0.5919 0.552,-1.48 0.552,-2.6643 0,-2.3678 -0.7041,-3.5517 -2.1123,-3.5517 z m 2.91211,3.5517 c -1e-5,1.5254 -0.25872,2.6268 -0.77612,3.3042 -0.51743,0.6775 -1.17603,1.0162 -1.97583,1.0162 -1.056,0 -1.80795,-0.5388 -2.25586,-1.6163 l -0.0322,0 0,4.9761 -0.79981,0 0,-11.8398 0.75196,0 0.0156,1.456 0.0322,0 c 0.52278,-1.0774 1.28548,-1.6162 2.28809,-1.6162 1.83462,0 2.75194,1.44 2.75195,4.3198 z"
         style="font-size:16px;fill:#f2f2f2;font-family:'M+ 1m light';-inkscape-font-specification:'M+ 1m light'"
         id="path5825" />
      <path
         d="m 215.76409,1037.0294 c 0.93847,0 1.63443,0.3307 2.08789,0.992 0.45344,0.6613 0.68017,1.7279 0.68017,3.1999 0,0.022 -0.003,0.075 -0.008,0.1602 -0.005,0.085 -0.008,0.1439 -0.008,0.1758 l -4.92822,0 c 0.0215,1.1842 0.23226,2.0456 0.63232,2.5842 0.40006,0.5386 1.00537,0.8078 1.81592,0.8078 0.69335,0 1.40266,-0.1759 2.12793,-0.5278 l 0,0.8159 c -0.75717,0.2881 -1.47722,0.4322 -2.16016,0.4322 -2.15462,0 -3.23193,-1.4401 -3.23193,-4.3204 0,-1.4931 0.24536,-2.5864 0.73608,-3.2797 0.49072,-0.6934 1.24276,-1.0401 2.25611,-1.0401 z m -2.17627,3.8399 4.14404,0 c -0.0104,-1.1625 -0.19166,-1.973 -0.5437,-2.4317 -0.35206,-0.4586 -0.82675,-0.688 -1.42407,-0.688 -0.72527,0 -1.25863,0.24 -1.6001,0.72 -0.34147,0.48 -0.53353,1.2799 -0.57617,2.3997 z"
         style="font-size:16px;fill:#f2f2f2;font-family:'M+ 1m light';-inkscape-font-specification:'M+ 1m light'"
         id="path5827" />
      <path
         d="m 222.372,1037.1896 0,1.8877 0.0322,0 c 0.66113,-1.3653 1.64779,-2.0479 2.95997,-2.0479 0.37336,0 0.74657,0.048 1.11962,0.1441 l 0,0.7358 c -0.33041,-0.1064 -0.70362,-0.1597 -1.11962,-0.1597 -0.83204,0 -1.53337,0.3413 -2.10401,1.024 -0.57064,0.6826 -0.85596,1.5411 -0.85596,2.5756 l 0,4.1602 -0.80029,0 0,-8.3198 z"
         style="font-size:16px;fill:#f2f2f2;font-family:'M+ 1m light';-inkscape-font-specification:'M+ 1m light'"
         id="path5829" />
      <path
         d="m 232.54778,1033.8292 -2.94385,0 0,-0.6396 3.68018,0 0,14.3198 -3.68018,0 0,-0.6401 2.94385,0 z"
         style="font-size:16px;fill:#f2f2f2;font-family:'M+ 1m light';-inkscape-font-specification:'M+ 1m light'"
         id="path5831" />
    </g>
    <g
       id="g5754"
       transform="translate(0.280823,1027.6437)">
	<path
   id="path5756"
   d="m 22.21,10.842 c -0.069,-0.061 -0.321,-0.238 -0.665,0.062 -0.73,0.637 -1.296,0.625 -1.49,0.596 1.242,-2.157 1.089,-2.293 0.883,-2.471 -0.07,-0.06 -0.323,-0.233 -0.667,0.065 -0.68,0.593 -1.197,0.385 -1.374,0.279 l 1.519,-2.54 C 20.519,6.663 20.484,6.443 20.336,6.311 20.186,6.179 19.964,6.172 19.809,6.294 19.638,6.425 19.166,6.645 17.908,6.645 15.102,6.645 10.75,5.567 10.706,5.556 10.539,5.514 10.365,5.58 10.266,5.721 4.111,14.538 3.608,15.723 3.67,16.064 c 0,0.001 0,0.002 0,0.002 -0.045,0.167 0.019,0.337 0.148,0.436 -0.038,0.196 0.063,0.396 0.256,0.466 7.929,2.891 10.814,3.488 11.903,3.488 0.55,0 0.643,-0.152 0.695,-0.239 6.047,-8.925 5.877,-9.075 5.538,-9.375 z m -2.414,-0.575 c -0.865,1.55 -2.778,4.644 -4.577,7.458 -0.256,0.084 -1.911,0.387 -9.768,-1.62 0.297,-0.033 0.614,-0.055 0.961,-0.055 3.147,0 7.265,1.336 7.306,1.35 0.043,0.015 0.087,0.021 0.13,0.021 0.142,0 0.278,-0.075 0.354,-0.202 l 4.268,-7.135 c 0.298,0.177 0.77,0.318 1.326,0.183 z M 10.782,6.428 c 1.025,0.243 4.602,1.046 7.124,1.046 0.462,0 0.864,-0.027 1.211,-0.081 l -5.457,9.121 c -1.046,-0.321 -4.449,-1.291 -7.248,-1.291 -0.594,0 -1.129,0.045 -1.599,0.134 0.995,-1.691 3.942,-6.02 5.969,-8.929 z m 5.287,13.204 c -0.007,10e-4 -0.014,10e-4 -0.019,0.003 -0.152,0.005 -0.526,-0.006 -1.34,-0.172 -1.006,-0.206 -2.778,-0.669 -5.828,-1.688 2.231,0.489 4.273,0.837 5.578,0.837 0.738,0 1.24,-0.11 1.409,-0.369 l 10e-4,0.001 c 1.778,-2.781 2.971,-4.694 3.76,-6.021 0.027,0.017 0.052,0.038 0.084,0.049 0.03,0.011 0.512,0.17 1.211,-0.06 -1.065,1.748 -3.291,5.106 -4.856,7.42 z"
   inkscape:connector-curvature="0"
   style="fill:#f2f2f2" />

	<path
   id="path5758"
   d="M 14.412,10.5 C 14.388,10.467 14.237,10.268 13.766,10.088 L 13.543,9.996 C 13.174,9.852 12.924,9.788 12.914,9.786 12.896,9.782 12.876,9.779 12.856,9.778 12.841,9.778 12.789,9.775 12.751,9.765 12.658,9.739 12.495,9.738 12.465,9.738 c -0.037,0 -0.932,0.016 -1.408,0.357 -0.042,0.027 -0.237,0.174 -0.355,0.601 -0.022,0.003 -0.045,0.008 -0.066,0.016 -0.146,0.051 -0.179,0.214 -0.187,0.31 -0.023,0.083 0.005,0.143 0.042,0.184 -0.148,0.492 0.336,1.068 1.018,1.198 0.795,0.151 1.804,-0.18 2.206,-0.584 0.076,-0.02 0.162,-0.058 0.236,-0.131 0.098,-0.079 0.249,-0.22 0.189,-0.311 -0.004,-0.004 -0.006,-0.009 -0.012,-0.014 0.209,-0.166 0.56,-0.522 0.284,-0.864 z m -0.611,0.825 c -0.033,0.024 -0.039,0.056 -0.014,0.083 0.013,0.015 0.032,0.026 0.055,0.035 -0.021,0.037 -0.083,0.102 -0.151,0.155 -0.003,0.002 -0.007,0.005 -0.009,0.008 -0.038,0.04 -0.083,0.065 -0.128,0.073 -0.038,0.006 -0.071,0.02 -0.088,0.039 -0.315,0.343 -1.217,0.657 -1.864,0.534 -0.544,-0.103 -0.948,-0.627 -0.8,-1.039 0.008,-0.022 -10e-4,-0.044 -0.026,-0.063 -0.027,-0.021 -0.036,-0.058 -0.024,-0.102 10e-4,-0.003 0.002,-0.006 0.002,-0.009 0.004,-0.062 0.023,-0.128 0.044,-0.167 0.03,0.004 0.059,0.004 0.088,-10e-4 0.054,-0.009 0.091,-0.034 0.098,-0.064 0.106,-0.469 0.31,-0.605 0.31,-0.605 0.003,-0.002 0.005,-0.003 0.009,-0.005 0.389,-0.282 1.176,-0.296 1.181,-0.296 0.036,0 0.104,0.002 0.137,0.008 0.065,0.018 0.149,0.027 0.193,0.029 0.068,0.019 0.274,0.079 0.552,0.187 l 0.222,0.093 c 0.421,0.16 0.537,0.332 0.537,0.333 0.002,0.002 0.004,0.005 0.006,0.007 0.258,0.313 -0.189,0.666 -0.33,0.767 z"
   inkscape:connector-curvature="0"
   style="fill:#f2f2f2" />

	<path
   id="path5760"
   d="m 6.752,13.816 c 1.121,0.553 3.138,0.998 3.138,0.998 0.11,0.021 0.215,0.039 0.319,0.055 l 0,0.005 c 0,0 2.083,0.337 3.573,0.279 0,0 0.2,0.013 0.343,-0.21 0,0 0.528,-0.993 0.228,-1.543 0,0 -0.091,-0.146 -0.43,-0.296 0,0 -0.028,-0.012 -0.073,-0.03 -0.291,-0.149 -0.583,-0.264 -0.583,-0.264 -0.063,-0.027 -0.115,-0.051 -0.163,-0.074 -0.194,-0.104 -0.349,-0.28 -0.349,-0.28 -1.667,0.676 -2.253,-0.43 -2.253,-0.43 -0.214,0.156 -1.631,0.115 -1.631,0.115 C 8.44,12.145 8.207,12.23 8.207,12.23 7.372,12.563 6.71,13.531 6.71,13.531 c -0.128,0.227 0.042,0.285 0.042,0.285 z"
   inkscape:connector-curvature="0"
   style="fill:#f2f2f2" />

	<path
   id="path5762"
   d="m 12.693,12.478 c 0.021,-0.007 0.041,-0.013 0.062,-0.021 0,-0.007 0.002,-0.011 0.002,-0.011 -0.023,0.012 -0.043,0.02 -0.064,0.032 z"
   inkscape:connector-curvature="0"
   style="fill:#f2f2f2" />

	<polygon
   id="polygon5764"
   points="10.509,12.027 10.509,12.023 10.509,12.023 "
   style="fill:#f2f2f2" />

	<polygon
   id="polygon5766"
   points="10.509,12.023 10.509,12.02 10.501,12.027 "
   style="fill:#f2f2f2" />

	<path
   id="path5768"
   d="m 10.322,8.265 c 0.076,0.011 0.147,0.007 0.213,-0.012 0.067,-0.018 0.121,-0.051 0.162,-0.098 l 0.261,-0.313 c 0.08,-0.097 0.166,-0.167 0.262,-0.212 0.093,-0.045 0.222,-0.056 0.382,-0.033 0.08,0.011 0.131,0.029 0.151,0.055 0.021,0.026 0.021,0.055 10e-4,0.089 -0.018,0.033 -0.051,0.079 -0.1,0.137 l -0.306,0.367 c -0.042,0.049 -0.048,0.088 -0.023,0.119 0.026,0.031 0.077,0.052 0.151,0.062 0.077,0.011 0.148,0.007 0.216,-0.011 0.065,-0.017 0.12,-0.05 0.162,-0.099 L 12.11,8.009 c 0.082,-0.098 0.157,-0.165 0.226,-0.198 0.058,-0.025 0.124,-0.043 0.197,-0.053 0.073,-0.01 0.143,-0.011 0.208,-0.001 0.08,0.011 0.131,0.029 0.154,0.055 0.022,0.026 0.027,0.055 0.01,0.086 C 12.89,7.929 12.862,7.97 12.82,8.019 l -0.324,0.387 c -0.04,0.048 -0.046,0.087 -0.02,0.119 0.028,0.031 0.079,0.052 0.153,0.063 0.077,0.01 0.149,0.008 0.216,-0.01 0.065,-0.018 0.12,-0.051 0.161,-0.099 l 0.375,-0.45 C 13.456,7.939 13.489,7.871 13.482,7.823 13.473,7.77 13.43,7.725 13.353,7.686 13.275,7.647 13.171,7.619 13.036,7.6 12.922,7.583 12.807,7.58 12.693,7.59 12.579,7.6 12.46,7.622 12.338,7.658 12.318,7.603 12.275,7.558 12.206,7.523 12.137,7.487 12.039,7.461 11.916,7.443 11.797,7.427 11.681,7.423 11.563,7.431 11.448,7.44 11.326,7.463 11.202,7.498 L 11.221,7.476 C 11.252,7.439 11.253,7.407 11.226,7.379 11.199,7.352 11.151,7.333 11.084,7.324 11.013,7.314 10.949,7.318 10.887,7.334 10.825,7.35 10.777,7.38 10.741,7.423 l -0.55,0.66 c -0.04,0.048 -0.046,0.087 -0.02,0.119 0.026,0.031 0.077,0.052 0.151,0.063 z"
   inkscape:connector-curvature="0"
   style="fill:#f2f2f2" />

	<path
   id="path5770"
   d="M 14.757,8.255 C 14.66,8.252 14.545,8.248 14.412,8.243 14.279,8.237 14.194,8.233 14.16,8.233 14,8.227 13.857,8.241 13.734,8.273 13.611,8.305 13.523,8.354 13.471,8.416 13.432,8.463 13.421,8.51 13.44,8.557 c 0.019,0.048 0.066,0.089 0.142,0.126 0.077,0.037 0.178,0.064 0.304,0.082 0.138,0.02 0.272,0.026 0.4,0.02 0.129,-0.005 0.272,-0.021 0.427,-0.048 0.02,0.05 0.046,0.09 0.075,0.119 0.031,0.029 0.072,0.047 0.123,0.055 0.06,0.009 0.121,0.006 0.185,-0.007 C 15.159,8.892 15.202,8.873 15.222,8.849 15.233,8.836 15.243,8.804 15.251,8.752 15.26,8.701 15.282,8.653 15.318,8.61 15.358,8.564 15.393,8.522 15.425,8.485 15.456,8.447 15.496,8.401 15.541,8.348 15.612,8.262 15.645,8.19 15.637,8.131 15.629,8.072 15.573,8.022 15.468,7.981 15.366,7.94 15.205,7.904 14.989,7.874 14.797,7.847 14.625,7.836 14.473,7.842 14.322,7.849 14.201,7.867 14.106,7.897 14.016,7.925 13.952,7.959 13.918,8 13.896,8.026 13.9,8.05 13.926,8.072 c 0.026,0.022 0.067,0.037 0.121,0.045 0.062,0.008 0.105,0.009 0.134,10e-4 0.027,-0.008 0.077,-0.025 0.148,-0.051 0.073,-0.026 0.147,-0.042 0.225,-0.051 0.076,-0.007 0.178,-0.002 0.302,0.016 0.146,0.021 0.229,0.048 0.252,0.083 0.022,0.035 0.012,0.083 -0.034,0.145 -0.115,0 -0.22,-0.002 -0.317,-0.005 z m 0.175,0.176 C 14.866,8.511 14.794,8.566 14.721,8.594 14.656,8.62 14.575,8.637 14.477,8.646 14.376,8.654 14.279,8.652 14.181,8.638 14.089,8.625 14.026,8.602 13.99,8.57 13.954,8.538 13.952,8.504 13.981,8.469 14.008,8.435 14.054,8.412 14.116,8.4 c 0.066,-0.012 0.127,-0.018 0.186,-0.017 0.059,0.001 0.161,0.005 0.312,0.011 0.148,0.005 0.264,0.007 0.346,0.005 l -0.028,0.032 z"
   inkscape:connector-curvature="0"
   style="fill:#f2f2f2" />

	<path
   id="path5772"
   d="M 16.692,9.258 C 16.64,9.284 16.57,9.3 16.486,9.306 16.403,9.313 16.297,9.307 16.17,9.289 16.107,9.281 16.054,9.27 16.012,9.258 15.967,9.246 15.934,9.232 15.907,9.216 15.885,9.2 15.864,9.182 15.848,9.164 15.832,9.144 15.817,9.124 15.803,9.105 15.775,9.068 15.723,9.044 15.652,9.034 15.594,9.026 15.538,9.028 15.481,9.04 15.426,9.052 15.386,9.072 15.364,9.1 c -0.031,0.037 -0.025,0.079 0.017,0.124 0.042,0.045 0.121,0.088 0.236,0.129 0.115,0.041 0.256,0.073 0.425,0.097 0.186,0.027 0.349,0.04 0.486,0.039 0.14,0 0.263,-0.012 0.369,-0.038 0.108,-0.025 0.201,-0.063 0.282,-0.112 0.081,-0.051 0.153,-0.115 0.218,-0.191 l 0.559,-0.67 C 18,8.425 18.019,8.381 18.014,8.347 18.007,8.313 17.955,8.291 17.863,8.277 17.795,8.267 17.732,8.271 17.673,8.287 17.611,8.303 17.565,8.331 17.531,8.37 L 17.505,8.402 C 17.462,8.336 17.4,8.283 17.318,8.244 17.238,8.204 17.127,8.175 16.986,8.155 16.872,8.139 16.757,8.133 16.643,8.139 c -0.115,0.006 -0.224,0.023 -0.33,0.05 -0.107,0.028 -0.203,0.067 -0.29,0.117 -0.088,0.05 -0.16,0.11 -0.218,0.179 -0.078,0.093 -0.112,0.179 -0.105,0.26 0.008,0.081 0.056,0.149 0.146,0.206 0.09,0.057 0.218,0.097 0.382,0.12 0.138,0.02 0.266,0.022 0.386,0.011 0.122,-0.012 0.239,-0.038 0.357,-0.077 -0.065,0.076 -0.115,0.129 -0.148,0.163 -0.033,0.034 -0.077,0.064 -0.131,0.09 z m 0.082,-0.336 c -0.09,0.01 -0.175,0.01 -0.258,-0.002 -0.138,-0.019 -0.23,-0.059 -0.277,-0.119 -0.046,-0.06 -0.032,-0.137 0.047,-0.23 0.077,-0.092 0.179,-0.157 0.307,-0.195 0.126,-0.039 0.259,-0.047 0.399,-0.028 0.145,0.02 0.238,0.063 0.283,0.127 0.044,0.064 0.027,0.144 -0.051,0.238 -0.05,0.059 -0.114,0.106 -0.194,0.142 -0.079,0.034 -0.165,0.057 -0.256,0.067 z"
   inkscape:connector-curvature="0"
   style="fill:#f2f2f2" />

</g>
  </g>
</svg>
